<svg width="30" height="30" viewBox="0 0 30 30" fill="none" xmlns="http://www.w3.org/2000/svg">
<path d="M29.9162 23.2164C29.9064 23.1535 29.897 23.0913 29.8868 23.0292C29.6273 21.4261 29.1213 19.8754 28.3875 18.4346C27.6692 17.0229 26.7423 15.7333 25.6395 14.6114C24.8342 13.7913 23.9413 13.0665 22.9778 12.4508C22.9835 12.4412 22.9883 12.4307 22.9942 12.4208C23.2968 11.8855 23.6003 11.3508 23.903 10.8152L24.7908 9.24706C25.0038 8.87194 25.2164 8.49586 25.428 8.12074C25.4783 8.03154 25.5182 7.93966 25.5479 7.8451C25.6492 7.52297 25.6342 7.17433 25.5057 6.86254C25.4807 6.80174 25.4517 6.74286 25.4187 6.6859C25.3015 6.48509 25.1371 6.31745 24.9405 6.19822C24.7616 6.08966 24.5612 6.02364 24.354 6.00502C24.2675 5.9976 24.1805 5.99841 24.0941 6.00742C24.0229 6.01494 23.952 6.02814 23.8815 6.04702C23.7065 6.0945 23.5423 6.17689 23.3985 6.28947C23.2546 6.40205 23.1339 6.5426 23.0432 6.70306C22.8306 7.0783 22.618 7.45426 22.4059 7.82938L21.5181 9.39766C21.2154 9.9331 20.9119 10.4678 20.6093 11.0033C20.5762 11.0617 20.5429 11.12 20.5099 11.1793C20.4641 11.1603 20.4184 11.1419 20.3726 11.1239C18.7038 10.4723 16.8935 10.1159 15.0012 10.1159C14.9494 10.1159 14.8982 10.1159 14.846 10.1166C13.1636 10.1337 11.547 10.4334 10.0388 10.971C9.86484 11.0332 9.69215 11.0988 9.52078 11.168C9.49008 11.1134 9.45844 11.0587 9.4282 11.004C9.12551 10.4685 8.82199 9.93382 8.51941 9.39838L7.6316 7.82998C7.41863 7.45484 7.20617 7.0794 6.99422 6.70366C6.86318 6.47175 6.67028 6.28291 6.43814 6.15929C6.206 6.03568 5.94425 5.98241 5.68359 6.00574C5.47608 6.02373 5.2753 6.08988 5.09648 6.19918C4.90006 6.31843 4.73584 6.48602 4.61871 6.68674C4.58578 6.74362 4.55637 6.80278 4.53176 6.8635C4.40331 7.17527 4.38814 7.52383 4.48898 7.84606C4.51934 7.94038 4.55859 8.03254 4.60887 8.12158C4.82183 8.49672 5.03429 8.87216 5.24625 9.2479C5.54258 9.7707 5.83867 10.2935 6.13453 10.8162C6.43711 11.3516 6.74016 11.8863 7.04273 12.4218C7.04508 12.4263 7.04812 12.4308 7.05035 12.4352C6.4414 12.8226 5.86013 13.2538 5.31094 13.7256C4.32848 14.5699 3.45434 15.5382 2.70938 16.6074C2.30336 17.1901 1.93763 17.8012 1.61484 18.4362C1.05763 19.5304 0.631006 20.6893 0.34418 21.8879C0.254186 22.2658 0.177922 22.647 0.115547 23.0307C0.105352 23.0929 0.0959766 23.1558 0.0866016 23.2179C0.0527335 23.4426 0.0238589 23.6681 0 23.8941H30C29.976 23.6672 29.9473 23.4417 29.914 23.2178L29.9162 23.2164Z" fill="#34A853"/>
<path d="M22.8035 19.6454C23.4038 19.2362 23.4911 18.2894 22.9982 17.531C22.5056 16.7723 21.6197 16.4892 21.0197 16.8983C20.4195 17.3075 20.332 18.2543 20.8249 19.0128C21.3175 19.7714 22.2036 20.0546 22.8035 19.6454ZM9.20134 19.0154C9.69423 18.2569 9.60681 17.3102 9.00658 16.901C8.40622 16.4918 7.52064 16.775 7.02775 17.5334C6.53521 18.2922 6.62251 19.2389 7.22251 19.6481C7.82275 20.0573 8.7088 19.7741 9.20134 19.0154Z" fill="#202124"/>
</svg>
