<svg width="30" height="30" viewBox="0 0 30 30" fill="none" xmlns="http://www.w3.org/2000/svg">
<path d="M20.2786 0.142031C19.8082 0.419765 19.0252 1.20609 18.0947 2.3468L18.9506 3.96469C19.553 3.10547 20.164 2.32945 20.7804 1.66781C20.5807 1.88648 19.9749 2.595 19.0617 3.99773C19.9418 3.95437 21.2925 3.77367 22.395 3.58617C22.7248 1.74773 22.0739 0.9075 22.0739 0.9075C22.0739 0.9075 21.2473 -0.428907 20.2786 0.142031Z" fill="url(#paint0_linear_726_300)"/>
<path d="M17.3986 13.7334C17.2891 13.7524 17.1783 13.7733 17.0618 13.7925C17.0618 13.7925 17.0602 13.7925 17.0602 13.7941L17.2336 13.7681C17.2875 13.7559 17.343 13.7456 17.3986 13.7334" fill="#BD202E"/>
<path opacity="0.35" d="M17.3986 13.7334C17.2891 13.7524 17.1783 13.7733 17.0618 13.7925C17.0618 13.7925 17.0602 13.7925 17.0602 13.7941L17.2336 13.7681C17.2875 13.7559 17.343 13.7456 17.3986 13.7334" fill="#BD202E"/>
<path d="M17.685 12.3185C17.685 12.3185 17.685 12.3202 17.685 12.3185C17.6836 12.3182 17.6831 12.3187 17.6834 12.3202C17.7007 12.3185 17.7197 12.315 17.7373 12.3115C17.8099 12.3012 17.8812 12.289 17.9506 12.2716C17.8638 12.2873 17.7771 12.3028 17.685 12.3185Z" fill="#BD202E"/>
<path opacity="0.35" d="M17.685 12.3185C17.685 12.3185 17.685 12.3202 17.685 12.3185C17.6836 12.3182 17.6831 12.3187 17.6834 12.3202C17.7007 12.3185 17.7197 12.315 17.7373 12.3115C17.8099 12.3012 17.8812 12.289 17.9506 12.2716C17.8638 12.2873 17.7771 12.3028 17.685 12.3185Z" fill="#BD202E"/>
<path d="M16.4229 8.14687C16.6786 7.66766 16.942 7.19253 17.2127 6.72164C17.4833 6.24961 17.7635 5.78311 18.053 5.32242C18.0687 5.29617 18.0877 5.26851 18.1034 5.2425C18.3755 4.81089 18.6574 4.38547 18.9487 3.96656L18.093 2.34843C18.0275 2.4283 17.9626 2.50877 17.8985 2.58984C17.6371 2.91593 17.3813 3.24644 17.1312 3.58125C16.8204 3.99744 16.5165 4.41875 16.2197 4.845C15.9243 5.26899 15.635 5.69716 15.3518 6.12937C15.0994 6.51487 14.8522 6.90381 14.6105 7.29609C14.6017 7.31031 14.5931 7.32539 14.5847 7.34132L15.7008 9.54609C15.9341 9.07593 16.1749 8.60947 16.4229 8.14687Z" fill="url(#paint1_linear_726_300)"/>
<path d="M11.3398 20.5629C11.1889 20.9756 11.0408 21.3894 10.8954 21.8041C10.8935 21.8093 10.8919 21.8163 10.8884 21.8215C10.8675 21.8805 10.845 21.9412 10.826 22.0003C10.7252 22.2851 10.6385 22.542 10.4388 23.1237C10.767 23.273 11.0309 23.6686 11.2807 24.1165C11.2578 23.6435 11.048 23.1989 10.6974 22.8806C12.3171 22.9533 13.7131 22.5438 14.4352 21.3598C14.4994 21.2538 14.5585 21.1444 14.6121 21.0246C14.284 21.4413 13.8762 21.6166 13.1105 21.5749C14.239 21.0698 14.8031 20.5854 15.3049 19.7834C15.4231 19.5926 15.5393 19.3859 15.6574 19.155C14.6712 20.167 13.5307 20.4553 12.3277 20.2366L11.4249 20.3355C11.3953 20.412 11.3693 20.4865 11.3398 20.5629Z" fill="url(#paint2_linear_726_300)"/>
<path d="M11.7616 18.5438C11.9562 18.0405 12.1575 17.5301 12.3624 17.0163C12.5611 16.5194 12.7637 16.024 12.9701 15.5302C13.1795 15.0298 13.3912 14.5304 13.6052 14.032C13.8245 13.5234 14.0496 13.0165 14.2807 12.5112C14.5061 12.0136 14.7364 11.5183 14.9716 11.0252C15.0549 10.848 15.1418 10.6711 15.2269 10.4955C15.3745 10.1918 15.5236 9.88969 15.6745 9.5911C15.6834 9.57563 15.6902 9.55828 15.6989 9.54258L14.5828 7.33781C14.5653 7.36793 14.5467 7.39747 14.5273 7.42641C14.2634 7.85659 14.0059 8.29062 13.7548 8.72836C13.4957 9.18031 13.2439 9.63639 12.9994 10.0964C12.7918 10.4881 12.5886 10.8822 12.39 11.2786C12.3502 11.3583 12.312 11.4401 12.2721 11.52C12.0403 11.9979 11.8197 12.4813 11.6107 12.9696C11.3973 13.4659 11.1988 13.9683 11.0154 14.4764C10.9006 14.7905 10.7981 15.0928 10.7027 15.3844C10.6247 15.6326 10.5516 15.8827 10.4787 16.1309C10.3132 16.7072 10.1701 17.2898 10.0498 17.8772L11.1715 20.0906C11.3191 19.695 11.4717 19.2921 11.6281 18.8859C11.6749 18.7697 11.7166 18.6551 11.7616 18.5438Z" fill="url(#paint3_linear_726_300)"/>
<path d="M10.0378 17.9519C9.89719 18.6602 9.79641 19.3652 9.74602 20.0665L9.74086 20.1391C9.39023 19.5785 8.45461 19.0317 8.45625 19.0369C9.1282 20.0091 9.6368 20.9744 9.71133 21.922C9.35203 21.9951 8.86055 21.8892 8.29312 21.6809C8.88516 22.226 9.32953 22.3753 9.50484 22.4168C8.95969 22.4517 8.39391 22.8251 7.8225 23.2556C8.65758 22.9153 9.33305 22.7798 9.81563 22.8893C9.04828 25.0591 8.28094 27.4549 7.51172 30C7.74797 29.9306 7.88859 29.7708 7.96664 29.5573C8.10375 29.0972 9.01195 26.073 10.437 22.1027C10.4787 21.99 10.5187 21.8754 10.5602 21.7624C10.5712 21.7296 10.5828 21.6984 10.5952 21.6687C10.7445 21.2522 10.9022 20.8268 11.062 20.3927C11.0986 20.2938 11.1349 20.1949 11.1731 20.096C11.1731 20.0941 11.175 20.0925 11.175 20.0906L10.0516 17.8772C10.0475 17.9022 10.0431 17.9271 10.0378 17.9519Z" fill="url(#paint4_linear_726_300)"/>
<path d="M15.8726 9.72656C15.8398 9.79265 15.8084 9.85851 15.7753 9.92461C15.6783 10.1241 15.5808 10.3273 15.4802 10.5356C15.3724 10.7613 15.2651 10.9903 15.1556 11.2266C15.1 11.3447 15.0444 11.4644 14.989 11.5859C14.8176 11.9598 14.6486 12.3348 14.482 12.7109C14.263 13.2032 14.0483 13.6974 13.838 14.1935C13.6315 14.6829 13.4177 15.1882 13.2061 15.7123C13.0029 16.2091 12.7983 16.7229 12.5897 17.2505C12.3989 17.7339 12.212 18.219 12.0291 18.7055C12.0204 18.728 12.0117 18.754 12.003 18.7765C11.8155 19.2712 11.6262 19.7801 11.437 20.3009C11.4335 20.3128 11.4284 20.3234 11.4248 20.3372L12.3276 20.2383C12.3103 20.2348 12.2911 20.2331 12.2737 20.2296C13.3519 20.096 14.7876 19.2886 15.713 18.2939C16.14 17.8357 16.5272 17.2941 16.8848 16.6603C17.1501 16.19 17.4024 15.6658 17.6416 15.0877C17.8627 14.5468 18.0631 13.9977 18.2423 13.4416C17.9939 13.5719 17.711 13.669 17.3986 13.7351C17.343 13.7473 17.2875 13.7576 17.2303 13.7679C17.1731 13.7784 17.1152 13.7871 17.0566 13.7941C17.0566 13.7941 17.0583 13.7941 17.0583 13.7925C18.0651 13.4053 18.6989 12.6588 19.159 11.7441C18.8951 11.9245 18.4645 12.1605 17.9489 12.2733C17.8604 12.2926 17.7713 12.3088 17.6817 12.322H17.685C18.0356 12.1762 18.3291 12.0112 18.5843 11.8186C18.6398 11.7769 18.6937 11.7352 18.7423 11.6902C18.8203 11.6222 18.8934 11.5512 18.9663 11.4783C19.0113 11.4298 19.0547 11.381 19.0983 11.3306C19.1991 11.2112 19.2928 11.0823 19.3795 10.9437C19.4053 10.9001 19.4334 10.8586 19.4576 10.8134C19.4923 10.7491 19.5234 10.6849 19.5548 10.6242C19.6789 10.3772 19.793 10.1253 19.8968 9.86906C19.9418 9.75796 19.98 9.65718 20.0147 9.55992C20.0287 9.52171 20.0407 9.48539 20.0529 9.44882C20.0894 9.34289 20.1171 9.24914 20.1396 9.16593C20.1745 9.04078 20.1954 8.94187 20.2057 8.87062C20.171 8.89687 20.133 8.92453 20.0876 8.95054C19.7838 9.13289 19.263 9.29601 18.843 9.37429C18.8376 9.37593 18.8309 9.37593 18.8238 9.37757C18.7805 9.38461 18.7406 9.39164 18.6973 9.39679L18.7179 9.38625L15.8831 9.69703C15.8813 9.70739 15.8777 9.71738 15.8726 9.72656Z" fill="url(#paint5_linear_726_300)"/>
<path d="M19.0634 3.99774C18.7805 4.43416 18.5056 4.87572 18.2388 5.32219C17.9444 5.81789 17.6573 6.31795 17.3777 6.82219C17.1148 7.29984 16.8579 7.78074 16.6069 8.26477C16.3618 8.7397 16.1216 9.21715 15.8864 9.69703L18.7214 9.38625C19.5478 9.0061 19.9158 8.66414 20.2734 8.16586C20.3672 8.02875 20.4645 7.88649 20.5582 7.73696C20.8583 7.26606 21.1358 6.78114 21.3898 6.28383C21.6361 5.80336 21.8531 5.32758 22.0198 4.89703C22.1167 4.65176 22.2002 4.40139 22.2699 4.14703C22.3219 3.95086 22.362 3.76336 22.3931 3.58453C21.2941 3.77367 19.9418 3.95438 19.0634 3.99774Z" fill="url(#paint6_linear_726_300)"/>
<path d="M17.2303 13.7646C17.1731 13.7749 17.1152 13.7836 17.0566 13.7906C17.1157 13.7855 17.1745 13.7749 17.2301 13.7646H17.2303Z" fill="#BD202E"/>
<path opacity="0.35" d="M17.2303 13.7646C17.1731 13.7749 17.1152 13.7836 17.0566 13.7906C17.1157 13.7855 17.1745 13.7749 17.2301 13.7646H17.2303Z" fill="#BD202E"/>
<path d="M17.2303 13.7646C17.1731 13.7749 17.1152 13.7836 17.0566 13.7906C17.1157 13.7855 17.1748 13.7749 17.2303 13.7646Z" fill="url(#paint7_linear_726_300)"/>
<path d="M17.6833 12.3202C17.7007 12.3185 17.7197 12.315 17.7373 12.3115C17.7197 12.3134 17.7023 12.3185 17.6833 12.3202Z" fill="#BD202E"/>
<path opacity="0.35" d="M17.6833 12.3202C17.7007 12.3185 17.7197 12.315 17.7373 12.3115C17.7197 12.3134 17.7023 12.3185 17.6833 12.3202Z" fill="#BD202E"/>
<path d="M17.6833 12.3202C17.7007 12.3185 17.7197 12.315 17.7373 12.3115C17.7197 12.3134 17.7023 12.3185 17.6833 12.3202Z" fill="url(#paint8_linear_726_300)"/>
<path d="M17.6833 12.3198C17.6842 12.3189 17.6842 12.3198 17.6833 12.3198C17.6842 12.3189 17.6842 12.3198 17.6833 12.3198Z" fill="#BD202E"/>
<path opacity="0.35" d="M17.6833 12.3198C17.6842 12.3189 17.6842 12.3198 17.6833 12.3198C17.6842 12.3189 17.6842 12.3198 17.6833 12.3198Z" fill="#BD202E"/>
<defs>
<linearGradient id="paint0_linear_726_300" x1="18.8149" y1="2.54789" x2="25.0964" y2="0.801562" gradientUnits="userSpaceOnUse">
<stop stop-color="#F59723"/>
<stop offset="0.312" stop-color="#F69822"/>
<stop offset="0.838" stop-color="#E87726"/>
</linearGradient>
<linearGradient id="paint1_linear_726_300" x1="5.06508" y1="30.7397" x2="17.8416" y2="3.34031" gradientUnits="userSpaceOnUse">
<stop offset="0.323" stop-color="#9C2063"/>
<stop offset="0.63" stop-color="#C82037"/>
<stop offset="0.751" stop-color="#CC2135"/>
<stop offset="1" stop-color="#E87726"/>
</linearGradient>
<linearGradient id="paint2_linear_726_300" x1="9.35228" y1="28.7121" x2="16.9657" y2="12.3846" gradientUnits="userSpaceOnUse">
<stop stop-color="#282661"/>
<stop offset="0.095" stop-color="#662E8C"/>
<stop offset="0.788" stop-color="#9E2064"/>
<stop offset="0.949" stop-color="#CC2032"/>
</linearGradient>
<linearGradient id="paint3_linear_726_300" x1="5.52563" y1="29.0808" x2="18.3021" y2="1.68141" gradientUnits="userSpaceOnUse">
<stop offset="0.323" stop-color="#9C2063"/>
<stop offset="0.63" stop-color="#C82037"/>
<stop offset="0.751" stop-color="#CC2135"/>
<stop offset="1" stop-color="#E87726"/>
</linearGradient>
<linearGradient id="paint4_linear_726_300" x1="6.82922" y1="27.2559" x2="13.5436" y2="12.8566" gradientUnits="userSpaceOnUse">
<stop stop-color="#282661"/>
<stop offset="0.095" stop-color="#662E8C"/>
<stop offset="0.788" stop-color="#9E2064"/>
<stop offset="0.949" stop-color="#CC2032"/>
</linearGradient>
<linearGradient id="paint5_linear_726_300" x1="8.36249" y1="30.4036" x2="21.1387" y2="3.00422" gradientUnits="userSpaceOnUse">
<stop offset="0.323" stop-color="#9C2063"/>
<stop offset="0.63" stop-color="#C82037"/>
<stop offset="0.751" stop-color="#CC2135"/>
<stop offset="1" stop-color="#E87726"/>
</linearGradient>
<linearGradient id="paint6_linear_726_300" x1="7.42782" y1="32.0372" x2="20.2043" y2="4.63781" gradientUnits="userSpaceOnUse">
<stop offset="0.323" stop-color="#9C2063"/>
<stop offset="0.63" stop-color="#C82037"/>
<stop offset="0.751" stop-color="#CC2135"/>
<stop offset="1" stop-color="#E87726"/>
</linearGradient>
<linearGradient id="paint7_linear_726_300" x1="9.2044" y1="30.7962" x2="21.9807" y2="3.39682" gradientUnits="userSpaceOnUse">
<stop offset="0.323" stop-color="#9C2063"/>
<stop offset="0.63" stop-color="#C82037"/>
<stop offset="0.751" stop-color="#CC2135"/>
<stop offset="1" stop-color="#E87726"/>
</linearGradient>
<linearGradient id="paint8_linear_726_300" x1="9.10885" y1="30.7531" x2="21.8867" y2="3.35217" gradientUnits="userSpaceOnUse">
<stop offset="0.323" stop-color="#9C2063"/>
<stop offset="0.63" stop-color="#C82037"/>
<stop offset="0.751" stop-color="#CC2135"/>
<stop offset="1" stop-color="#E87726"/>
</linearGradient>
</defs>
</svg>
