<svg width="30" height="30" viewBox="0 0 30 30" fill="none" xmlns="http://www.w3.org/2000/svg">
<g clip-path="url(#clip0_732_5)">
<path d="M27.8358 22.4578C28.0444 22.0962 28.1735 21.6891 28.1735 21.3227V8.62031C28.1735 8.25515 28.0446 7.84757 27.8358 7.48593L14.8702 14.9719L27.8358 22.4578Z" fill="#00599C"/>
<path d="M16.0219 29.6686L27.0218 23.3184C27.3387 23.1354 27.6269 22.8194 27.8358 22.4578L14.8702 14.9719L1.90312 22.4578C2.11172 22.8194 2.40023 23.1351 2.71711 23.3184L13.717 29.6686C14.3505 30.0347 15.3881 30.0347 16.0214 29.6686H16.0219Z" fill="#004482"/>
<path d="M27.8358 7.48617C27.627 7.12383 27.3387 6.80789 27.0218 6.62578L16.0216 0.274685C15.3881 -0.0916431 14.3508 -0.0916431 13.7173 0.274685L2.71735 6.62578C2.0836 6.99094 1.56563 7.88906 1.56563 8.62031V21.3225C1.56563 21.6886 1.69453 22.0959 1.90336 22.4576L14.8699 14.9719L27.8358 7.48617Z" fill="#659AD2"/>
<path d="M14.8699 6.10195C9.97922 6.10195 6.00047 10.0809 6.00047 14.9716C6.00047 19.8623 9.97922 23.8413 14.8699 23.8413C18.0258 23.8413 20.9693 22.1428 22.5504 19.4093L18.7125 17.1879C17.9203 18.5566 16.4484 19.4062 14.8699 19.4062C12.4247 19.4062 10.4351 17.4169 10.4351 14.9714C10.4351 12.5259 12.4249 10.5366 14.8699 10.5366C16.4473 10.5366 17.9208 11.3871 18.7113 12.7549L22.5504 10.5337C20.9684 7.8 18.0258 6.10195 14.8699 6.10195ZM21.7688 13.493V14.479H20.7827V15.4641H21.7688V16.4501H22.7538V15.4641H23.7389V14.479H22.7538V13.493H21.7688ZM25.4639 13.493V14.479H24.4786V15.4641H25.4639V16.4501H26.4499V15.4641H27.435V14.479H26.4499V13.493H25.4639Z" fill="white"/>
</g>
<defs>
<clipPath id="clip0_732_5">
<rect width="30" height="30" fill="white"/>
</clipPath>
</defs>
</svg>
