<svg width="30" height="30" viewBox="0 0 30 30" fill="none" xmlns="http://www.w3.org/2000/svg">
<path d="M22.6364 0H27V4.28571H22.6364V0ZM22.6364 8.57143V21.5679C22.6335 22.6667 22.1878 23.7197 21.3966 24.4967C20.6055 25.2737 19.5334 25.7115 18.4145 25.7143H18.2727V30H18.4145C19.5422 30.0006 20.6588 29.7828 21.7007 29.3593C22.7426 28.9357 23.6893 28.3146 24.4867 27.5315C25.284 26.7484 25.9164 25.8187 26.3476 24.7954C26.7789 23.7721 27.0006 22.6753 27 21.5679V8.57143H22.6364ZM13.9091 0H18.2727V21.4286H13.9091V0Z" fill="#43A047"/>
<path d="M11.5505 10.7143C12.1758 10.7151 12.7752 10.9594 13.2173 11.3937C13.6595 11.8279 13.9082 12.4166 13.9091 13.0307V18.3396L13.0691 18.615C12.0786 18.9394 11.0144 18.9796 10.0015 18.7307C9.2476 18.546 8.57836 18.1189 8.10032 17.5174C7.62228 16.9158 7.36295 16.1745 7.36364 15.4114V14.8253C7.3645 13.7351 7.80594 12.6898 8.59098 11.9189C9.37602 11.1481 10.4405 10.7148 11.5505 10.7143ZM11.5505 6.42856C9.28317 6.42913 7.1088 7.31393 5.50542 8.88848C3.90204 10.463 3.00087 12.5985 3 14.8253V15.4114C2.99946 17.1302 3.58418 18.7998 4.66113 20.1545C5.73808 21.5093 7.2454 22.4714 8.94327 22.8878C10.7613 23.3343 12.6713 23.2622 14.4491 22.68L18.2727 21.4286V13.0307C18.273 12.1636 18.0993 11.305 17.7616 10.5038C17.4239 9.7027 16.9288 8.97478 16.3045 8.36165C15.6802 7.74853 14.9391 7.26223 14.1234 6.93054C13.3077 6.59885 12.4334 6.42828 11.5505 6.42856Z" fill="#43A047"/>
</svg>
