<svg width="30" height="30" viewBox="0 0 30 30" fill="none" xmlns="http://www.w3.org/2000/svg">
<path d="M29.715 11.9372C29.625 11.8787 28.875 11.3075 27.255 11.3075C26.835 11.3075 26.415 11.3515 25.995 11.4247C25.68 9.37448 23.925 8.33473 23.85 8.2908L23.415 8.04184L23.145 8.43724C22.785 8.96444 22.5 9.56485 22.38 10.1799C22.08 11.3515 22.26 12.4644 22.875 13.4163C22.14 13.8264 20.94 13.9289 20.685 13.9289H0.93C0.42 13.9289 0 14.3389 0 14.8515C0 16.5356 0.27 18.2197 0.87 19.8013C1.545 21.5439 2.565 22.8326 3.87 23.6234C5.34 24.5021 7.755 25 10.5 25C11.685 25 12.915 24.8975 14.13 24.6778C15.81 24.3849 17.43 23.8138 18.915 22.9791C20.1449 22.2925 21.2457 21.406 22.17 20.3577C23.745 18.6444 24.675 16.6967 25.35 15.0126H25.635C27.345 15.0126 28.41 14.3389 28.995 13.7678C29.385 13.4163 29.67 12.9916 29.88 12.4937L30 12.1423L29.715 11.9372ZM2.775 13.387H5.415C5.535 13.387 5.655 13.2845 5.655 13.1527V10.8389C5.655 10.7218 5.55 10.6046 5.415 10.6046H2.775C2.64 10.6046 2.535 10.7071 2.535 10.8389V13.1527C2.55 13.2845 2.64 13.387 2.775 13.387ZM6.42 13.387H9.06C9.18 13.387 9.3 13.2845 9.3 13.1527V10.8389C9.3 10.7218 9.195 10.6046 9.06 10.6046H6.42C6.285 10.6046 6.18 10.7071 6.18 10.8389V13.1527C6.195 13.2845 6.285 13.387 6.42 13.387ZM10.125 13.387H12.75C12.9 13.387 13.005 13.2845 13.005 13.1527V10.8389C13.005 10.7218 12.915 10.6046 12.75 10.6046H10.125C10.005 10.6046 9.9 10.7071 9.9 10.8389V13.1527C9.9 13.2845 9.99 13.387 10.125 13.387ZM13.785 13.387H16.44C16.56 13.387 16.665 13.2845 16.665 13.1527V10.8389C16.665 10.7218 16.575 10.6046 16.44 10.6046H13.785C13.665 10.6046 13.56 10.7071 13.56 10.8389V13.1527C13.56 13.2845 13.665 13.387 13.785 13.387ZM6.42 10.1067H9.06C9.18 10.1067 9.3 9.97489 9.3 9.8431V7.54393C9.3 7.41213 9.195 7.30962 9.06 7.30962H6.42C6.285 7.30962 6.18 7.39749 6.18 7.54393V9.8431C6.195 9.97489 6.285 10.1067 6.42 10.1067ZM10.125 10.1067H12.75C12.9 10.1067 13.005 9.97489 13.005 9.8431V7.54393C13.005 7.41213 12.915 7.30962 12.75 7.30962H10.125C10.005 7.30962 9.9 7.39749 9.9 7.54393V9.8431C9.9 9.97489 9.99 10.1067 10.125 10.1067ZM13.785 10.1067H16.44C16.56 10.1067 16.665 9.97489 16.665 9.8431V7.54393C16.665 7.41213 16.56 7.30962 16.44 7.30962H13.785C13.665 7.30962 13.56 7.39749 13.56 7.54393V9.8431C13.56 9.97489 13.665 10.1067 13.785 10.1067ZM13.785 6.76778H16.44C16.56 6.76778 16.665 6.66527 16.665 6.53347V4.24895C16.665 4.10251 16.56 4 16.44 4H13.785C13.665 4 13.56 4.08787 13.56 4.24895V6.53347C13.56 6.65063 13.665 6.76778 13.785 6.76778ZM17.475 13.387H20.115C20.25 13.387 20.355 13.2845 20.355 13.1527V10.8389C20.355 10.7218 20.25 10.6046 20.115 10.6046H17.475C17.355 10.6046 17.25 10.7071 17.25 10.8389V13.1527C17.25 13.2845 17.355 13.387 17.475 13.387Z" fill="#0288D1"/>
</svg>
