<svg width="30" height="30" viewBox="0 0 30 30" fill="none" xmlns="http://www.w3.org/2000/svg">
<g clip-path="url(#clip0_726_170)">
<path d="M22.9688 0H7.03125C3.148 0 0 3.148 0 7.03125V22.9688C0 26.852 3.148 30 7.03125 30H22.9688C26.852 30 30 26.852 30 22.9688V7.03125C30 3.148 26.852 0 22.9688 0Z" fill="#2B2E3A"/>
<path d="M11.8087 8.2936C8.76129 7.7386 6.35168 8.3195 5.39133 9.98285C4.67473 11.2241 4.87957 12.8698 5.8882 14.6289C5.9132 14.6746 5.94922 14.7133 5.99297 14.7415C6.03673 14.7698 6.08685 14.7867 6.13878 14.7907C6.19072 14.7946 6.24282 14.7856 6.29038 14.7643C6.33793 14.7431 6.37942 14.7103 6.41109 14.6689C6.43632 14.6359 6.4547 14.5981 6.46514 14.5578C6.47559 14.5175 6.47789 14.4755 6.47191 14.4343C6.46583 14.3932 6.45169 14.3536 6.43031 14.318C5.52188 12.7334 5.34504 11.3132 5.93262 10.2954C6.73043 8.91364 8.87965 8.39543 11.6967 8.90848C11.7777 8.92196 11.8607 8.90306 11.9278 8.85585C11.9949 8.80865 12.0408 8.73694 12.0555 8.65621C12.0702 8.57547 12.0526 8.49219 12.0064 8.42434C11.9603 8.3565 11.8893 8.30954 11.8087 8.2936ZM7.47293 16.7671C8.70516 18.1212 10.3061 19.3914 12.1318 20.4454C16.5525 22.9977 21.2587 23.6798 23.5781 22.0984C23.6128 22.0757 23.6427 22.0462 23.6659 22.0118C23.689 21.9773 23.7051 21.9386 23.7131 21.8979C23.7254 21.8366 23.7189 21.773 23.6946 21.7154C23.6702 21.6578 23.6291 21.6089 23.5766 21.5749C23.5242 21.5409 23.4627 21.5234 23.4002 21.5246C23.3377 21.5259 23.277 21.5459 23.226 21.5821C21.1501 22.9975 16.6796 22.3494 12.4444 19.9042C10.6732 18.8816 9.12293 17.6516 7.93523 16.3464C7.90764 16.3159 7.8743 16.2911 7.83712 16.2735C7.79994 16.2558 7.75965 16.2457 7.71855 16.2437C7.67745 16.2417 7.63635 16.2477 7.5976 16.2616C7.55886 16.2755 7.52324 16.2969 7.4928 16.3246C7.46236 16.3523 7.4377 16.3857 7.42023 16.423C7.40276 16.4603 7.39283 16.5006 7.39102 16.5417C7.38918 16.5828 7.39547 16.6239 7.40953 16.6626C7.42359 16.7012 7.44513 16.7367 7.47293 16.7671Z" fill="#9FEAF9"/>
<path d="M22.8382 16.3869C24.8337 14.0296 25.5304 11.6586 24.572 9.99878C23.8669 8.77734 22.3761 8.13246 20.3948 8.10667C20.3336 8.10671 20.2737 8.12475 20.2226 8.15856C20.1715 8.19236 20.1315 8.24044 20.1075 8.29681C20.0836 8.35318 20.0767 8.41535 20.0878 8.4756C20.0988 8.53585 20.1274 8.59151 20.1698 8.63566C20.2267 8.69488 20.3047 8.72935 20.3868 8.73164C22.1686 8.75484 23.453 9.31042 24.0308 10.3113C24.8268 11.69 24.2054 13.8043 22.3611 15.9831C22.334 16.0143 22.3134 16.0506 22.3005 16.0899C22.2875 16.1292 22.2825 16.1706 22.2858 16.2118C22.2889 16.2531 22.3003 16.2932 22.3192 16.33C22.3379 16.3668 22.3638 16.3996 22.3954 16.4263C22.4269 16.453 22.4635 16.4732 22.5029 16.4856C22.5424 16.4981 22.5839 16.5027 22.625 16.4989C22.6662 16.4952 22.7062 16.4834 22.7428 16.4643C22.7795 16.445 22.8118 16.4188 22.8382 16.3869ZM17.71 8.39765C15.9057 8.78425 13.9853 9.54011 12.141 10.6049C7.57746 13.2396 4.60055 17.1247 5.01399 19.9418C5.01944 19.9828 5.03301 20.0223 5.05389 20.058C5.07478 20.0937 5.10256 20.1249 5.13563 20.1498C5.18535 20.1874 5.2452 20.2092 5.30745 20.2125C5.3697 20.2157 5.43149 20.2002 5.48485 20.168C5.52031 20.1467 5.55119 20.1185 5.57567 20.0852C5.60016 20.0519 5.61776 20.014 5.62746 19.9738C5.63711 19.9336 5.63879 19.8918 5.63238 19.851C5.26524 17.3497 8.08711 13.6671 12.4535 11.1462C14.2426 10.1132 16.1022 9.38132 17.8409 9.00878C17.8918 8.99867 17.9394 8.97604 17.9794 8.94294C18.0194 8.90984 18.0505 8.86731 18.07 8.81918C18.0894 8.77105 18.0966 8.71884 18.0909 8.66724C18.0851 8.61565 18.0666 8.56629 18.037 8.52363C18.0133 8.48963 17.983 8.46067 17.948 8.43843C17.913 8.41618 17.874 8.40109 17.8331 8.39402C17.7922 8.38715 17.7504 8.38838 17.71 8.39765Z" fill="#9FEAF9"/>
<path d="M10.3167 21.8947C11.3602 24.808 13.067 26.6018 14.9863 26.6018C16.3861 26.6018 17.6811 25.6475 18.6911 23.9677C18.7129 23.9325 18.7275 23.8933 18.7341 23.8524C18.7407 23.8115 18.7391 23.7697 18.7294 23.7294C18.7198 23.6891 18.7022 23.6511 18.6777 23.6177C18.6532 23.5842 18.6223 23.556 18.5868 23.5346C18.5512 23.5133 18.5118 23.4992 18.4708 23.4933C18.4297 23.4873 18.3879 23.4897 18.3478 23.5001C18.3077 23.5105 18.2701 23.5287 18.2371 23.5536C18.204 23.5786 18.1763 23.6099 18.1554 23.6456C17.2478 25.1554 16.133 25.9767 14.9863 25.9767C13.392 25.9767 11.8696 24.3769 10.9052 21.6841C10.8921 21.6447 10.8711 21.6083 10.8437 21.5771C10.8162 21.5458 10.7828 21.5204 10.7454 21.5023C10.6891 21.4748 10.6258 21.4649 10.5638 21.474C10.5018 21.483 10.4439 21.5105 10.3978 21.5529C10.3672 21.581 10.3425 21.615 10.3251 21.6527C10.3078 21.6905 10.298 21.7313 10.2966 21.7729C10.2952 21.8145 10.302 21.8559 10.3167 21.8947ZM19.8466 21.3248C20.3869 19.5989 20.6769 17.6079 20.6769 15.5331C20.6769 10.3559 18.8648 5.8929 16.2839 4.74692C16.2085 4.71534 16.1237 4.71456 16.0478 4.74474C15.9718 4.77492 15.9107 4.83366 15.8775 4.90837C15.8443 4.98308 15.8418 5.06781 15.8703 5.1444C15.8989 5.22099 15.9563 5.28335 16.0303 5.31809C18.3322 6.34032 20.0518 10.5758 20.0518 15.5331C20.0518 17.546 19.7709 19.4741 19.2503 21.1382C19.2308 21.1974 19.2295 21.2612 19.2466 21.3212C19.2636 21.3812 19.2982 21.4348 19.3459 21.475C19.3937 21.515 19.4524 21.5399 19.5144 21.5464C19.5764 21.553 19.639 21.5409 19.6941 21.5116C19.7306 21.4922 19.7629 21.4656 19.7891 21.4336C19.8153 21.4015 19.8348 21.3645 19.8466 21.3248ZM25.7323 21.0188C25.7323 20.1927 25.0627 19.5231 24.2366 19.5231C23.4105 19.5231 22.7409 20.1927 22.7409 21.0188C22.7409 21.8448 23.4105 22.5144 24.2366 22.5144C25.0627 22.5144 25.7323 21.8448 25.7323 21.0188ZM25.1073 21.0188C25.1073 21.1331 25.0848 21.2463 25.041 21.3519C24.9973 21.4576 24.9332 21.5536 24.8523 21.6345C24.7715 21.7154 24.6754 21.7795 24.5698 21.8232C24.4375 21.878 24.2937 21.8992 24.1513 21.8852C24.0088 21.8711 23.872 21.8221 23.7529 21.7426C23.6339 21.663 23.5363 21.5554 23.4688 21.4291C23.4013 21.3029 23.3659 21.1619 23.3659 21.0188C23.366 20.8466 23.4171 20.6783 23.5128 20.5352C23.6085 20.3921 23.7445 20.2805 23.9035 20.2146C24.0626 20.1488 24.2376 20.1315 24.4065 20.165C24.5753 20.1986 24.7305 20.2814 24.8523 20.4031C24.9332 20.4839 24.9973 20.5799 25.041 20.6855C25.0848 20.7912 25.1073 20.9044 25.1073 21.0188ZM5.71441 22.5144C6.54059 22.5144 7.2102 21.8448 7.2102 21.0188C7.2102 20.1927 6.54047 19.5231 5.71441 19.5231C4.88836 19.5231 4.21875 20.1927 4.21875 21.0188C4.21875 21.8448 4.88848 22.5144 5.71441 22.5144ZM5.71441 21.8895C5.54222 21.8894 5.37391 21.8383 5.23075 21.7426C5.08759 21.647 4.97602 21.511 4.91012 21.3519C4.84422 21.1928 4.82697 21.0178 4.86054 20.8489C4.89411 20.68 4.97699 20.5248 5.09871 20.4031C5.2205 20.2813 5.37565 20.1984 5.54453 20.1649C5.71342 20.1313 5.88847 20.1486 6.04755 20.2145C6.20663 20.2804 6.34261 20.3919 6.43829 20.5351C6.53398 20.6783 6.58507 20.8466 6.58512 21.0188C6.58512 21.2497 6.49338 21.4711 6.33009 21.6344C6.16681 21.7977 5.94534 21.8895 5.71441 21.8895Z" fill="#9FEAF9"/>
<path d="M14.9863 6.27258C15.8123 6.27258 16.482 5.60297 16.482 4.77691C16.482 3.95086 15.8123 3.28125 14.9863 3.28125C14.1602 3.28125 13.4906 3.95086 13.4906 4.77691C13.4906 5.60297 14.1602 6.27258 14.9863 6.27258ZM14.9863 5.64762C14.7553 5.64762 14.5339 5.55588 14.3706 5.39258C14.2073 5.22928 14.1155 5.0078 14.1155 4.77686C14.1155 4.54592 14.2073 4.32443 14.3706 4.16113C14.5339 3.99783 14.7553 3.90609 14.9863 3.90609C15.2172 3.90609 15.4387 3.99783 15.602 4.16113C15.7653 4.32443 15.857 4.54592 15.857 4.77686C15.857 5.0078 15.7653 5.22928 15.602 5.39258C15.4387 5.55588 15.2172 5.64762 14.9863 5.64762ZM15.2147 16.5908C14.6305 16.717 14.055 16.3458 13.9286 15.7616C13.8985 15.6227 13.8962 15.4792 13.9216 15.3394C13.947 15.1996 13.9997 15.0662 14.0767 14.9467C14.1537 14.8273 14.2535 14.7242 14.3704 14.6433C14.4872 14.5624 14.6189 14.5053 14.7578 14.4754C15.342 14.3491 15.9175 14.7204 16.044 15.3046C16.1702 15.8887 15.799 16.4644 15.2147 16.5908Z" fill="#9FEAF9"/>
</g>
<defs>
<clipPath id="clip0_726_170">
<rect width="30" height="30" fill="white"/>
</clipPath>
</defs>
</svg>
