<svg width="30" height="30" viewBox="0 0 30 30" fill="none" xmlns="http://www.w3.org/2000/svg">
<path d="M22.2332 2H7.76676C7.67259 1.99997 7.58005 2.02476 7.49838 2.0719C7.4167 2.11904 7.34875 2.18689 7.30128 2.26867L0.0734294 14.727C0.0253402 14.8099 0 14.9041 0 15C0 15.0959 0.0253402 15.1901 0.0734294 15.273L7.30128 27.7313C7.34875 27.8131 7.4167 27.881 7.49838 27.9281C7.58005 27.9752 7.67259 28 7.76676 28H22.2332C22.3274 28 22.42 27.9752 22.5016 27.9281C22.5833 27.881 22.6513 27.8131 22.6987 27.7313L29.9266 15.273C29.9747 15.1901 30 15.0959 30 15C30 14.9041 29.9747 14.8099 29.9266 14.727L22.6987 2.26867C22.6513 2.18689 22.5833 2.11904 22.5016 2.0719C22.42 2.02476 22.3274 1.99997 22.2332 2ZM14.7586 24.6287L6.67741 20.5662C6.58804 20.5211 6.51288 20.452 6.46036 20.3665C6.40784 20.281 6.38003 20.1824 6.38002 20.0819V9.91808C6.38003 9.81757 6.40784 9.71905 6.46036 9.63353C6.51288 9.548 6.58804 9.47886 6.67741 9.43383L14.7586 5.37133C14.8336 5.33359 14.9162 5.31393 15 5.31393C15.0838 5.31393 15.1664 5.33359 15.2414 5.37133L23.3226 9.43383C23.412 9.47886 23.4871 9.548 23.5396 9.63353C23.5922 9.71905 23.62 9.81757 23.62 9.91808V20.0819C23.62 20.1824 23.5922 20.281 23.5396 20.3665C23.4871 20.452 23.412 20.5211 23.3226 20.5662L15.2414 24.6287C15.1664 24.6664 15.0838 24.6861 15 24.6861C14.9162 24.6861 14.8336 24.6664 14.7586 24.6287Z" fill="#3F51B5"/>
<path d="M21.465 18.7277V11.2722C21.465 11.1717 21.4372 11.0732 21.3846 10.9877C21.3321 10.9022 21.257 10.833 21.1676 10.788L15.2413 7.80883C15.1664 7.77109 15.0838 7.75143 15 7.75143C14.9162 7.75143 14.8335 7.77109 14.7586 7.80883L8.83239 10.788C8.74302 10.833 8.66787 10.9022 8.61535 10.9877C8.56282 11.0732 8.53501 11.1717 8.535 11.2722V18.7277C8.53501 18.8283 8.56282 18.9268 8.61535 19.0123C8.66787 19.0978 8.74302 19.167 8.83239 19.212L14.7586 22.1912C14.8335 22.2289 14.9162 22.2486 15 22.2486C15.0838 22.2486 15.1664 22.2289 15.2413 22.1912L21.1676 19.212C21.257 19.167 21.3321 19.0978 21.3846 19.0123C21.4372 18.9268 21.465 18.8283 21.465 18.7277Z" fill="#7986CB"/>
</svg>
