<svg width="30" height="30" viewBox="0 0 30 30" fill="none" xmlns="http://www.w3.org/2000/svg">
<g clip-path="url(#clip0_726_193)">
<path d="M22.9688 0H7.03125C3.148 0 0 3.148 0 7.03125V22.9688C0 26.852 3.148 30 7.03125 30H22.9688C26.852 30 30 26.852 30 22.9688V7.03125C30 3.148 26.852 0 22.9688 0Z" fill="#242938"/>
<path d="M26.7188 21.4379C26.3776 21.5672 26.0009 21.567 25.6599 21.4373C25.319 21.3076 25.0373 21.0575 24.8682 20.7342C23.8062 19.1443 22.6334 17.6262 21.5061 16.0754L21.0173 15.4239C19.6751 17.2222 18.3328 18.9489 17.1079 20.7408C16.9483 21.0497 16.6819 21.2901 16.3582 21.4172C16.0346 21.5443 15.6758 21.5493 15.3486 21.4315L20.3854 14.6746L15.7004 8.5691C16.0377 8.44735 16.4066 8.44568 16.7449 8.56438C17.0833 8.68309 17.3703 8.91489 17.5575 9.22067C18.6456 10.8107 19.8511 12.3288 21.0499 13.9383C22.2554 12.3418 23.4478 10.8171 24.562 9.24024C24.7224 8.93628 24.989 8.70192 25.311 8.58177C25.633 8.46162 25.9879 8.46408 26.3082 8.58867L24.4903 10.9996C23.6759 12.0747 22.8744 13.1563 22.0274 14.2054C21.9591 14.2665 21.9045 14.3413 21.8671 14.4249C21.8297 14.5086 21.8104 14.5992 21.8104 14.6908C21.8104 14.7824 21.8297 14.873 21.8671 14.9567C21.9045 15.0403 21.9591 15.1151 22.0274 15.1763C23.5847 17.2418 25.1289 19.3138 26.7188 21.4379ZM3.28125 14.5898C3.41812 13.9383 3.50273 13.228 3.69176 12.5634C4.81898 8.55621 9.41262 6.88805 12.5728 9.37067C14.4233 10.8238 14.886 12.8828 14.7948 15.2024H4.36945C4.2 19.3465 7.19074 21.8486 11.0155 20.5714C11.636 20.3495 12.1914 19.9766 12.6316 19.4863C13.0719 18.996 13.3831 18.4037 13.5371 17.763C13.7392 17.1115 14.065 17.0007 14.6839 17.1897C14.582 17.9829 14.3015 18.7427 13.8636 19.4119C13.4258 20.0812 12.8419 20.6425 12.1559 21.0536C11.0224 21.6735 9.72191 21.9191 8.44041 21.7553C7.15891 21.5914 5.96205 21.0265 5.02102 20.1414C4.09002 19.0946 3.52709 17.7719 3.41812 16.3752C3.41812 16.1537 3.3334 15.9321 3.28781 15.7236C3.2835 15.3457 3.28131 14.9678 3.28125 14.5898ZM4.38246 14.3097H13.8109C13.7522 11.3059 11.8561 9.1752 9.32801 9.15574C6.51316 9.1166 4.49977 11.2016 4.3759 14.2966L4.38246 14.3097Z" fill="white"/>
</g>
<defs>
<clipPath id="clip0_726_193">
<rect width="30" height="30" fill="white"/>
</clipPath>
</defs>
</svg>
