<svg width="30" height="30" viewBox="0 0 30 30" fill="none" xmlns="http://www.w3.org/2000/svg">
<path d="M22.9688 0H7.03125C3.148 0 0 3.148 0 7.03125V22.9688C0 26.852 3.148 30 7.03125 30H22.9688C26.852 30 30 26.852 30 22.9688V7.03125C30 3.148 26.852 0 22.9688 0Z" fill="black"/>
<path d="M11.0563 26.7188C13.2125 26.7188 14.9625 24.9688 14.9625 22.8125V18.9062H11.0563C8.9 18.9062 7.14993 20.6563 7.14993 22.8125C7.14993 24.9688 8.9 26.7188 11.0563 26.7188Z" fill="#0ACF83"/>
<path d="M7.14993 15C7.14993 12.8438 8.9 11.0938 11.0563 11.0938H14.9625V18.9062H11.0563C8.9 18.9062 7.14993 17.1562 7.14993 15Z" fill="#A259FF"/>
<path d="M7.14993 7.18746C7.14993 5.03121 8.9 3.28125 11.0563 3.28125H14.9625V11.0938H11.0563C8.9 11.0938 7.14993 9.34371 7.14993 7.18746Z" fill="#F24E1E"/>
<path d="M14.9625 3.28125H18.8687C21.0249 3.28125 22.775 5.03121 22.775 7.18746C22.775 9.34371 21.0249 11.0938 18.8687 11.0938H14.9625V3.28125Z" fill="#FF7262"/>
<path d="M22.775 15C22.775 17.1562 21.0249 18.9062 18.8687 18.9062C16.7124 18.9062 14.9625 17.1562 14.9625 15C14.9625 12.8438 16.7124 11.0938 18.8687 11.0938C21.0249 11.0938 22.775 12.8438 22.775 15Z" fill="#1ABCFE"/>
</svg>
