<svg width="30" height="30" viewBox="0 0 30 30" fill="none" xmlns="http://www.w3.org/2000/svg">
<path d="M13.4664 3.47765C13.4502 5.28903 13.8689 9.3185 14.0227 10.7206L3.32526 15.5585C2.62526 14.3471 2.10027 12.6482 1.77902 11.289L1.70402 11.3231C1.44777 11.4368 1.19652 11.3901 1.08653 11.212L1.07278 11.1892L0.0477837 9.28692C-0.0247157 9.15429 -0.0147158 8.96861 0.0777834 8.79177C0.178904 8.60766 0.335734 8.46113 0.52528 8.37366L12.8052 3.05955C12.9877 2.97871 13.1789 2.97997 13.3052 3.0646C13.4377 3.14292 13.4639 3.22629 13.4677 3.47765H13.4664ZM14.3164 12.3198C14.9702 14.8082 15.1602 15.3665 15.3564 15.8794L6.27773 20.553C5.42271 19.4298 4.66571 18.2337 4.01525 16.9783L14.3164 12.3198ZM29.8563 23.4179H29.86C30.2138 23.9257 29.8013 24.2478 29.6688 24.2996L28.485 24.7669C28.5313 24.9248 28.5288 25.1699 28.2138 25.2899L27.2938 25.6524C27.0076 25.7661 26.7963 25.5779 26.7688 25.3998L26.7376 25.2419C21.2039 27.4954 16.8126 27.3703 13.3677 26.0592C10.8914 25.1181 8.89771 23.5543 7.31022 21.7909L15.9952 17.3194C16.8964 19.1269 17.9776 20.4191 19.1314 21.3337C21.7389 23.4027 24.6501 23.4962 26.3726 23.308L26.3138 23.0137C26.2951 22.9164 26.3226 22.8432 26.4213 22.8053L27.3388 22.4415C27.4123 22.4116 27.4932 22.4061 27.57 22.4256C27.6468 22.4451 27.7155 22.4887 27.7663 22.5501L28.7013 22.1863C28.7749 22.1587 28.855 22.1542 28.9311 22.1736C29.0073 22.193 29.0757 22.2353 29.1275 22.2949L29.8563 23.4179Z" fill="#00A6FF"/>
</svg>
