<svg width="30" height="30" viewBox="0 0 30 30" fill="none" xmlns="http://www.w3.org/2000/svg">
<path d="M12.3487 2.65126L11.0437 3.95626L12.8344 5.74689L14.7094 7.62189C15.1364 7.41063 15.6103 7.31186 16.0862 7.33494C16.5621 7.35802 17.0242 7.50218 17.4288 7.75376C17.8334 8.00535 18.1671 8.35604 18.3983 8.77264C18.6295 9.18923 18.7506 9.65794 18.75 10.1344C18.7399 10.5596 18.6409 10.9779 18.4594 11.3625L20.3906 13.2375C20.8971 12.9449 21.4898 12.8382 22.0666 12.9357C22.6433 13.0333 23.1679 13.329 23.55 13.7719C23.817 14.0279 24.0281 14.3364 24.1701 14.6779C24.312 15.0195 24.3818 15.3867 24.375 15.7566C24.3756 16.4951 24.0876 17.2046 23.5725 17.7338C23.3133 18.0045 23.001 18.2186 22.6551 18.3629C22.3092 18.5071 21.9372 18.5783 21.5625 18.5719C21.1918 18.5777 20.8238 18.5085 20.4807 18.3683C20.1375 18.2281 19.8262 18.0199 19.5656 17.7563C19.1241 17.371 18.8303 16.8442 18.7345 16.2661C18.6387 15.688 18.747 15.0946 19.0406 14.5875L17.1656 12.6563C17.0709 12.6991 16.9739 12.7367 16.875 12.7688V18.75C17.4193 18.9439 17.8906 19.3007 18.225 19.7719C18.5663 20.2403 18.7501 20.8049 18.75 21.3844C18.7574 21.7556 18.6881 22.1244 18.5464 22.4677C18.4048 22.811 18.1939 23.1213 17.9269 23.3794C17.4163 23.8893 16.7283 24.1819 16.0069 24.196C15.4856 24.2122 14.9701 24.0823 14.5188 23.8209C14.0675 23.5595 13.6983 23.177 13.4531 22.7166C13.2078 22.2563 13.0963 21.7366 13.1311 21.2161C13.1659 20.6957 13.3457 20.1955 13.65 19.7719C13.9844 19.3007 14.4557 18.9439 15 18.75V12.7688C14.4545 12.5771 13.9826 12.2198 13.65 11.7469C13.3076 11.2791 13.1236 10.7141 13.125 10.1344C13.1242 9.70789 13.2238 9.28718 13.4156 8.90626L9.75937 5.25001L2.65406 12.3488C2.30562 12.6969 2.02919 13.1104 1.84056 13.5654C1.65193 14.0204 1.55479 14.5082 1.55471 15.0008C1.55462 15.4933 1.65158 15.9811 1.84005 16.4362C2.02852 16.8913 2.30481 17.3048 2.65312 17.6531L12.3487 27.3488C13.052 28.0518 14.0056 28.4467 15 28.4467C15.9944 28.4467 16.948 28.0518 17.6512 27.3488L27.3488 17.6513C28.0518 16.948 28.4467 15.9944 28.4467 15C28.4467 14.0056 28.0518 13.052 27.3488 12.3488L17.6512 2.65126C16.948 1.94825 15.9944 1.55331 15 1.55331C14.0056 1.55331 13.052 1.94825 12.3487 2.65126Z" fill="#E64A19"/>
</svg>
