<svg width="30" height="30" viewBox="0 0 30 30" fill="none" xmlns="http://www.w3.org/2000/svg">
<path d="M11.1602 22.9969C11.1602 22.9969 10.043 23.647 11.9564 23.8664C14.2749 24.1313 15.4596 24.0933 18.0138 23.6105C18.0138 23.6105 18.6867 24.0312 19.6247 24.3959C13.8968 26.8498 6.66188 24.2536 11.1602 22.9969ZM10.4599 19.7941C10.4599 19.7941 9.20649 20.722 11.1216 20.9203C13.5982 21.176 15.5536 21.1969 18.9389 20.5453C18.9389 20.5453 19.406 21.0199 20.1417 21.2791C13.2178 23.3041 5.50595 21.4385 10.4599 19.7941Z" fill="#0074BD"/>
<path d="M16.3598 14.3604C17.772 15.9858 15.9895 17.4471 15.9895 17.4471C15.9895 17.4471 19.5729 15.5977 17.9276 13.2806C16.3903 11.1209 15.2119 10.0481 21.592 6.34781C21.592 6.34804 11.577 8.84859 16.3598 14.3604Z" fill="#EA2D2E"/>
<path d="M23.9351 25.3662C23.9351 25.3662 24.7622 26.0482 23.0238 26.5753C19.7187 27.5766 9.2646 27.8784 6.36116 26.6154C5.31796 26.1612 7.27499 25.5314 7.89069 25.3985C8.53265 25.2595 8.89921 25.2848 8.89921 25.2848C7.73835 24.4676 1.39616 26.8903 5.67819 27.5852C17.355 29.478 26.9634 26.7328 23.9351 25.3662ZM11.6981 16.4752C11.6981 16.4752 6.38108 17.7382 9.81538 18.1973C11.2657 18.3914 14.1555 18.3469 16.8492 18.1209C19.05 17.936 21.2585 17.5411 21.2585 17.5411C21.2585 17.5411 20.4832 17.8737 19.9216 18.2566C14.5212 19.6772 4.091 19.0155 7.09405 17.5634C9.6328 16.3355 11.6981 16.4752 11.6981 16.4752ZM21.2365 21.8065C26.7258 18.9548 24.1875 16.2143 22.4159 16.5834C21.9827 16.6737 21.7884 16.7522 21.7884 16.7522C21.7884 16.7522 21.9497 16.4993 22.2572 16.3905C25.7618 15.1589 28.4566 20.0241 21.1268 21.9511C21.1268 21.9506 21.2109 21.8744 21.2365 21.8065Z" fill="#0074BD"/>
<path d="M17.9276 0.371948C17.9276 0.371948 20.9669 3.4132 15.0441 8.08828C10.2942 11.8397 13.961 13.9781 15.0424 16.4224C12.2695 13.9209 10.2356 11.7185 11.5999 9.6689C13.6034 6.66093 19.1536 5.20195 17.9276 0.371948Z" fill="#EA2D2E"/>
<path d="M12.2377 29.5362C17.5055 29.873 25.597 29.3487 25.7885 26.8559C25.7885 26.8559 25.4203 27.8009 21.4345 28.5506C16.9378 29.3972 11.3906 29.2985 8.10165 28.7555C8.10165 28.7557 8.77548 29.3135 12.2377 29.5362Z" fill="#0074BD"/>
</svg>
