<svg width="30" height="30" viewBox="0 0 30 30" fill="none" xmlns="http://www.w3.org/2000/svg">
<path d="M25.0383 9.64922L18.4758 3.08672C18.3887 2.99969 18.2852 2.93067 18.1714 2.88362C18.0576 2.83657 17.9357 2.8124 17.8125 2.8125H6.5625C6.06522 2.8125 5.58831 3.01004 5.23668 3.36167C4.88505 3.71331 4.6875 4.19022 4.6875 4.6875V13.5937C4.6875 13.7181 4.73689 13.8373 4.8248 13.9252C4.91271 14.0131 5.03193 14.0625 5.15625 14.0625H24.8438C24.9681 14.0625 25.0873 14.0131 25.1752 13.9252C25.2631 13.8373 25.3125 13.7181 25.3125 13.5937V10.3125C25.3126 10.1893 25.2884 10.0674 25.2414 9.95358C25.1943 9.83977 25.1253 9.73635 25.0383 9.64922ZM17.8125 10.3125V5.15625L22.9688 10.3125H17.8125ZM17.3215 23.0051C17.2849 23.3636 17.1694 23.7097 16.9832 24.0183C16.797 24.3269 16.5447 24.5904 16.2445 24.7898C15.6363 25.1953 14.8828 25.3125 14.1949 25.3125C13.594 25.31 12.9959 25.2312 12.4148 25.0781C12.1754 25.0111 11.9723 24.8518 11.8503 24.6351C11.7284 24.4184 11.6975 24.1621 11.7645 23.9227C11.8314 23.6832 11.9908 23.4801 12.2075 23.3582C12.4242 23.2362 12.6805 23.2053 12.9199 23.2723C13.4332 23.4141 14.6777 23.5898 15.2109 23.2312C15.3141 23.1609 15.4254 23.0531 15.4617 22.7707C15.5016 22.4578 15.3773 22.2902 13.9641 21.8812C12.8684 21.5648 11.0344 21.034 11.2688 19.1719C11.3056 18.8206 11.4192 18.4818 11.6015 18.1792C11.7837 17.8767 12.0302 17.6179 12.3234 17.4211C13.7121 16.4836 15.9234 17.0332 16.1719 17.0977C16.4124 17.1609 16.618 17.3171 16.7434 17.5319C16.8688 17.7468 16.9037 18.0026 16.8404 18.2432C16.7772 18.4837 16.621 18.6893 16.4061 18.8147C16.1913 18.9401 15.9355 18.975 15.6949 18.9117C15.1688 18.7746 13.9102 18.6117 13.3711 18.9773C13.3006 19.0252 13.2426 19.0892 13.2019 19.164C13.1611 19.2388 13.1388 19.3223 13.1367 19.4074C13.1238 19.5129 13.1215 19.534 13.268 19.6301C13.5387 19.8047 14.0238 19.9441 14.4926 20.0801C15.6434 20.4105 17.5781 20.9766 17.3215 23.0051ZM9.375 17.8125V22.1953C9.375 23.8629 8.06485 25.2738 6.39727 25.3113C5.99509 25.3205 5.59507 25.2499 5.2203 25.1037C4.84554 24.9575 4.50343 24.7385 4.21374 24.4594C3.92405 24.1802 3.6925 23.8465 3.53245 23.4774C3.3724 23.1083 3.28703 22.7112 3.28125 22.309C3.27401 22.0676 3.35826 21.8324 3.51712 21.6505C3.67599 21.4686 3.89772 21.3534 4.13789 21.3281C4.26983 21.3166 4.40271 21.3332 4.52777 21.3768C4.65283 21.4204 4.76724 21.49 4.86345 21.581C4.95967 21.672 5.0355 21.7824 5.08597 21.9048C5.13644 22.0273 5.16039 22.159 5.15625 22.2914C5.14457 22.4752 5.1818 22.6587 5.26414 22.8234C5.34648 22.9881 5.471 23.128 5.625 23.2289C6.54493 23.7937 7.5 23.1398 7.5 22.268V17.8441C7.49615 17.6018 7.58435 17.367 7.74681 17.1871C7.90928 17.0073 8.13391 16.8957 8.37539 16.875C8.50363 16.8665 8.63225 16.8844 8.75326 16.9277C8.87427 16.971 8.98509 17.0387 9.07883 17.1266C9.17258 17.2145 9.24724 17.3208 9.29819 17.4388C9.34914 17.5568 9.37529 17.684 9.375 17.8125ZM25.1379 18.3574L23.1832 21.0937L25.1379 23.8301C25.2694 24.0325 25.3178 24.2778 25.273 24.515C25.2282 24.7522 25.0936 24.963 24.8973 25.1034C24.701 25.2439 24.458 25.3032 24.2191 25.269C23.9801 25.2348 23.7635 25.1098 23.6145 24.9199L22.0313 22.7062L20.4504 24.9199C20.3814 25.0261 20.2916 25.1172 20.1864 25.1877C20.0812 25.2582 19.9628 25.3067 19.8384 25.3302C19.714 25.3537 19.586 25.3518 19.4624 25.3245C19.3387 25.2972 19.2219 25.2452 19.1189 25.1715C19.0159 25.0978 18.9289 25.004 18.8631 24.8958C18.7974 24.7876 18.7542 24.6672 18.7363 24.5418C18.7183 24.4164 18.726 24.2887 18.7588 24.1664C18.7915 24.0441 18.8488 23.9297 18.927 23.8301L20.8793 21.0937L18.9246 18.3574C18.7931 18.155 18.7447 17.9097 18.7895 17.6725C18.8343 17.4353 18.9689 17.2245 19.1652 17.0841C19.3615 16.9436 19.6045 16.8843 19.8434 16.9185C20.0824 16.9527 20.299 17.0777 20.4481 17.2676L22.0313 19.4812L23.6121 17.2676C23.7612 17.0777 23.9778 16.9527 24.2167 16.9185C24.4557 16.8843 24.6986 16.9436 24.895 17.0841C25.0913 17.2245 25.2259 17.4353 25.2707 17.6725C25.3155 17.9097 25.2671 18.155 25.1356 18.3574H25.1379Z" fill="#1E1E1E"/>
</svg>
