<svg width="30" height="30" viewBox="0 0 30 30" fill="none" xmlns="http://www.w3.org/2000/svg">
<path d="M11.3716 8.498L11.4552 10.3984L10.1182 12.8771L8.02922 16.9257L7.61142 20.3133L9.11549 25.1056L12.5414 27.006H17.7221L22.5686 23.3705L24.7412 17.6694L19.7276 11.6377L18.3071 8.25012L11.3716 8.498Z" fill="#ECEFF1"/>
<path d="M23.2371 13.2076C21.9001 11.3072 20.8139 10.1505 20.2289 7.75435C19.644 5.35823 20.3961 6.01923 19.8947 3.95361C19.644 2.87949 19.2262 2.13586 18.8084 1.55749C18.3071 0.979115 17.7221 0.648615 17.3879 0.56599C16.6359 0.152866 14.8811 -0.508133 12.7086 0.648615C10.4525 1.80536 10.7031 4.28411 11.1209 9.32422C11.1209 9.65472 11.0374 10.0678 10.8702 10.3983C10.536 11.142 9.95109 11.803 9.44973 12.3813C8.86482 13.2076 8.2799 14.0338 7.8621 14.9427C6.85938 16.8431 5.94023 19.2392 6.1909 20.1481C6.6087 20.0655 11.873 27.9974 11.873 28.1627C12.2072 28.0801 13.6277 28.0801 14.8811 28.0801C16.6359 27.9974 17.6386 27.9148 19.0591 28.2453C19.0591 27.9974 18.9755 27.7496 18.9755 27.5017C18.9755 27.0059 19.0591 26.5928 19.1427 26.0144C19.2262 25.6013 19.3098 25.1882 19.3933 24.6924C18.5577 25.4361 17.0537 26.2623 15.6332 26.5102C14.3798 26.7581 12.2908 26.3449 11.288 25.1056C11.3716 25.1056 11.5387 25.1056 11.6223 25.0229C11.873 24.9403 12.1236 24.8577 12.2072 24.6924C12.4579 24.2793 12.2908 23.8662 12.1236 23.6183C11.9565 23.3704 10.7031 22.4616 10.1182 21.9658C9.53329 21.4701 9.19906 21.2222 8.86482 20.8917L8.19634 20.2307C8.02922 20.0655 7.94566 19.9002 7.8621 19.8176C7.69498 19.4045 7.61142 18.9087 7.69498 18.2477C7.77854 17.3388 8.11278 16.5952 8.53058 15.769C8.6977 15.4385 9.11549 14.7775 9.11549 14.7775C9.11549 14.7775 7.69498 18.2477 8.44702 19.3218C8.44702 19.3218 8.53058 18.2477 8.86482 17.1736C9.1155 16.43 9.53329 15.3558 10.0347 14.7775C10.536 14.1991 11.7894 12.0508 11.873 10.7288C11.873 10.1505 11.9565 9.5721 11.9565 9.15897C11.6223 8.82847 17.4715 8.00223 17.8057 8.9111C17.8893 9.2416 19.0591 12.2161 19.7276 13.786C20.0618 14.5296 20.4796 15.1906 20.7303 16.0168C20.981 16.9257 21.1481 18.1651 21.1481 19.4045C21.1481 19.6523 21.1481 20.0655 21.0645 20.4786C21.2317 20.4786 24.4905 17.0083 20.6467 14.1165C20.6467 14.1165 22.9864 15.1906 23.07 17.3388C23.1535 19.074 22.4015 20.4786 22.2344 20.7265C22.3179 20.7265 23.9891 21.4701 24.0727 21.4701C24.4069 21.4701 25.0754 21.2222 25.0754 21.2222C25.159 20.9743 25.4096 20.3133 25.4096 20.0655C25.9946 18.1651 24.574 15.108 23.2371 13.2076Z" fill="#263238"/>
<path d="M12.625 7.75439C13.2249 7.75439 13.7113 7.01455 13.7113 6.1019C13.7113 5.18925 13.2249 4.4494 12.625 4.4494C12.0251 4.4494 11.5387 5.18925 11.5387 6.1019C11.5387 7.01455 12.0251 7.75439 12.625 7.75439Z" fill="#ECEFF1"/>
<path d="M16.3852 7.91964C17.1697 7.91964 17.8057 7.06881 17.8057 6.01927C17.8057 4.96972 17.1697 4.1189 16.3852 4.1189C15.6006 4.1189 14.9647 4.96972 14.9647 6.01927C14.9647 7.06881 15.6006 7.91964 16.3852 7.91964Z" fill="#ECEFF1"/>
<path d="M13.2324 6.21481C13.163 5.67154 12.8469 5.26361 12.5264 5.30366C12.2059 5.34372 12.0024 5.8166 12.0718 6.35986C12.1413 6.90313 12.4574 7.31106 12.7779 7.27101C13.0984 7.23095 13.3019 6.75807 13.2324 6.21481Z" fill="#212121"/>
<path d="M16.3016 7.42388C16.7631 7.42388 17.1372 6.94298 17.1372 6.34976C17.1372 5.75654 16.7631 5.27563 16.3016 5.27563C15.8401 5.27563 15.466 5.75654 15.466 6.34976C15.466 6.94298 15.8401 7.42388 16.3016 7.42388Z" fill="#212121"/>
<path d="M27.4151 24.5272C27.0808 24.362 26.4959 24.1141 25.9946 23.3705C25.7439 22.9573 25.8274 21.8006 25.4097 21.3048C25.159 20.9743 24.8247 21.1396 24.7412 21.1396C23.9891 21.3048 22.2344 22.4616 21.0645 21.1396C20.8974 20.9743 20.6467 20.7265 20.2289 20.7265C19.8111 20.7265 19.644 20.8917 19.4769 21.2222C19.3098 21.5527 19.3098 21.8006 19.3098 22.6268C19.3098 23.2878 19.3098 24.0315 19.2262 24.6098C19.0591 26.0145 18.8084 26.8407 18.8084 27.6669C18.8084 28.5758 19.0591 29.1542 19.3934 29.4021C19.644 29.6499 20.0618 29.8152 20.981 29.8152C21.9001 29.8152 22.4851 29.4847 23.07 28.9063C23.4878 28.4932 23.822 28.3279 24.9919 27.5017C25.911 26.9233 27.3315 26.1797 27.5822 25.9318C27.7493 25.7666 28 25.684 28 25.1882C28 24.7751 27.6658 24.6098 27.4151 24.5272ZM10.6196 24.7751C9.78398 23.4531 9.70042 23.2052 9.1155 22.379C8.61414 21.5527 7.52787 19.9828 6.85939 19.9828C6.35803 19.9828 6.10735 20.2307 5.77311 20.5612C5.43887 20.8917 5.10464 21.6353 4.51972 22.0485C4.01836 22.4616 2.59784 22.379 2.26361 22.8747C1.92937 23.3705 2.59785 24.1141 2.59785 25.3534C2.59785 25.8492 2.18005 26.1797 2.09649 26.5102C2.01293 26.9233 1.92937 27.1712 2.09649 27.5017C2.43073 27.9974 2.84852 28.1627 5.68955 28.7411C7.19363 29.0716 8.61414 29.8978 9.5333 29.9804C10.4525 30.0631 12.0401 29.9804 12.0401 27.7496C12.1237 26.4276 11.3716 26.0971 10.6196 24.7751ZM12.2072 9.81998C11.7059 9.48948 11.2881 9.15898 11.2881 8.66323C11.2881 8.16748 11.6223 8.00223 12.1237 7.58911C12.2072 7.50649 13.1264 6.68024 14.0455 6.68024C14.9647 6.68024 16.051 7.25861 16.4688 7.42386C17.2208 7.58911 17.9728 7.75436 17.8893 8.33273C17.8057 9.15898 17.7222 9.32423 16.8866 9.73736C16.3016 9.90261 15.2154 10.8115 14.4633 10.8115C14.1291 10.8115 13.6277 10.8115 13.2935 10.7289C13.0428 10.6462 12.625 10.2331 12.2072 9.81998Z" fill="#FFC107"/>
<path d="M12.0401 9.15898C12.2072 9.32423 12.4579 9.48948 12.7086 9.5721C12.8757 9.65473 13.1264 9.73735 13.1264 9.73735H13.8784C14.2962 9.73735 14.8811 9.5721 15.466 9.2416C16.0509 8.99373 16.1345 8.82848 16.5523 8.66323C16.9701 8.41535 17.3879 8.16748 17.2208 8.08485C17.0537 8.00223 16.8865 8.08485 16.3016 8.41535C15.8003 8.74585 15.3825 8.9111 14.8811 9.15898C14.6304 9.2416 14.2962 9.40685 14.0455 9.40685H13.2935C13.0428 9.40685 12.8757 9.32423 12.625 9.2416C12.4579 9.15898 12.3743 9.07635 12.2908 9.07635C12.1236 8.99373 11.7894 8.66323 11.6223 8.5806C11.6223 8.5806 11.4552 8.5806 11.5387 8.66323L12.0401 9.15898ZM14.5469 7.34123C14.6304 7.50648 14.7975 7.50648 14.8811 7.58911C14.9647 7.67173 15.0482 7.67173 15.0482 7.67173C15.1318 7.58911 15.0482 7.42386 14.9647 7.42386C14.9647 7.25861 14.5469 7.25861 14.5469 7.34123ZM13.2099 7.50648C13.2099 7.58911 13.377 7.67173 13.377 7.58911C13.4606 7.50648 13.5441 7.42386 13.6277 7.42386C13.7948 7.34123 13.7113 7.25861 13.4606 7.25861C13.2935 7.34123 13.2935 7.42386 13.2099 7.50648Z" fill="#634703"/>
<path d="M21.3152 22.1311V22.379C21.4823 22.7095 21.9001 22.7921 22.2344 22.7921C22.7357 22.7921 23.2371 22.4616 23.4877 22.1311C23.4877 22.0485 23.5713 21.9658 23.6549 21.8832C23.822 21.6353 23.9055 21.4701 23.9891 21.3875C23.9891 21.3875 23.9055 21.3048 23.9055 21.2222C23.822 21.057 23.5713 20.8917 23.2371 20.8091C22.9864 20.7265 22.5686 20.6438 22.4015 20.6438C21.6494 20.5612 21.2316 20.8091 20.981 21.057C20.981 21.057 21.0645 21.057 21.0645 21.1396C21.2316 21.3048 21.3152 21.4701 21.3152 21.718C21.3988 21.8832 21.3152 21.9658 21.3152 22.1311Z" fill="#455A64"/>
</svg>
