<svg width="30" height="30" viewBox="0 0 30 30" fill="none" xmlns="http://www.w3.org/2000/svg">
<g clip-path="url(#clip0_726_218)">
<path d="M22.9688 0H7.03125C3.148 0 0 3.148 0 7.03125V22.9688C0 26.852 3.148 30 7.03125 30H22.9688C26.852 30 30 26.852 30 22.9688V7.03125C30 3.148 26.852 0 22.9688 0Z" fill="#023430"/>
<path d="M20.0593 12.6083C18.8245 7.16133 16.2511 5.71125 15.5946 4.68621C15.3237 4.23472 15.0839 3.76531 14.8768 3.28125C14.8421 3.76523 14.7784 4.06992 14.3671 4.43695C13.5412 5.17324 10.0338 8.03145 9.73863 14.2205C9.46359 19.991 13.9808 23.5492 14.5775 23.917C15.0364 24.1429 15.5953 23.9218 15.868 23.7145C18.0455 22.2202 21.0206 18.236 20.0617 12.6083" fill="#10AA50"/>
<path d="M15.0639 20.8443C14.9502 22.2725 14.8688 23.1025 14.58 23.9187C14.58 23.9187 14.7695 25.2784 14.9026 26.7188H15.3736C15.4861 25.7045 15.6576 24.6976 15.8873 23.7033C15.2776 23.4033 15.0873 22.0976 15.0639 20.8443Z" fill="#B8C4C2"/>
<path d="M15.8865 23.7041C15.2704 23.4195 15.0921 22.0862 15.0647 20.8443C15.217 18.7955 15.2614 16.7401 15.1978 14.6867C15.1655 13.6092 15.2131 4.7072 14.9324 3.40384C15.1243 3.84533 15.3455 4.27348 15.5946 4.6854C16.2511 5.71126 18.8254 7.16134 20.0593 12.6083C21.0206 18.2264 18.0616 22.2 15.8865 23.7041Z" fill="#12924F"/>
</g>
<defs>
<clipPath id="clip0_726_218">
<rect width="30" height="30" fill="white"/>
</clipPath>
</defs>
</svg>
