<svg width="30" height="30" viewBox="0 0 30 30" fill="none" xmlns="http://www.w3.org/2000/svg">
<g clip-path="url(#clip0_726_206)">
<path d="M22.9688 0H7.03125C3.148 0 0 3.148 0 7.03125V22.9688C0 26.852 3.148 30 7.03125 30H22.9688C26.852 30 30 26.852 30 22.9688V7.03125C30 3.148 26.852 0 22.9688 0Z" fill="#242938"/>
<mask id="mask0_726_206" style="mask-type:luminance" maskUnits="userSpaceOnUse" x="4" y="4" width="22" height="22">
<path d="M4.45312 4.45312H25.5469V25.5469H4.45312V4.45312Z" fill="white"/>
</mask>
<g mask="url(#mask0_726_206)">
<path fill-rule="evenodd" clip-rule="evenodd" d="M23.8829 20.884C22.7357 20.8521 21.8456 20.9696 21.0997 21.2835C20.8849 21.3697 20.5403 21.3697 20.5119 21.6401C20.6268 21.7535 20.6406 21.9391 20.7413 22.0964C20.9132 22.3818 21.2148 22.7661 21.4872 22.9656L22.4052 23.6216C22.9647 23.9634 23.5958 24.1632 24.1409 24.5054C24.4566 24.7051 24.772 24.9618 25.0877 25.1759C25.2485 25.2899 25.3459 25.4756 25.5469 25.5465V25.5034C25.4466 25.3755 25.4176 25.1903 25.3177 25.0471L24.8868 24.6339C24.4711 24.0779 23.9543 23.5928 23.3948 23.194C22.9357 22.8803 21.9319 22.4527 21.7453 21.9254L21.7171 21.8934C22.0322 21.8616 22.4052 21.7506 22.7067 21.665C23.1948 21.5372 23.6392 21.5653 24.1409 21.4371L24.8299 21.2374V21.1096C24.5716 20.853 24.3852 20.5107 24.1129 20.2686C23.3814 19.6413 22.5775 19.0281 21.7453 18.5149C21.3007 18.2299 20.7267 18.0442 20.2534 17.8023C20.0808 17.7166 19.7943 17.6739 19.694 17.5314C19.4351 17.2182 19.292 16.8043 19.1056 16.4334L17.9293 13.9528C17.6712 13.3968 17.513 12.8407 17.1979 12.3275C15.72 9.90375 14.113 8.43551 11.6455 6.99527C11.115 6.69586 10.4838 6.56707 9.8127 6.41051L8.73692 6.35309C8.507 6.25336 8.27766 5.98231 8.0768 5.85387C7.25907 5.34059 5.15016 4.22871 4.54712 5.69414C4.15981 6.62074 5.12122 7.53305 5.44758 8.00379C5.69192 8.33168 6.00704 8.70223 6.17966 9.07301C6.2761 9.31523 6.30833 9.57211 6.40899 9.82875C6.63821 10.4559 6.8536 11.1548 7.15489 11.7396C7.31567 12.039 7.48454 12.3531 7.6854 12.6238C7.80024 12.7835 8.00122 12.852 8.04399 13.1085C7.84301 13.3938 7.82919 13.8211 7.71434 14.178C7.19766 15.7891 7.39864 17.7851 8.13012 18.9713C8.36005 19.3275 8.9018 20.112 9.63692 19.8123C10.2825 19.5557 10.1385 18.7431 10.3249 18.0301C10.3683 17.8593 10.3395 17.7451 10.4252 17.6307V17.6627L11.0136 18.846C11.4584 19.5445 12.2333 20.2718 12.8786 20.7568C13.2226 21.0135 13.4953 21.4557 13.9255 21.6123V21.5692H13.8973C13.811 21.4413 13.6818 21.3838 13.567 21.2841C13.3089 21.0275 13.022 20.7137 12.821 20.4287C12.2188 19.6304 11.6883 18.7463 11.2146 17.8339C10.9848 17.392 10.7838 16.9072 10.598 16.4653C10.5111 16.2941 10.5111 16.0371 10.3681 15.9521C10.1525 16.2653 9.83755 16.5369 9.67899 16.9216C9.4063 17.5345 9.37805 18.2903 9.27774 19.0745C9.21985 19.0888 9.24551 19.0745 9.21985 19.1064C8.7613 18.9927 8.60309 18.5216 8.43118 18.1228C8.00087 17.1105 7.9288 15.4853 8.3018 14.3161C8.40212 14.0167 8.83301 13.0757 8.66098 12.7905C8.57426 12.5196 8.28798 12.363 8.12977 12.1489C7.94333 11.878 7.74305 11.5361 7.6138 11.2366C7.26973 10.4378 7.0977 9.55418 6.72434 8.75578C6.55173 8.385 6.25079 7.99992 6.00669 7.65809C5.73399 7.27301 5.43341 7.00195 5.21801 6.54598C5.1463 6.38625 5.04598 6.13254 5.16071 5.96121C5.18907 5.84719 5.24684 5.80148 5.3611 5.77594C5.54743 5.61609 6.07876 5.81871 6.2652 5.90367C6.79571 6.11777 7.24044 6.31723 7.68516 6.61629C7.88614 6.75879 8.10153 7.02984 8.35969 7.10145H8.66134C9.12048 7.20106 9.63657 7.13332 10.0664 7.26117C10.827 7.50399 11.5153 7.86 12.1327 8.24531C14.0118 9.42867 15.5616 11.111 16.6084 13.1216C16.7804 13.4495 16.8522 13.7489 17.0104 14.0911C17.312 14.79 17.685 15.5026 17.9856 16.1873C18.2872 16.8574 18.574 17.5423 19.0043 18.0982C19.2197 18.3976 20.0801 18.5542 20.4673 18.7111C20.7544 18.8389 21.1988 18.954 21.4576 19.1106C21.945 19.41 22.4329 19.7522 22.8916 20.0801C23.1209 20.2507 23.8386 20.6073 23.8813 20.8917L23.8829 20.884ZM9.2529 8.49457C9.05475 8.49287 8.85721 8.51682 8.6652 8.56582V8.59781H8.69344C8.80829 8.82598 9.00926 8.98289 9.15258 9.18258L9.48282 9.86695L9.51118 9.83508C9.71204 9.69258 9.8127 9.46441 9.8127 9.12258C9.72657 9.02285 9.71239 8.92277 9.64067 8.82305C9.55454 8.68055 9.36809 8.60895 9.2529 8.49527V8.49457Z" fill="white"/>
</g>
</g>
<defs>
<clipPath id="clip0_726_206">
<rect width="30" height="30" fill="white"/>
</clipPath>
</defs>
</svg>
