<svg width="30" height="30" viewBox="0 0 30 30" fill="none" xmlns="http://www.w3.org/2000/svg">
<g clip-path="url(#clip0_726_188)">
<path d="M22.9688 0H7.03125C3.148 0 0 3.148 0 7.03125V22.9688C0 26.852 3.148 30 7.03125 30H22.9688C26.852 30 30 26.852 30 22.9688V7.03125C30 3.148 26.852 0 22.9688 0Z" fill="#242938"/>
<path d="M14.0482 3.64642C14.6246 3.31654 15.3754 3.31501 15.9512 3.64642C18.8483 5.28353 21.7464 6.91795 24.643 8.55599C25.1879 8.86291 25.5523 9.46923 25.5468 10.097V19.946C25.5509 20.5998 25.1504 21.2207 24.5756 21.5206C21.688 23.1486 18.8018 24.7786 15.9146 26.4067C15.3265 26.743 14.5607 26.7171 13.9907 26.3531C13.125 25.8513 12.2578 25.3519 11.392 24.8506C11.2151 24.7451 11.0156 24.6612 10.8907 24.4896C11.0012 24.3408 11.1987 24.3223 11.3591 24.2572C11.7204 24.1423 12.0524 23.9578 12.3843 23.7789C12.4683 23.7215 12.5707 23.7435 12.6512 23.7948C13.3915 24.2193 14.1253 24.6561 14.868 25.0765C15.0265 25.168 15.1869 25.0465 15.3224 24.971C18.156 23.3694 20.9931 21.774 23.8263 20.172C23.9313 20.1215 23.9893 20.01 23.9808 19.8951C23.9828 16.646 23.9813 13.3965 23.9818 10.1474C23.9938 10.0171 23.9183 9.89709 23.8003 9.84365C20.9228 8.22306 18.0465 6.60013 15.1695 4.97919C15.1196 4.94495 15.0606 4.92657 15.0001 4.92646C14.9396 4.92636 14.8805 4.94453 14.8305 4.97861C11.9534 6.60013 9.07781 8.2247 6.20063 9.84505C6.08309 9.89861 6.00422 10.0166 6.01817 10.1474C6.01875 13.3965 6.01817 16.646 6.01817 19.8955C6.01314 19.9517 6.02546 20.008 6.05345 20.0569C6.08145 20.1058 6.12378 20.1449 6.17473 20.169C6.94242 20.6044 7.71117 21.0367 8.47945 21.4706C8.91235 21.7035 9.44367 21.842 9.92063 21.6635C10.3413 21.5126 10.6363 21.0831 10.6283 20.6364C10.6323 17.4063 10.6263 14.1758 10.6313 10.9461C10.6207 10.8028 10.7568 10.6844 10.8962 10.6979C11.2651 10.6954 11.6345 10.6929 12.0034 10.6989C12.1574 10.6954 12.2633 10.8498 12.2443 10.9942C12.2428 14.2447 12.2483 17.4953 12.2419 20.7457C12.2428 21.6121 11.8869 22.5547 11.0856 22.9786C10.0985 23.4899 8.87836 23.3815 7.90313 22.8912C7.05891 22.4698 6.25313 21.9724 5.42391 21.521C4.84758 21.2228 4.44914 20.5995 4.45324 19.9461V10.097C4.44715 9.45623 4.82613 8.83888 5.38781 8.53642C8.27496 6.90716 11.1616 5.2765 14.0482 3.64642Z" fill="#81CD39"/>
<path d="M16.567 10.469C17.8262 10.3879 19.1742 10.4209 20.3073 11.0413C21.1847 11.5166 21.671 12.5143 21.6865 13.489C21.662 13.6204 21.5245 13.6929 21.399 13.6839C21.0338 13.6834 20.6682 13.6889 20.303 13.6814C20.1479 13.6874 20.0579 13.5445 20.0385 13.4075C19.9335 12.9411 19.6791 12.4793 19.2402 12.2543C18.5664 11.917 17.7852 11.934 17.0504 11.9411C16.5141 11.9694 15.9373 12.0159 15.4828 12.3313C15.1339 12.5702 15.028 13.0526 15.1525 13.4411C15.2699 13.72 15.5918 13.81 15.8554 13.8929C17.3728 14.2899 18.9809 14.2502 20.4694 14.7725C21.0857 14.9855 21.6885 15.3995 21.8994 16.0447C22.1754 16.9096 22.0545 17.9432 21.4391 18.6374C20.9401 19.2087 20.2134 19.5197 19.4886 19.6886C18.5244 19.9036 17.5238 19.9091 16.5445 19.8136C15.6238 19.7086 14.6656 19.4667 13.9548 18.8394C13.347 18.3116 13.0501 17.4892 13.0795 16.6956C13.0866 16.5615 13.22 16.468 13.3485 16.479C13.7163 16.4761 14.0843 16.475 14.4522 16.4796C14.5992 16.4691 14.7081 16.5961 14.7157 16.7346C14.7834 17.1789 14.9504 17.6453 15.338 17.9086C16.0856 18.3911 17.0239 18.358 17.8801 18.3715C18.5895 18.3401 19.3857 18.3306 19.9645 17.8617C20.2699 17.5943 20.3604 17.1469 20.2779 16.762C20.1885 16.4371 19.8485 16.2857 19.5566 16.1867C18.0586 15.7129 16.4325 15.8848 14.949 15.3489C14.3467 15.1361 13.7643 14.7336 13.5329 14.1149C13.2101 13.2391 13.358 12.1559 14.0378 11.4852C14.7006 10.8178 15.6573 10.5608 16.567 10.469Z" fill="#81CD39"/>
</g>
<defs>
<clipPath id="clip0_726_188">
<rect width="30" height="30" fill="white"/>
</clipPath>
</defs>
</svg>
