<svg width="30" height="30" viewBox="0 0 30 30" fill="none" xmlns="http://www.w3.org/2000/svg">
<g clip-path="url(#clip0_729_131)">
<path d="M15.6933 0.19336C15.478 0.0700135 15.2342 0.00511932 14.986 0.00511932C14.7379 0.00511932 14.4941 0.0700135 14.2788 0.19336L2.60226 6.975C2.15812 7.22625 1.90851 7.70039 1.90851 8.20313V21.7941C1.90851 22.2963 2.18577 22.7707 2.60179 23.0222L14.2784 29.8036C14.4937 29.927 14.7375 29.9919 14.9857 29.9919C15.2339 29.9919 15.4777 29.927 15.693 29.8036L27.3696 23.022C27.8135 22.7707 28.0629 22.2963 28.0629 21.7938V8.20313C28.0629 7.70063 27.7856 7.22649 27.3696 6.975L15.6933 0.19336Z" fill="url(#paint0_linear_729_131)"/>
<path d="M27.3977 6.975L15.6659 0.193359C15.5508 0.134566 15.4299 0.0878332 15.3052 0.0539055L2.1586 22.687C2.26751 22.8206 2.39894 22.934 2.54696 23.0222L14.2791 29.8036C14.6119 29.9988 15 30.0548 15.3607 29.943L27.7029 7.22625C27.6219 7.12012 27.5174 7.03414 27.3977 6.975Z" fill="url(#paint1_linear_729_131)"/>
<path d="M27.398 23.0215C27.7308 22.8262 27.9804 22.4913 28.0912 22.1285L15.2498 0.0253121C14.917 -0.0304691 14.5563 -0.00257851 14.2514 0.19289L2.60249 6.94664L15.1664 29.9986C15.3328 29.9705 15.5273 29.9147 15.6937 29.831L27.398 23.0215Z" fill="url(#paint2_linear_729_131)"/>
</g>
<defs>
<linearGradient id="paint0_linear_729_131" x1="19.7411" y1="5.24357" x2="9.0774" y2="26.8624" gradientUnits="userSpaceOnUse">
<stop stop-color="#3F873F"/>
<stop offset="0.33" stop-color="#3F8B3D"/>
<stop offset="0.637" stop-color="#3E9638"/>
<stop offset="0.934" stop-color="#3DA92E"/>
<stop offset="1" stop-color="#3DAE2B"/>
</linearGradient>
<linearGradient id="paint1_linear_729_131" x1="13.2119" y1="16.5857" x2="42.9647" y2="-5.26214" gradientUnits="userSpaceOnUse">
<stop offset="0.138" stop-color="#3F873F"/>
<stop offset="0.402" stop-color="#52A044"/>
<stop offset="0.713" stop-color="#64B749"/>
<stop offset="0.908" stop-color="#6ABF4B"/>
</linearGradient>
<linearGradient id="paint2_linear_729_131" x1="1.48117" y1="14.994" x2="28.5" y2="14.994" gradientUnits="userSpaceOnUse">
<stop offset="0.092" stop-color="#6ABF4B"/>
<stop offset="0.287" stop-color="#64B749"/>
<stop offset="0.598" stop-color="#52A044"/>
<stop offset="0.862" stop-color="#3F873F"/>
</linearGradient>
<clipPath id="clip0_729_131">
<rect width="30" height="30" fill="white"/>
</clipPath>
</defs>
</svg>
