<svg width="30" height="30" viewBox="0 0 30 30" fill="none" xmlns="http://www.w3.org/2000/svg">
<g clip-path="url(#clip0_726_203)">
<path d="M0 1.65516C0 0.755859 0.755859 0 1.65516 0H28.3458C29.2453 0 30.0012 0.755859 30.0012 1.65516V28.3458C30.0012 29.2453 29.2453 30.0012 28.3458 30.0012H1.65516C0.755859 30.0012 0 29.2453 0 28.3458V1.65516ZM5.55234 24.5109H15.0199L15.0316 10.7925H19.6005L19.5888 24.5224H24.1692L24.1809 6.22359L5.88211 6.20016L5.85867 24.5109H5.55234Z" fill="#CB3837"/>
<path d="M5.88399 15.3562V6.21375H9.6C11.6438 6.21375 15.758 6.22171 18.7425 6.23132L24.169 6.2489V24.4987H19.6043V10.7784H15.0134V24.4987H5.88399V15.3562Z" fill="white"/>
</g>
<defs>
<clipPath id="clip0_726_203">
<rect width="30" height="30" fill="white"/>
</clipPath>
</defs>
</svg>
