<svg width="30" height="30" viewBox="0 0 30 30" fill="none" xmlns="http://www.w3.org/2000/svg">
<g clip-path="url(#clip0_726_321)">
<path d="M12.8934 6.09516L7.88251 3.56648L2.37985 6.31172L7.52884 8.89617L12.8934 6.09516ZM15.1922 7.25555L20.4471 9.90937L14.9958 12.6457L9.83954 10.0575L15.1922 7.25555ZM22.2113 3.60375L27.6106 6.31125L22.7813 8.73562L17.516 6.07922L22.2113 3.60375ZM19.8874 2.4375L15.0265 0L10.2183 2.4L15.2274 4.92516L19.8874 2.4375ZM16.0875 23.3677V30L21.9755 27.0616L21.9701 20.4265L16.0875 23.3677ZM21.9673 18.1102L21.9607 11.5448L16.0873 14.4647V21.0328L21.9673 18.1102ZM29.0356 16.8806V23.5392L24.0129 26.0447L24.0089 19.4168L29.0356 16.8806ZM29.0356 14.5521V8.02734L24.0035 10.5288L24.0073 17.1073L29.0356 14.5521Z" fill="#4DABCF"/>
<path d="M14.0086 14.4647L10.0434 12.4697V21.0867C10.0434 21.0867 5.19187 10.7665 4.74374 9.83905C4.68609 9.71882 4.44773 9.58827 4.38703 9.55569C3.51257 9.09937 0.964447 7.8096 0.964447 7.8096V23.0386L4.48945 24.9284V16.9645C4.48945 16.9645 9.28898 26.1862 9.33843 26.288C9.38859 26.3885 9.86742 27.3591 10.3835 27.7008C11.0679 28.1552 14.0065 29.9219 14.0065 29.9219L14.0086 14.4647Z" fill="#4C75CF"/>
</g>
<defs>
<clipPath id="clip0_726_321">
<rect width="30" height="30" fill="white"/>
</clipPath>
</defs>
</svg>
