<svg width="30" height="30" viewBox="0 0 30 30" fill="none" xmlns="http://www.w3.org/2000/svg">
<path d="M21.9865 21.5888C22.1705 20.0576 22.1154 19.8328 23.2559 20.081L23.5453 20.1063C24.4223 20.1462 25.5696 19.9652 26.2437 19.6521C27.6947 18.9788 28.5548 17.8549 27.1245 18.15C23.861 18.8234 23.6367 17.7183 23.6367 17.7183C27.0827 12.6054 28.5232 6.11485 27.2796 4.52602C23.8882 0.192658 18.0178 2.2418 17.9196 2.29477L17.8882 2.30063C17.2434 2.1668 16.5218 2.08688 15.7111 2.07375C14.2343 2.04938 13.1138 2.46094 12.2637 3.10547C12.2637 3.10547 1.7911 -1.20914 2.27836 8.53149C2.38196 10.6036 5.24836 24.2107 8.66742 20.1007C9.91711 18.5979 11.1246 17.3271 11.1246 17.3271C11.7241 17.7253 12.4423 17.9288 13.1951 17.8556L13.2534 17.8059C13.2352 17.9925 13.2431 18.1751 13.2766 18.3912C12.3961 19.3753 12.6548 19.548 10.894 19.9104C9.11227 20.2774 10.159 20.9311 10.8422 21.102C11.6707 21.3091 13.5872 21.6026 14.8823 19.7899L14.8308 19.9966C15.1763 20.2732 15.153 21.9834 15.2018 23.2052C15.2508 24.4273 15.3326 25.5675 15.5817 26.2399C15.8309 26.9123 16.1248 28.6437 18.439 28.1477C20.373 27.7343 21.8517 27.1378 21.9865 21.5888Z" fill="black"/>
<path d="M17.6855 29.3569C16.662 29.3569 15.9954 28.961 15.5906 28.5788C14.9796 28.0022 14.7373 27.2595 14.5924 26.8158L14.5299 26.6306C14.2383 25.8436 14.1394 24.7104 14.0808 23.2512C14.0719 23.032 14.0658 22.8063 14.059 22.567C14.0541 22.392 14.048 22.1723 14.0391 21.9427C13.6703 22.1185 13.2789 22.2422 12.8761 22.3102C12.1545 22.4334 11.3787 22.3936 10.5699 22.1913C9.99915 22.0486 9.40618 21.7528 9.06821 21.296C8.08314 22.1588 7.14353 22.0418 6.63165 21.8709C5.7286 21.5698 4.92048 20.7234 4.16087 19.2841C3.6197 18.2588 3.09634 16.9228 2.60509 15.3131C1.74962 12.51 1.20611 9.55758 1.15782 8.58821C1.00595 5.55422 1.82275 3.38438 3.58501 2.13961C6.36493 0.176017 10.5769 1.33078 12.1125 1.85508C13.1442 1.23328 14.3581 0.930705 15.7296 0.952502C16.4663 0.964455 17.1677 1.02914 17.8193 1.14539C18.499 0.931643 19.8415 0.624846 21.3783 0.644064C24.2098 0.677814 26.5561 1.78125 28.1632 3.83508C29.3102 5.30039 28.7431 8.3775 28.3031 10.0814C27.6839 12.4781 26.599 15.0272 25.2663 17.2463C25.6282 17.2488 26.1525 17.2055 26.8978 17.0515C28.3683 16.748 28.7984 17.5364 28.9151 17.8894C29.3827 19.3055 27.3502 20.3756 26.7162 20.67C25.9038 21.0471 24.5794 21.2768 23.4947 21.2271L23.4474 21.2241L23.1624 21.199L23.1342 21.4366L23.107 21.6689C23.0342 24.4812 22.6324 26.2622 21.8058 27.439C20.9393 28.6727 19.7351 29.0184 18.6743 29.2458C18.3124 29.3231 17.9836 29.3569 17.6855 29.3569ZM15.5316 19.1215C16.1923 19.6502 16.2502 20.6452 16.302 22.5045C16.3085 22.7365 16.3146 22.9561 16.3228 23.1612C16.3477 23.7823 16.406 25.2366 16.6338 25.8511C16.6659 25.938 16.6948 26.0262 16.7252 26.1197C16.9791 26.8969 17.1063 27.2866 18.2039 27.052C19.1252 26.8545 19.5989 26.6773 19.9697 26.1495C20.5085 25.3821 20.8099 23.8385 20.8652 21.5616L21.9863 21.5888L20.873 21.4552L20.9058 21.1772C21.0124 20.2608 21.0893 19.5989 21.7017 19.1611C22.1932 18.81 22.7531 18.844 23.1992 18.9244C22.7091 18.5541 22.5736 18.1198 22.5375 17.9416L22.444 17.4811L22.7067 17.0913C24.2201 14.846 25.4679 12.0865 26.1307 9.52008C26.8118 6.88313 26.6042 5.48274 26.3965 5.21789C23.6475 1.70531 18.8806 3.15563 18.3827 3.32016L18.2986 3.36563L17.8767 3.44414L17.6606 3.39938C17.0649 3.27563 16.403 3.20719 15.6935 3.19571C14.5788 3.17696 13.6795 3.44039 12.9422 3.99985L12.4306 4.38774L11.8369 4.14328C10.5684 3.62461 6.84282 2.58188 4.87689 3.9743C3.78564 4.74727 3.28853 6.2618 3.39915 8.47594C3.43571 9.20696 3.93235 11.9742 4.75173 14.658C5.884 18.367 6.9129 19.5991 7.34251 19.7423C7.41751 19.7677 7.61204 19.6165 7.80564 19.384C8.61286 18.4164 9.4487 17.473 10.312 16.5551L10.9613 15.8719L11.7462 16.3934C12.0626 16.6036 12.4116 16.7229 12.7699 16.7454L14.6419 15.1488L14.3707 17.9163C14.3646 17.9784 14.3616 18.063 14.3859 18.2201L14.4675 18.7446L14.1136 19.1402L14.0728 19.1862L15.1013 19.6608L15.5316 19.1215Z" fill="black"/>
<path d="M27.1244 18.15C23.8608 18.8234 23.6365 17.7183 23.6365 17.7183C27.0825 12.6051 28.523 6.11437 27.2798 4.52601C23.8884 0.192883 18.0176 2.24202 17.9196 2.29523L17.888 2.30085C17.2432 2.16702 16.5216 2.08734 15.7104 2.07421C14.2336 2.05007 13.1135 2.4614 12.2634 3.10593C12.2634 3.10593 1.79061 -1.20844 2.27764 8.53195C2.38124 10.6043 5.24764 24.2114 8.66671 20.1014C9.91639 18.5986 11.1237 17.3278 11.1237 17.3278C11.7234 17.726 12.4413 17.9294 13.1939 17.8563L13.2525 17.8066C13.2342 17.9932 13.2426 18.1758 13.2759 18.3919C12.3951 19.376 12.6539 19.5487 10.893 19.9111C9.11132 20.2781 10.158 20.9318 10.8415 21.1027C11.6698 21.3098 13.5865 21.6033 14.8814 19.7906L14.8296 19.9973C15.1748 20.2739 15.4172 21.7955 15.3766 23.1748C15.3361 24.5541 15.3087 25.5012 15.5808 26.2409C15.8526 26.9805 16.1236 28.6446 18.4383 28.1487C20.3723 27.7343 21.3745 26.6602 21.5142 24.8686C21.6131 23.5948 21.8369 23.7832 21.8512 22.6444L22.031 22.1053C22.2382 20.3787 22.0638 19.8218 23.2556 20.0808L23.5451 20.1061C24.4221 20.1459 25.5698 19.965 26.2437 19.6519C27.6944 18.979 28.5548 17.8549 27.1244 18.15Z" fill="#336791"/>
<path d="M17.8024 28.6657C15.8731 28.6657 15.2618 27.1378 15.0117 26.513C14.6456 25.5973 14.5666 22.0437 14.6482 19.1295C14.6494 19.0803 14.6603 19.0319 14.6804 18.987C14.7004 18.9421 14.7291 18.9016 14.7648 18.8678C14.8005 18.834 14.8426 18.8077 14.8885 18.7902C14.9345 18.7728 14.9834 18.7646 15.0326 18.7662C15.0817 18.7675 15.13 18.7785 15.1748 18.7985C15.2197 18.8186 15.2601 18.8473 15.2939 18.8829C15.3276 18.9186 15.354 18.9606 15.3715 19.0065C15.389 19.0523 15.3973 19.1012 15.3959 19.1503C15.3019 22.5115 15.4352 25.5574 15.7062 26.2352C16.129 27.292 16.7702 28.2164 18.5831 27.828C20.3041 27.4589 20.9487 26.8064 21.2358 25.1421C21.4561 23.865 21.8918 20.2317 21.9455 19.5148C21.9491 19.4658 21.9623 19.418 21.9844 19.3741C22.0065 19.3302 22.037 19.2911 22.0743 19.2591C22.1115 19.227 22.1547 19.2026 22.2014 19.1873C22.248 19.172 22.2973 19.166 22.3463 19.1698C22.4451 19.1773 22.537 19.2237 22.6016 19.2988C22.6663 19.3739 22.6986 19.4717 22.6913 19.5705C22.6352 20.317 22.2016 23.9433 21.9729 25.2694C21.634 27.2351 20.7577 28.1266 18.7399 28.5593C18.397 28.6327 18.0856 28.6655 17.8024 28.6657ZM7.34087 21.203C7.17222 21.2024 7.00476 21.1747 6.84493 21.1209C5.59173 20.7028 4.39805 18.6619 3.29696 15.0541C2.45883 12.308 1.92774 9.44156 1.8811 8.50992C1.74305 5.74805 2.45415 3.79406 3.99516 2.70258C7.04368 0.542578 12.172 2.59945 12.3888 2.68805C12.4807 2.72556 12.5539 2.79802 12.5923 2.88949C12.6307 2.98096 12.6312 3.08394 12.5937 3.17578C12.5562 3.26762 12.4837 3.3408 12.3922 3.37922C12.3008 3.41763 12.1978 3.41814 12.1059 3.38062C12.0565 3.36047 7.13883 1.39031 4.42594 3.31383C3.10829 4.24805 2.50337 5.98383 2.62782 8.47266C2.66696 9.25758 3.16313 12.0551 4.01204 14.8357C4.99501 18.0565 6.11368 20.0887 7.08141 20.4115C7.23329 20.4621 7.69548 20.6161 8.35618 19.8216C9.12664 18.8962 9.92602 17.9953 10.7531 17.1202C10.8223 17.0511 10.9158 17.0119 11.0136 17.011C11.1113 17.01 11.2055 17.0473 11.2761 17.1149C11.3467 17.1826 11.388 17.2751 11.3912 17.3728C11.3943 17.4705 11.3592 17.5656 11.2931 17.6377C11.2819 17.6494 10.1571 18.8252 8.93133 20.2999C8.35079 20.9981 7.79438 21.203 7.34087 21.203ZM23.6133 18.0518C23.5455 18.0517 23.479 18.0332 23.4209 17.9982C23.3628 17.9633 23.3153 17.9132 23.2835 17.8533C23.2517 17.7934 23.2367 17.7261 23.2402 17.6583C23.2437 17.5906 23.2656 17.5252 23.3034 17.4689C26.787 12.2998 28.0097 6.05391 26.9625 4.71562C25.6444 3.03141 23.7832 2.1518 21.4303 2.10094C19.6882 2.06344 18.3035 2.50828 18.0771 2.58586L18.0202 2.60906C17.7926 2.68055 17.618 2.55586 17.5521 2.41008C17.5146 2.32655 17.5089 2.23218 17.5361 2.14475C17.5634 2.05732 17.6217 1.98288 17.7 1.93547C17.7108 1.92914 17.745 1.91461 17.8006 1.89422C18.1852 1.75336 19.5909 1.33148 21.3321 1.35141C23.9356 1.37906 26.0862 2.38289 27.551 4.25484C28.2441 5.14055 28.2457 7.18102 27.5555 9.85336C26.8519 12.578 25.5279 15.506 23.9234 17.887C23.8516 17.9941 23.7335 18.0518 23.6133 18.0518ZM23.7914 20.4448C23.1966 20.4448 22.6634 20.3609 22.3441 20.1696C22.016 19.973 21.9534 19.7058 21.9452 19.564C21.8557 17.9913 22.7234 17.7176 23.1659 17.5927C23.1042 17.4994 23.0166 17.3897 22.9259 17.2765C22.6678 16.954 22.3144 16.5124 22.042 15.852C21.9994 15.7488 21.8658 15.5091 21.7111 15.2313C20.8723 13.7271 19.1269 10.597 20.2481 8.99414C20.767 8.25234 21.8004 7.96031 23.3229 8.1232C22.875 6.75867 20.7422 2.49023 15.6813 2.40727C14.1593 2.38195 12.911 2.85 11.9731 3.79711C9.87305 5.91797 9.94899 9.75539 9.95016 9.79383C9.95145 9.84292 9.94307 9.89179 9.92547 9.93763C9.90788 9.98348 9.88143 10.0254 9.84763 10.061C9.81383 10.0967 9.77335 10.1253 9.72849 10.1453C9.68363 10.1653 9.63527 10.1762 9.58618 10.1775C9.53709 10.1788 9.48822 10.1704 9.44237 10.1528C9.39652 10.1352 9.35459 10.1088 9.31896 10.075C9.28333 10.0412 9.25471 10.0007 9.23473 9.95582C9.21475 9.91096 9.2038 9.86261 9.20251 9.81351C9.19782 9.64312 9.11954 5.61609 11.4417 3.2707C12.5285 2.17312 13.9591 1.63125 15.6938 1.65961C18.9314 1.71281 21.0155 3.35883 22.1934 4.73016C23.4776 6.22477 24.1071 7.87336 24.1589 8.42367C24.1976 8.83289 23.9039 8.91469 23.8446 8.92687L23.7096 8.92992C22.2155 8.69062 21.2569 8.8568 20.8606 9.42305C20.0077 10.642 21.6588 13.6029 22.3638 14.8673C22.5438 15.1898 22.6737 15.423 22.7332 15.567C22.9648 16.1285 23.2669 16.5059 23.5095 16.8091C23.723 17.0759 23.9079 17.3072 23.974 17.5786C24.0047 17.6325 24.4404 18.277 27.0258 17.7434C27.6738 17.6098 28.0624 17.7239 28.1813 18.0832C28.4149 18.7898 27.1038 19.6141 26.378 19.9512C25.7276 20.2535 24.6895 20.4448 23.7914 20.4448ZM22.6908 19.5023C22.7728 19.5851 23.1832 19.7278 24.0331 19.6913C24.7887 19.6589 25.5856 19.4946 26.0637 19.2727C26.6752 18.9886 27.0834 18.671 27.2949 18.4542L27.1777 18.4758C25.5246 18.817 24.3553 18.7716 23.7023 18.3405C23.6584 18.3116 23.6162 18.2802 23.5758 18.2466C23.505 18.2745 23.4396 18.2927 23.393 18.3059C23.0227 18.4097 22.6397 18.5173 22.6908 19.5023ZM12.0122 21.5918C11.6016 21.5918 11.1694 21.5358 10.7281 21.4254C10.2708 21.311 9.49993 20.9667 9.51165 20.4012C9.52501 19.7667 10.4477 19.5764 10.7951 19.5049C12.0499 19.2464 12.1317 19.1428 12.5238 18.6448C12.6382 18.4997 12.7805 18.319 12.9745 18.1024C13.2626 17.7799 13.5773 17.6166 13.9102 17.6166C14.142 17.6166 14.332 17.6951 14.4577 17.7473C14.858 17.9133 15.192 18.3145 15.3293 18.7943C15.4533 19.2272 15.394 19.6439 15.1629 19.9676C14.4042 21.03 13.3146 21.5918 12.0122 21.5918ZM10.3195 20.4333C10.4323 20.5205 10.6582 20.637 10.9097 20.6998C11.292 20.7954 11.6627 20.8439 12.0124 20.8439C13.0779 20.8439 13.9334 20.4028 14.5547 19.5328C14.6843 19.3514 14.6454 19.121 14.6107 18.9998C14.5381 18.746 14.3576 18.5152 14.1717 18.438C14.0709 18.3963 13.9873 18.3645 13.9104 18.3645C13.8691 18.3645 13.7435 18.3645 13.5321 18.6009C13.3862 18.765 13.246 18.934 13.1116 19.1077C12.6232 19.7278 12.3994 19.9383 10.9463 20.2376C10.5916 20.3102 10.4098 20.3843 10.3195 20.4333ZM13.1951 18.7083C13.1058 18.7081 13.0195 18.6761 12.9518 18.6179C12.8841 18.5597 12.8395 18.4792 12.8259 18.3909C12.8166 18.3289 12.8103 18.2664 12.8072 18.2037C11.8547 18.1859 10.9357 17.7771 10.238 17.0491C9.35579 16.1287 8.9543 14.8535 9.13665 13.5506C9.33469 12.1357 9.26063 10.8867 9.22079 10.2157C9.20977 10.0291 9.2018 9.89437 9.20227 9.80109C9.20298 9.68273 9.20532 9.36891 10.2544 8.83711C10.6275 8.64797 11.3756 8.31797 12.1929 8.23336C13.5469 8.09344 14.4394 8.69648 14.7066 9.93164C15.4277 13.2663 14.7638 14.7412 14.2788 15.8184C14.1886 16.0191 14.1033 16.2084 14.0351 16.392L13.9748 16.5537C13.7187 17.2406 13.4972 17.8341 13.5652 18.2773C13.5726 18.3258 13.5705 18.3753 13.5588 18.423C13.5471 18.4707 13.5261 18.5157 13.497 18.5553C13.468 18.5948 13.4314 18.6283 13.3894 18.6538C13.3474 18.6792 13.3008 18.6962 13.2523 18.7036L13.1951 18.7083ZM9.95251 9.90469L9.96704 10.1716C10.0083 10.8687 10.0852 12.1657 9.87704 13.6545C9.7268 14.7291 10.0549 15.7779 10.7777 16.5316C11.3489 17.1274 12.1006 17.4563 12.8731 17.4563H12.889C12.9755 17.0918 13.1191 16.707 13.2738 16.2923L13.3336 16.1316C13.4107 15.9244 13.5009 15.7237 13.5966 15.5114C14.0632 14.4745 14.6442 13.1838 13.9751 10.0898C13.8427 9.47695 13.5213 9.12234 12.9933 9.00539C11.9086 8.76586 10.2921 9.58172 9.95251 9.90469ZM12.2095 9.74602C12.1908 9.8782 12.4516 10.2312 12.792 10.2783C13.1316 10.3259 13.4222 10.0498 13.4407 9.91758C13.4592 9.78539 13.1986 9.63961 12.8583 9.59226C12.518 9.54492 12.2276 9.61383 12.2095 9.74602ZM12.87 10.4084L12.7746 10.4018C12.5637 10.3725 12.3504 10.2396 12.2044 10.046C12.1531 9.97805 12.0694 9.84633 12.086 9.72867C12.1097 9.55617 12.3202 9.45281 12.6485 9.45281C12.7219 9.45281 12.7983 9.4582 12.8752 9.46898C13.0547 9.49383 13.2213 9.54562 13.3444 9.6143C13.5577 9.73336 13.5734 9.86625 13.5638 9.93492C13.5375 10.1255 13.2345 10.4084 12.87 10.4084ZM12.3335 9.76805C12.3441 9.84961 12.5461 10.1187 12.8091 10.155L12.8702 10.1592C13.1131 10.1592 13.2945 9.9682 13.3158 9.90562C13.2933 9.86297 13.1372 9.75703 12.8412 9.71578C12.7774 9.70677 12.7131 9.70215 12.6488 9.70195C12.4584 9.70195 12.3574 9.74484 12.3335 9.76805ZM22.5534 9.47625C22.572 9.60844 22.3113 9.96141 21.9713 10.0087C21.6314 10.0561 21.3406 9.78023 21.3218 9.64805C21.304 9.51586 21.5646 9.36984 21.9045 9.32273C22.2443 9.27516 22.5347 9.3443 22.5534 9.47625ZM21.8927 10.0762C21.5656 10.0762 21.2831 9.82172 21.2599 9.65648C21.233 9.4582 21.5595 9.3075 21.8956 9.26086C21.9696 9.25055 22.043 9.24539 22.1135 9.24539C22.4037 9.24539 22.5959 9.33047 22.6151 9.46781C22.6275 9.55664 22.5593 9.69375 22.4419 9.8175C22.3643 9.89883 22.2014 10.0397 21.9795 10.0704L21.8927 10.0762ZM22.1138 9.37008C22.0488 9.37008 21.9819 9.37484 21.9131 9.38437C21.5754 9.43148 21.3738 9.56695 21.3837 9.63961C21.3949 9.71953 21.6106 9.9518 21.893 9.9518L21.9626 9.94687C22.147 9.92133 22.2856 9.80086 22.3516 9.73148C22.4555 9.6225 22.4967 9.51984 22.4918 9.48492C22.4852 9.43852 22.3606 9.37008 22.1138 9.37008ZM23.0431 17.0677C22.9753 17.0677 22.9088 17.0493 22.8507 17.0145C22.7926 16.9796 22.7451 16.9296 22.7132 16.8698C22.6813 16.8101 22.6663 16.7427 22.6697 16.6751C22.6732 16.6074 22.695 16.5419 22.7327 16.4857C23.5291 15.2962 23.3834 14.0834 23.2425 12.9103C23.1823 12.4106 23.1204 11.8938 23.1363 11.3979C23.1527 10.8877 23.2177 10.4667 23.2802 10.0596C23.3545 9.57727 23.4248 9.12164 23.3958 8.5807C23.3931 8.53167 23.4002 8.4826 23.4165 8.43629C23.4328 8.38998 23.4581 8.34734 23.4909 8.31079C23.5237 8.27425 23.5634 8.24453 23.6076 8.22332C23.6519 8.20211 23.7 8.18983 23.749 8.18719C23.798 8.18454 23.8471 8.19158 23.8934 8.20789C23.9397 8.22421 23.9824 8.24949 24.0189 8.28229C24.0927 8.34853 24.1372 8.44137 24.1425 8.54039C24.1758 9.15867 24.0963 9.6743 24.0195 10.1733C23.9602 10.5584 23.8988 10.9566 23.884 11.4218C23.8697 11.861 23.9257 12.3274 23.985 12.821C24.135 14.0684 24.3049 15.4821 23.3543 16.9017C23.32 16.9528 23.2737 16.9946 23.2194 17.0236C23.1651 17.0525 23.1046 17.0676 23.0431 17.0677Z" fill="white"/>
</svg>
