<svg width="30" height="30" viewBox="0 0 30 30" fill="none" xmlns="http://www.w3.org/2000/svg">
<g clip-path="url(#clip0_726_265)">
<path d="M26.5118 6.10923C21.6019 -0.248897 12.4666 -1.42265 6.10827 3.48821C-0.249151 8.39907 -1.42173 17.5343 3.48913 23.8917C8.40093 30.2489 17.5369 31.4208 23.8934 26.509C30.2482 21.5981 31.421 12.4657 26.5118 6.10923Z" fill="#F37036"/>
<path d="M21.3464 5.66344C20.8457 5.70348 20.3709 5.90273 19.9915 6.23203C19.5475 6.61761 19.2642 7.15556 19.1974 7.73978C19.1306 8.32399 19.2851 8.91203 19.6306 9.38789C19.9757 9.86383 20.4866 10.1932 21.0626 10.311C21.6386 10.4288 22.2378 10.3265 22.7421 10.0242H22.7426L22.7791 10.0608C22.9452 9.96562 23.0998 9.85158 23.2397 9.72094C23.6714 9.26437 23.9088 8.65798 23.902 8.02968C23.8952 7.40138 23.6446 6.8003 23.2031 6.3532V6.35273L21.1303 8.41266L21.0938 8.37633L23.1666 6.31547C22.9266 6.08416 22.6403 5.90646 22.3265 5.79413C22.0127 5.68181 21.6786 5.63742 21.3464 5.66391V5.66344ZM18.6173 9.03539C17.6236 9.03375 16.001 10.1602 12.0391 14.122L12.0588 14.1422C12.0373 14.1347 12.0155 14.134 12.0155 14.134L10.5239 15.6124C10.4856 15.6489 10.4603 15.6968 10.4517 15.749C10.4432 15.8011 10.4519 15.8547 10.4766 15.9014C10.5012 15.9482 10.5405 15.9856 10.5884 16.008C10.6363 16.0303 10.6902 16.0365 10.7419 16.0254L13.2998 15.4798C13.3112 15.4692 13.3188 15.4552 13.3214 15.4399L13.3781 15.4985L12.5063 16.3634H12.4641L7.28766 21.5805L8.94844 23.1799C8.99482 23.2219 9.05342 23.248 9.11567 23.2543C9.17792 23.2605 9.24055 23.2467 9.29438 23.2148C9.34866 23.1833 9.39213 23.136 9.41911 23.0793C9.44608 23.0226 9.4553 22.9591 9.44555 22.897L9.20297 21.8423C9.18772 21.8212 9.17951 21.7958 9.17951 21.7697C9.17951 21.7436 9.18772 21.7182 9.20297 21.697C11.4703 20.6161 13.5789 19.2295 15.4697 17.576L14.4068 16.5127L14.427 16.5094L13.7965 15.8791L13.8368 15.8384L13.8795 15.882L13.8574 15.9033L15.5302 17.6126V17.6119C18.7364 14.5758 21.0122 12.1352 20.4204 10.4927C20.3934 10.2963 20.3022 10.1144 20.1609 9.97524V9.97617C20.125 9.9496 20.0871 9.92563 20.0477 9.90445C20.0283 9.88383 20.0112 9.86273 19.9906 9.84258L19.9751 9.85805C19.9315 9.83173 19.8859 9.809 19.8387 9.79008L19.9064 9.72164C19.4855 9.34664 19.1377 9.03633 18.6173 9.03492V9.03539ZM7.25157 21.6117L6.03961 22.8239V22.8248C5.99613 22.8518 5.96232 22.8918 5.94307 22.9392C5.92382 22.9866 5.92012 23.0389 5.9325 23.0885C5.94446 23.1381 5.97176 23.1827 6.01051 23.2159C6.04927 23.2491 6.09751 23.2692 6.14836 23.2734L9.11836 23.4785L7.25157 21.6117Z" fill="white"/>
<path d="M21.5508 5.46329C20.8706 5.46252 20.2173 5.7294 19.7323 6.20626C19.3872 6.55949 19.1509 7.00447 19.0516 7.48819C18.9523 7.97192 18.9941 8.47399 19.1721 8.93462C18.0609 8.45884 16.5577 9.28852 11.8816 13.9636C11.8784 13.9708 11.8755 13.9781 11.873 13.9856C11.8634 13.9898 11.854 13.9947 11.8451 14.0002L10.3664 15.4917C10.2955 15.5613 10.249 15.6519 10.2337 15.75C10.2183 15.8481 10.235 15.9485 10.2813 16.0364C10.3226 16.106 10.3811 16.1637 10.4512 16.2041C10.5212 16.2445 10.6005 16.2662 10.6814 16.267L10.7548 16.2195L12.7291 15.7983L11.7846 16.7515C11.7793 16.7641 11.775 16.7771 11.772 16.7904L7.14305 21.4308C7.1246 21.4463 7.10932 21.4653 7.09805 21.4866L5.90602 22.6795C5.84668 22.7423 5.80614 22.8204 5.78898 22.9051C5.77183 22.9897 5.77876 23.0775 5.80899 23.1584C5.84018 23.2387 5.89291 23.3088 5.96139 23.3612C6.02986 23.4135 6.11142 23.4459 6.19711 23.4549L9.15446 23.6611C9.20499 23.6435 9.248 23.6092 9.27633 23.5638C9.30162 23.5285 9.31522 23.486 9.31522 23.4425C9.31522 23.3991 9.30162 23.3566 9.27633 23.3213L9.27024 23.3154C9.33422 23.2821 9.39051 23.2358 9.43547 23.1795C9.48292 23.1178 9.51607 23.0464 9.53253 22.9703C9.54899 22.8943 9.54834 22.8155 9.53063 22.7398L9.3 21.7584C11.5126 20.7011 13.5858 19.3737 15.472 17.8066C15.4902 17.8173 15.5098 17.8254 15.5302 17.8308C15.5897 17.8263 15.6455 17.8008 15.6877 17.7586C18.8634 14.7516 20.7302 12.6909 20.7302 11.055C20.7373 10.8281 20.7031 10.6017 20.6292 10.387C20.9155 10.5055 21.2208 10.5714 21.5304 10.5816L21.5269 10.5825C21.9534 10.5696 22.3704 10.453 22.7416 10.2427L22.7426 10.2429C22.7907 10.2572 22.8424 10.2526 22.8872 10.23C23.0664 10.1245 23.2297 9.99413 23.3723 9.84282C23.6141 9.6057 23.8061 9.32276 23.9372 9.01056C24.0683 8.69836 24.1359 8.36315 24.1359 8.02454C24.1359 7.68594 24.0684 7.35074 23.9373 7.03854C23.8063 6.72634 23.6143 6.4434 23.3726 6.20626C23.3639 6.19847 23.3547 6.19134 23.3449 6.18493C22.8624 5.72178 22.2194 5.46327 21.5506 5.46352L21.5508 5.46329ZM21.5304 5.8786C22.004 5.88143 22.4638 6.03895 22.8396 6.3272L20.9487 8.22962C20.9423 8.2369 20.9363 8.24457 20.9309 8.25259C20.8968 8.28707 20.8768 8.33304 20.8748 8.38149C20.8748 8.41077 20.8814 8.43967 20.8941 8.46605C20.9068 8.49243 20.9253 8.5156 20.9482 8.53384H20.9487L22.3784 9.96352C21.987 10.1343 21.5533 10.1829 21.1339 10.1029C20.7145 10.0229 20.329 9.81801 20.0281 9.51516C19.422 8.90579 19.2462 7.99079 19.5703 7.19696C19.8945 6.40243 20.6672 5.88329 21.5304 5.8786ZM23.1991 6.68298C23.5083 7.05705 23.6769 7.52751 23.6756 8.01282C23.6748 8.58137 23.4482 9.1263 23.0456 9.52782C22.9649 9.60374 22.8789 9.67384 22.7883 9.73759L21.6345 8.60157L21.4088 8.37587L21.4709 8.31376L23.1989 6.68251L23.1991 6.68298ZM23.1134 7.66571C23.0709 7.65237 23.0251 7.65496 22.9845 7.67298C22.9442 7.69378 22.9139 7.72968 22.9001 7.77282C22.8933 7.79435 22.8908 7.81701 22.8928 7.8395C22.8949 7.86199 22.9013 7.88385 22.9118 7.90384C22.9533 7.99142 22.9697 8.08884 22.9591 8.18519C22.9484 8.28155 22.9112 8.37305 22.8516 8.44946C22.8363 8.4642 22.8243 8.48202 22.8164 8.50174C22.8086 8.52146 22.805 8.54262 22.8059 8.56384C22.8068 8.60696 22.8223 8.64821 22.8516 8.67915C22.8828 8.69108 22.9174 8.69108 22.9486 8.67915C22.9768 8.68618 23.0063 8.68538 23.0341 8.67683C23.0619 8.66828 23.0868 8.6523 23.1061 8.63063C23.2059 8.50838 23.2691 8.36039 23.2884 8.20375C23.3077 8.04711 23.2823 7.88821 23.2151 7.7454V7.74634C23.1922 7.70792 23.156 7.67924 23.1134 7.66571ZM18.5953 9.24141C18.8781 9.25106 19.1502 9.35185 19.3711 9.52876C19.1333 9.56305 18.9129 9.6732 18.7427 9.84282L13.3973 15.1643L12.3483 14.1152C15.1205 11.3562 16.8155 9.91501 17.8692 9.44274C18.0863 9.30603 18.3388 9.23618 18.5953 9.24141ZM19.5246 9.93516C19.7041 9.9353 19.8762 10.0064 20.0034 10.133C20.071 10.1966 20.1242 10.2738 20.1597 10.3594C20.1953 10.4451 20.2122 10.5374 20.2095 10.6301C20.2064 10.7225 20.1843 10.8132 20.1446 10.8967C20.1048 10.9802 20.0483 11.0546 19.9786 11.1152L14.295 16.062L13.6816 15.4486L19.0458 10.133C19.1731 10.0065 19.3452 9.93524 19.5246 9.93516ZM20.2263 11.505C19.8302 13.0758 17.7309 15.2041 15.5419 17.2723L14.6566 16.388L20.2263 11.505ZM12.0391 14.4251L12.1034 14.4884L12.9267 15.3117L10.6697 15.7945L12.0391 14.4251ZM13.3969 15.7938L13.3978 15.7948L13.6716 16.0749L13.6758 16.0945L13.6941 16.0974L13.7522 16.1569L13.9444 16.3538L12.6823 16.5084L13.3969 15.7938ZM14.3032 16.7491L15.1418 17.5873C13.2875 19.1292 11.2526 20.4401 9.08204 21.491C9.01156 21.5246 8.9549 21.5815 8.9217 21.6522C8.88849 21.7228 8.8808 21.8028 8.89993 21.8784L9.1425 22.9331C9.15145 22.9455 9.15626 22.9604 9.15626 22.9757C9.15626 22.9909 9.15145 23.0058 9.1425 23.0182C9.12917 23.0302 9.1119 23.0368 9.09399 23.0368C9.07608 23.0368 9.0588 23.0302 9.04547 23.0182L7.61532 21.5763L12.0234 17.1035L14.3032 16.7491ZM7.28766 21.8913L7.49133 22.0821L8.54414 23.1349L6.19664 22.9831L7.28766 21.8913Z" fill="#F37036"/>
</g>
<defs>
<clipPath id="clip0_726_265">
<rect width="30" height="30" fill="white"/>
</clipPath>
</defs>
</svg>
