<svg width="30" height="30" viewBox="0 0 30 30" fill="none" xmlns="http://www.w3.org/2000/svg">
<path d="M14.8212 0.000230519C13.584 0.00602724 12.4031 0.110078 11.3634 0.292095C8.30122 0.827132 7.74563 1.94706 7.74563 4.01272V6.74036H14.9815V7.64958H5.02981C2.92701 7.64958 1.0856 8.89964 0.509496 11.2786C-0.155101 14.0045 -0.184405 15.7059 0.509496 18.5523C1.02377 20.6713 2.25216 22.1808 4.35525 22.1808H6.84339V18.9109C6.84339 16.5484 8.90956 14.4648 11.3637 14.4648H18.5913C20.6033 14.4648 22.2091 12.826 22.2091 10.8279V4.01301C22.2091 2.07314 20.5547 0.616132 18.5913 0.292385C17.3477 0.087761 16.0581 -0.00527636 14.8212 0.000230519ZM10.908 2.194C11.6553 2.194 12.266 2.80758 12.266 3.56231C12.266 4.31386 11.6556 4.92164 10.908 4.92164C10.1579 4.92164 9.55042 4.31386 9.55042 3.56231C9.55013 2.80758 10.1579 2.194 10.908 2.194Z" fill="url(#paint0_linear_726_151)"/>
<path d="M23.1114 7.6496V10.8279C23.1114 13.2915 20.9992 15.3653 18.5911 15.3653H11.3634C9.38369 15.3653 7.74564 17.0414 7.74564 19.0025V25.818C7.74564 27.7573 9.4505 28.8983 11.3634 29.4545C13.6538 30.1203 15.8503 30.2409 18.5911 29.4545C20.4125 28.9325 22.2088 27.8828 22.2088 25.818V23.09H14.9815V22.1805H25.8272C27.93 22.1805 28.7141 20.7299 29.4455 18.5521C30.201 16.3102 30.1685 14.1541 29.4455 11.2783C28.9257 9.20747 27.9332 7.64931 25.8272 7.64931L23.1114 7.6496ZM19.0461 24.9085C19.7966 24.9085 20.404 25.5162 20.404 26.2684C20.404 27.0225 19.7963 27.6361 19.0461 27.6361C18.2989 27.6361 17.6885 27.0225 17.6885 26.2684C17.6885 25.5162 18.2989 24.9085 19.0461 24.9085Z" fill="url(#paint1_linear_726_151)"/>
<defs>
<linearGradient id="paint0_linear_726_151" x1="-0.725378" y1="0.853111" x2="15.8095" y2="15.1095" gradientUnits="userSpaceOnUse">
<stop stop-color="#5A9FD4"/>
<stop offset="1" stop-color="#306998"/>
</linearGradient>
<linearGradient id="paint1_linear_726_151" x1="22.2431" y1="23.6811" x2="16.3447" y2="15.3184" gradientUnits="userSpaceOnUse">
<stop stop-color="#FFD43B"/>
<stop offset="1" stop-color="#FFE873"/>
</linearGradient>
</defs>
</svg>
