<svg width="30" height="30" viewBox="0 0 30 30" fill="none" xmlns="http://www.w3.org/2000/svg">
<g clip-path="url(#clip0_726_226)">
<path d="M22.8288 0.00873592C18.9275 -0.175014 15.6487 2.64499 15.0887 6.36124C15.0662 6.53374 15.0325 6.70124 15.005 6.86749C14.135 11.4962 10.085 15.0012 5.22125 15.0012C3.54961 15.0046 1.90448 14.5835 0.44 13.7775C0.401366 13.7555 0.357602 13.744 0.313136 13.7444C0.26867 13.7447 0.225078 13.7568 0.18677 13.7793C0.148461 13.8019 0.116795 13.8342 0.0949736 13.873C0.0731525 13.9117 0.0619503 13.9555 0.0625002 14V30H15V18.7512C15 16.6812 16.6725 15.0012 18.7338 15.0012H22.4688C26.6963 15.0012 30.0975 11.48 29.9313 7.19624C29.7813 3.34124 26.6688 0.192486 22.8288 0.00873592Z" fill="black"/>
</g>
<defs>
<clipPath id="clip0_726_226">
<rect width="30" height="30" fill="white"/>
</clipPath>
</defs>
</svg>
