<svg width="30" height="30" viewBox="0 0 30 30" fill="none" xmlns="http://www.w3.org/2000/svg">
<path d="M26.0972 5.31842C25.9377 4.76863 25.6637 4.2588 25.2932 3.82239C24.9227 3.38598 24.4641 3.03287 23.9475 2.78624C21.7331 1.60405 18.2194 1.56936 14.9962 2.69999C11.9844 3.70842 9.19582 5.28927 6.78373 7.35561C4.20373 9.73874 3.56061 11.9728 3.79405 13.1625C4.28436 15.6637 6.86342 17.4178 8.93623 18.8269C9.32811 19.0931 9.70686 19.3509 10.0378 19.5919C8.69811 20.3044 6.04311 21.8831 5.2678 23.5744C5.01835 24.0541 4.87899 24.5834 4.85985 25.1237C4.84071 25.6641 4.94229 26.2019 5.15717 26.6981C5.27374 26.9821 5.44788 27.2388 5.66861 27.4521C5.88934 27.6654 6.15188 27.8307 6.43967 27.9375C6.89475 28.0625 7.36461 28.1256 7.83655 28.125C8.80411 28.1078 9.75289 27.8549 10.6007 27.3884C11.4485 26.9218 12.1699 26.2556 12.7022 25.4475C13.1811 24.7092 13.5005 23.8791 13.64 23.0102C13.7795 22.1413 13.7359 21.2529 13.5122 20.4019C14.1464 20.3027 14.7915 20.2932 15.4284 20.3737C15.929 20.3879 16.4214 20.5043 16.8754 20.7156C17.3293 20.927 17.7353 21.2289 18.0684 21.6028C18.3452 21.933 18.4869 22.3556 18.465 22.7859C18.423 22.9927 18.3366 23.1879 18.2116 23.3579C18.0866 23.5279 17.9261 23.6686 17.7412 23.7703C17.5219 23.9015 17.1919 24.1031 17.2687 24.5231C17.3025 24.705 17.4544 25.1165 18.1069 25.0031C18.6595 24.8505 19.1505 24.5288 19.5111 24.0831C19.8718 23.6375 20.0839 23.0901 20.1178 22.5178C20.1241 22.0118 20.028 21.5097 19.8351 21.0418C19.6423 20.5739 19.3567 20.1499 18.9956 19.7953C18.448 19.275 17.8002 18.8715 17.0917 18.6094C16.3832 18.3474 15.6288 18.2322 14.8744 18.2709C14.0306 18.2592 13.1889 18.355 12.3694 18.5559C11.7233 17.9303 11.0331 17.3519 10.304 16.8253C8.69905 15.6065 7.18217 14.4544 7.27123 12.8315C7.38842 10.71 9.58499 8.5828 13.8 6.50905C17.565 4.65655 20.6006 4.59936 22.185 5.16092C22.654 5.28081 23.0585 5.57744 23.3137 5.98874C23.4426 6.3742 23.4792 6.78453 23.4206 7.18672C23.362 7.58891 23.2098 7.97172 22.9762 8.30436C22.2027 9.46535 21.1727 10.433 19.9658 11.1327C18.7588 11.8323 17.4072 12.2451 16.0153 12.3394C15.4884 12.4548 14.9424 12.451 14.4171 12.3282C13.8919 12.2054 13.4008 11.9667 12.9797 11.6297C12.719 11.3465 12.4237 11.025 11.9728 11.2706C11.6197 11.4644 11.5494 11.8359 11.7619 12.3853C11.9961 12.8228 12.317 13.208 12.705 13.5174C13.0929 13.8269 13.5398 14.0541 14.0184 14.1853C16.2569 14.679 18.5939 14.459 20.7009 13.5562C24.0075 12.2906 26.9644 8.67936 26.0972 5.31842ZM11.1515 22.9453C11.1009 23.0952 11.0407 23.2417 10.9715 23.384C10.7872 23.7547 10.5494 24.0961 10.2656 24.3975C9.99156 24.7591 9.62935 25.0444 9.2136 25.2261C8.79785 25.4078 8.34245 25.4798 7.89092 25.4353C7.83842 25.4053 7.8178 25.2984 7.81123 25.2544C7.82959 24.8485 7.92819 24.4503 8.10133 24.0828C8.27447 23.7153 8.51873 23.3857 8.81998 23.1131C9.55384 22.3919 10.3889 21.7814 11.2987 21.3009C11.3774 21.8531 11.327 22.4159 11.1515 22.9453Z" fill="#EC407A"/>
</svg>
