<svg width="30" height="30" viewBox="0 0 30 30" fill="none" xmlns="http://www.w3.org/2000/svg">
<path d="M16.2891 23.2444C16.2752 23.0733 16.267 22.9631 16.267 22.9631C16.267 22.9631 15.75 19.4735 15.1336 18.4317C15.0366 18.266 15.1437 17.5894 15.4165 16.5848C15.5759 16.8588 16.2462 18.0361 16.3816 18.4153C16.5335 18.8428 16.5645 18.9654 16.5645 18.9654C16.5645 18.9654 16.1965 17.0712 15.5932 15.9661C15.7398 15.4735 15.8964 14.984 16.0629 14.4977C16.2909 14.8985 16.8394 15.8709 16.9601 16.2087C16.984 16.2773 17.0051 16.3359 17.0234 16.3901L17.0407 16.293C16.9024 15.7062 16.6305 14.6852 16.2588 13.9301C17.0838 9.63445 19.8989 3.8932 22.7838 1.33148H3.96094C2.69836 1.33148 1.66664 2.36414 1.66664 3.62578V24.3844C1.66664 25.646 2.6993 26.6787 3.96117 26.6787H16.3589C16.2652 25.5365 16.2419 24.3896 16.2893 23.2446" fill="#0B7FCC"/>
<path d="M15.4165 16.5848C15.5759 16.8586 16.2462 18.0351 16.3814 18.4151C16.5335 18.8426 16.5644 18.9651 16.5644 18.9651C16.5644 18.9651 16.1965 17.0709 15.5932 15.9658C15.74 15.4729 15.8966 14.983 16.0629 14.4963C16.2708 14.8636 16.7477 15.7078 16.9188 16.1069L16.938 15.8817C16.7862 15.2967 16.5553 14.5303 16.2588 13.9298C17.0187 9.97569 19.4651 4.79624 22.1009 2.00061H3.9607C3.52983 2.00098 3.11672 2.17229 2.81203 2.47694C2.50734 2.78158 2.33598 3.19467 2.33554 3.62553V22.8701C6.44343 21.2925 11.3974 19.8513 15.6609 19.9137C15.5034 19.3031 15.3232 18.7512 15.1336 18.4315C15.0366 18.2658 15.1437 17.5884 15.4165 16.5848Z" fill="url(#paint0_linear_726_214)"/>
<path d="M27.1758 0.651795C25.8867 -0.498049 24.3248 -0.0356269 22.785 1.33125C22.5471 1.54392 22.3192 1.76752 22.102 2.00133C19.4653 4.79648 17.0198 9.97547 16.26 13.9298C16.5558 14.5305 16.7873 15.2967 16.9383 15.8817C16.9777 16.0317 17.0133 16.1728 17.0419 16.2928C17.1087 16.5757 17.1443 16.7606 17.1443 16.7606C17.1443 16.7606 17.1206 16.6709 17.0236 16.3898C17.0053 16.3359 16.9842 16.2764 16.9603 16.2087C16.9479 16.1744 16.9344 16.1405 16.92 16.107C16.748 15.7078 16.2719 14.8636 16.0631 14.4975C15.8845 15.0248 15.7263 15.5194 15.5934 15.9659C16.1977 17.0709 16.5659 18.9652 16.5659 18.9652C16.5659 18.9652 16.5337 18.8426 16.3826 18.4151C16.2471 18.0352 15.5761 16.8588 15.4177 16.5848C15.1448 17.5882 15.0368 18.2658 15.1348 18.4317C15.3244 18.7509 15.5037 19.3041 15.6621 19.9137C16.0193 21.2887 16.2682 22.9634 16.2682 22.9634C16.2682 22.9634 16.2755 23.0733 16.2902 23.2446C16.2429 24.3896 16.2661 25.5363 16.3598 26.6784C16.478 28.1105 16.7004 29.3416 16.9842 30L17.1783 29.8948C16.7609 28.5975 16.5914 26.8964 16.6655 24.9363C16.778 21.938 17.4675 18.3234 18.7411 14.5561C20.8952 8.86781 23.8828 4.305 26.6166 2.12601C24.1244 4.37648 20.7518 11.6613 19.7419 14.3592C18.6122 17.3805 17.8111 20.2148 17.3276 22.9312C18.1596 20.3852 20.8542 19.2914 20.8542 19.2914C20.8542 19.2914 22.1754 17.6606 23.7199 15.3333C22.7941 15.5449 21.2754 15.9056 20.7673 16.1189C20.0173 16.4339 19.8141 16.5408 19.8141 16.5408C19.8141 16.5408 22.2448 15.0614 24.3305 14.3913C27.1978 9.87492 30.3216 3.4582 27.176 0.652029" fill="#003956"/>
<defs>
<linearGradient id="paint0_linear_726_214" x1="13.732" y1="2.42582" x2="13.732" y2="21.7085" gradientUnits="userSpaceOnUse">
<stop stop-color="#95D7F4"/>
<stop offset="0.92" stop-color="#0F7FCC"/>
<stop offset="1" stop-color="#0F7FCC"/>
</linearGradient>
</defs>
</svg>
