<svg width="30" height="30" viewBox="0 0 30 30" fill="none" xmlns="http://www.w3.org/2000/svg">
<g clip-path="url(#clip0_726_254)">
<mask id="mask0_726_254" style="mask-type:alpha" maskUnits="userSpaceOnUse" x="0" y="0" width="30" height="30">
<path fill-rule="evenodd" clip-rule="evenodd" d="M21.2735 29.7952C21.5122 29.8882 21.7676 29.9311 22.0236 29.9213C22.2796 29.9115 22.5309 29.8491 22.7618 29.738L28.9383 26.7659C29.2564 26.6127 29.5247 26.3729 29.7126 26.074C29.9004 25.7751 30 25.4293 30 25.0763V4.92399C30.0001 4.57093 29.9005 4.22502 29.7126 3.92608C29.5248 3.62713 29.2564 3.38728 28.9383 3.23414L22.7618 0.262503C22.4128 0.0945745 22.0202 0.0392846 21.6384 0.104285C21.2566 0.169286 20.9044 0.351362 20.6306 0.625315L8.8064 11.4127L3.65624 7.50305C3.42388 7.32674 3.13715 7.23729 2.84576 7.25022C2.55437 7.26315 2.27669 7.37764 2.06085 7.57383L0.408977 9.07641C0.280246 9.19349 0.177371 9.33616 0.106932 9.49527C0.0364927 9.65439 4.11711e-05 9.82646 -9.1191e-05 10.0005C-0.000223553 10.1745 0.0359662 10.3466 0.106163 10.5058C0.17636 10.6651 0.279018 10.8079 0.407571 10.9252L4.87405 15L0.407805 19.0751C0.279322 19.1924 0.176726 19.3352 0.106572 19.4944C0.0364193 19.6536 0.000253041 19.8257 0.000385389 19.9997C0.000517737 20.1736 0.0369458 20.3457 0.107341 20.5047C0.177736 20.6638 0.28055 20.8065 0.409211 20.9236L2.06109 22.4262C2.27689 22.6224 2.55456 22.7369 2.84595 22.7499C3.13734 22.7629 3.42409 22.6735 3.65648 22.4972L8.80663 18.5878L20.6309 29.3749C20.8139 29.5579 21.0325 29.7009 21.2735 29.7952ZM22.5044 8.18977L13.5328 15L22.5047 21.8105L22.5044 8.18977Z" fill="white"/>
</mask>
<g mask="url(#mask0_726_254)">
<path d="M28.9385 3.23906L22.7571 0.262502C22.408 0.0943589 22.0152 0.0389519 21.6332 0.103957C21.2512 0.168962 20.8988 0.351162 20.625 0.625315L0.389511 19.0751C0.260933 19.1923 0.158249 19.3351 0.0880339 19.4943C0.0178186 19.6535 -0.0183815 19.8256 -0.0182491 19.9996C-0.0181168 20.1737 0.0183451 20.3457 0.0888026 20.5048C0.15926 20.6639 0.262161 20.8066 0.390918 20.9236L2.04373 22.4262C2.2596 22.6226 2.53745 22.7373 2.82905 22.7503C3.12066 22.7633 3.4076 22.6737 3.64006 22.4972L28.0083 4.01086C28.8258 3.39071 30 3.97383 30 4.99992V4.92821C30 4.57525 29.9004 4.22946 29.7126 3.93061C29.5248 3.63175 29.2565 3.3922 28.9385 3.23906Z" fill="#0065A9"/>
<g filter="url(#filter0_d_726_254)">
<path d="M28.9385 26.7612L22.7571 29.7373C22.408 29.9055 22.0153 29.961 21.6333 29.896C21.2513 29.8311 20.8989 29.649 20.625 29.3749L0.389542 10.9249C0.260963 10.8077 0.15828 10.6649 0.0880644 10.5057C0.0178491 10.3465 -0.018351 10.1744 -0.0182186 10.0004C-0.0180863 9.82635 0.0183757 9.65429 0.0888331 9.49519C0.159291 9.33609 0.262191 9.19345 0.390948 9.07641L2.04376 7.57383C2.25963 7.37736 2.53748 7.26268 2.82909 7.24971C3.12069 7.23674 3.40763 7.32629 3.64009 7.50281L28.0083 25.9889C28.8258 26.6093 30 26.0262 30 25.0001V25.0718C30 25.4247 29.9004 25.7705 29.7126 26.0694C29.5248 26.3682 29.2565 26.608 28.9385 26.7612Z" fill="#007ACC"/>
</g>
<g filter="url(#filter1_d_726_254)">
<path d="M22.7573 29.738C22.4081 29.9058 22.0153 29.961 21.6334 29.896C21.2514 29.8309 20.899 29.6489 20.625 29.3749C21.3169 30.0668 22.5 29.5767 22.5 28.5982V1.40158C22.5 0.42306 21.3169 -0.0670186 20.625 0.625091C20.899 0.35115 21.2514 0.169084 21.6334 0.104049C22.0153 0.0390138 22.4081 0.0942219 22.7573 0.262044L28.9376 3.23439C29.2558 3.38743 29.5244 3.62723 29.7123 3.92618C29.9003 4.22514 30 4.5711 30 4.92423V25.0763C30 25.4294 29.9003 25.7754 29.7123 26.0743C29.5244 26.3733 29.2558 26.6131 28.9376 26.7661L22.7573 29.738Z" fill="#1F9CF0"/>
</g>
<path opacity="0.25" fill-rule="evenodd" clip-rule="evenodd" d="M21.2555 29.795C21.4942 29.888 21.7494 29.9309 22.0054 29.9211C22.2614 29.9113 22.5127 29.8489 22.7435 29.7378L28.92 26.7657C29.2381 26.6126 29.5065 26.3727 29.6944 26.0738C29.8822 25.7748 29.9818 25.4289 29.9817 25.0759V4.92383C29.9818 4.57078 29.8822 4.22487 29.6944 3.92592C29.5065 3.62697 29.2381 3.38713 28.92 3.23399L22.7435 0.26235C22.3945 0.094422 22.0019 0.039132 21.6201 0.104133C21.2383 0.169133 20.8861 0.35121 20.6123 0.625163L8.78813 11.4125L3.63797 7.50313C3.40561 7.32682 3.11888 7.23738 2.82749 7.2503C2.5361 7.26323 2.25841 7.37772 2.04258 7.57391L0.390705 9.07649C0.262006 9.19359 0.15916 9.33626 0.0887417 9.49538C0.0183235 9.65449 -0.0181168 9.82655 -0.0182491 10.0006C-0.0183815 10.1746 0.017797 10.3467 0.0879731 10.5059C0.158149 10.6651 0.260778 10.8079 0.389299 10.9252L4.85578 14.9998L0.389533 19.0747C0.260981 19.192 0.158323 19.3348 0.0881258 19.494C0.017929 19.6532 -0.0182608 19.8254 -0.0181284 19.9994C-0.017996 20.1734 0.0184555 20.3455 0.0888945 20.5046C0.159333 20.6637 0.262209 20.8064 0.39094 20.9234L2.04281 22.426C2.25862 22.6223 2.53629 22.7368 2.82768 22.7498C3.11907 22.7627 3.40582 22.6733 3.63821 22.497L8.7886 18.5874L20.6128 29.3748C20.7957 29.5577 21.0146 29.7008 21.2555 29.795ZM22.4864 8.18938L13.5145 14.9998L22.4864 21.8101V8.18938Z" fill="url(#paint0_linear_726_254)"/>
</g>
</g>
<defs>
<filter id="filter0_d_726_254" x="-1.05997" y="6.20672" width="32.1017" height="24.7575" filterUnits="userSpaceOnUse" color-interpolation-filters="sRGB">
<feFlood flood-opacity="0" result="BackgroundImageFix"/>
<feColorMatrix in="SourceAlpha" type="matrix" values="0 0 0 0 0 0 0 0 0 0 0 0 0 0 0 0 0 0 127 0" result="hardAlpha"/>
<feOffset/>
<feGaussianBlur stdDeviation="0.520875"/>
<feColorMatrix type="matrix" values="0 0 0 0 0 0 0 0 0 0 0 0 0 0 0 0 0 0 0.25 0"/>
<feBlend mode="overlay" in2="BackgroundImageFix" result="effect1_dropShadow_726_254"/>
<feBlend mode="normal" in="SourceGraphic" in2="effect1_dropShadow_726_254" result="shape"/>
</filter>
<filter id="filter1_d_726_254" x="19.5833" y="-0.964235" width="11.4585" height="31.9285" filterUnits="userSpaceOnUse" color-interpolation-filters="sRGB">
<feFlood flood-opacity="0" result="BackgroundImageFix"/>
<feColorMatrix in="SourceAlpha" type="matrix" values="0 0 0 0 0 0 0 0 0 0 0 0 0 0 0 0 0 0 127 0" result="hardAlpha"/>
<feOffset/>
<feGaussianBlur stdDeviation="0.520875"/>
<feColorMatrix type="matrix" values="0 0 0 0 0 0 0 0 0 0 0 0 0 0 0 0 0 0 0.25 0"/>
<feBlend mode="overlay" in2="BackgroundImageFix" result="effect1_dropShadow_726_254"/>
<feBlend mode="normal" in="SourceGraphic" in2="effect1_dropShadow_726_254" result="shape"/>
</filter>
<linearGradient id="paint0_linear_726_254" x1="14.9817" y1="0.077194" x2="14.9817" y2="29.9225" gradientUnits="userSpaceOnUse">
<stop stop-color="white"/>
<stop offset="1" stop-color="white" stop-opacity="0"/>
</linearGradient>
<clipPath id="clip0_726_254">
<rect width="30" height="30" fill="white"/>
</clipPath>
</defs>
</svg>
