<svg width="30" height="30" viewBox="0 0 30 30" fill="none" xmlns="http://www.w3.org/2000/svg">
<path d="M15.78 16.7807C15.78 16.2284 16.2277 15.7807 16.78 15.7807H28.9993C29.5516 15.7807 29.9993 16.2284 29.9993 16.7807V29C29.9993 29.5523 29.5516 30 28.9993 30H16.78C16.2277 30 15.78 29.5523 15.78 29V16.7807ZM0.000701904 16.7807C0.000701904 16.2284 0.448417 15.7807 1.0007 15.7807H13.22C13.7723 15.7807 14.22 16.2284 14.22 16.7807V29C14.22 29.5523 13.7723 30 13.22 30H1.0007C0.448417 30 0.000701904 29.5523 0.000701904 29V16.7807ZM15.78 0.999999C15.78 0.447715 16.2277 0 16.78 0H28.9993C29.5516 0 29.9993 0.447715 29.9993 1V13.2193C29.9993 13.7716 29.5516 14.2193 28.9993 14.2193H16.78C16.2277 14.2193 15.78 13.7716 15.78 13.2193V0.999999ZM0.000701904 0.999999C0.000701904 0.447715 0.448417 0 1.0007 0H13.22C13.7723 0 14.22 0.447715 14.22 1V13.2193C14.22 13.7716 13.7723 14.2193 13.22 14.2193H1.0007C0.448417 14.2193 0.000701904 13.7716 0.000701904 13.2193V0.999999Z" fill="url(#paint0_linear_676_148)"/>
<defs>
<linearGradient id="paint0_linear_676_148" x1="0.140191" y1="2.08193e-07" x2="29.8598" y2="30" gradientUnits="userSpaceOnUse">
<stop stop-color="#00E6FF"/>
<stop offset="1" stop-color="#0078D4"/>
</linearGradient>
</defs>
</svg>
