<svg width="30" height="30" viewBox="0 0 30 30" fill="none" xmlns="http://www.w3.org/2000/svg">
<path d="M22.9688 0H7.03125C3.148 0 0 3.148 0 7.03125V22.9688C0 26.852 3.148 30 7.03125 30H22.9688C26.852 30 30 26.852 30 22.9688V7.03125C30 3.148 26.852 0 22.9688 0Z" fill="#242938"/>
<path d="M9.93102 13.1204C9.93102 13.4057 9.96184 13.6369 10.0157 13.8066C10.0842 13.9974 10.1667 14.183 10.2625 14.3617C10.3011 14.4233 10.3165 14.485 10.3165 14.539C10.3165 14.6161 10.2702 14.6932 10.17 14.7702L9.68422 15.0941C9.61485 15.1403 9.54547 15.1635 9.48383 15.1635C9.40672 15.1635 9.32961 15.1249 9.25251 15.0555C9.14866 14.9439 9.05574 14.8226 8.975 14.6932C8.88883 14.5451 8.80907 14.3933 8.73594 14.2383C8.13461 14.9477 7.37907 15.3023 6.4693 15.3022C5.82172 15.3022 5.30516 15.1172 4.92735 14.7471C4.54965 14.377 4.35688 13.8837 4.35688 13.2669C4.35688 12.6115 4.58821 12.0796 5.05848 11.6787C5.52876 11.2778 6.15325 11.0773 6.94731 11.0773C7.20946 11.0773 7.47934 11.1005 7.76458 11.139C8.04981 11.1776 8.34278 11.2392 8.65122 11.3086V10.7457C8.65122 10.1598 8.52782 9.75117 8.28887 9.51223C8.04208 9.27316 7.62582 9.15762 7.03215 9.15762C6.76227 9.15762 6.48477 9.18844 6.19954 9.25781C5.9143 9.32719 5.63668 9.41203 5.3668 9.51996C5.27913 9.55914 5.18902 9.59261 5.09704 9.62016C5.04313 9.63562 5.00446 9.64336 4.97364 9.64336C4.86583 9.64336 4.81169 9.56625 4.81169 9.4043V9.02648C4.81169 8.9032 4.82715 8.81063 4.86571 8.75672C4.90426 8.70281 4.97364 8.64879 5.08157 8.59477C5.35141 8.45602 5.67524 8.34039 6.05305 8.24789C6.43075 8.14758 6.83165 8.10141 7.25575 8.10141C8.17321 8.10141 8.84387 8.30953 9.27571 8.72578C9.69969 9.14215 9.91555 9.77437 9.91555 10.6225V13.1204H9.93102ZM6.80094 14.2923C7.05524 14.2923 7.31739 14.246 7.59501 14.1534C7.87251 14.061 8.11918 13.8913 8.32743 13.6601C8.45071 13.5136 8.54329 13.3516 8.58946 13.1666C8.63563 12.9816 8.66657 12.758 8.66657 12.4959V12.172C8.43279 12.1152 8.19602 12.0714 7.95735 12.041C7.71694 12.0106 7.47487 11.9952 7.23254 11.9947C6.71598 11.9947 6.33829 12.095 6.08387 12.3032C5.82946 12.5113 5.70606 12.8043 5.70606 13.1898C5.70606 13.5521 5.79864 13.8219 5.99129 14.007C6.17645 14.1997 6.44633 14.2923 6.80094 14.2923ZM12.9916 15.1249C12.8529 15.1249 12.7603 15.1017 12.6986 15.0478C12.637 15.0015 12.583 14.8936 12.5368 14.7471L10.7251 8.78754C10.6787 8.63332 10.6556 8.53313 10.6556 8.4791C10.6556 8.35582 10.7172 8.28633 10.8406 8.28633H11.5961C11.7426 8.28633 11.8429 8.30953 11.8968 8.36344C11.9585 8.40973 12.0048 8.51766 12.0511 8.66414L13.3462 13.768L14.549 8.66414C14.5876 8.50992 14.6338 8.40984 14.6955 8.36344C14.7572 8.31726 14.8651 8.28645 15.0038 8.28645H15.6206C15.7671 8.28645 15.8674 8.30953 15.929 8.36344C15.9907 8.40973 16.0447 8.51766 16.0755 8.66414L17.2937 13.8296L18.6274 8.66414C18.6737 8.50992 18.7277 8.40984 18.7816 8.36344C18.8432 8.31726 18.9436 8.28645 19.0823 8.28645H19.7993C19.9227 8.28645 19.992 8.34809 19.992 8.4791C19.992 8.51777 19.9843 8.55621 19.9766 8.6025C19.9689 8.64879 19.9535 8.71031 19.9227 8.79527L18.0647 14.7548C18.0183 14.9091 17.9643 15.0093 17.9027 15.0555C17.8411 15.1017 17.7407 15.1327 17.6097 15.1327H16.9467C16.8002 15.1327 16.7 15.1095 16.6384 15.0555C16.5766 15.0015 16.5227 14.9013 16.4919 14.7471L15.2968 9.77437L14.1096 14.7394C14.071 14.8936 14.0247 14.9938 13.9631 15.0478C13.9013 15.1017 13.7934 15.1249 13.6547 15.1249H12.9916ZM22.8986 15.333C22.4977 15.333 22.0968 15.2868 21.7113 15.1943C21.3259 15.1017 21.0252 15.0015 20.8247 14.8859C20.7014 14.8165 20.6165 14.7394 20.5857 14.67C20.5557 14.602 20.54 14.5285 20.5394 14.4541V14.061C20.5394 13.899 20.6011 13.8219 20.7167 13.8219C20.7631 13.8219 20.8093 13.8296 20.8555 13.8451C20.9018 13.8605 20.9711 13.8913 21.0482 13.9222C21.3206 14.042 21.6049 14.1324 21.8963 14.192C22.1983 14.2533 22.5057 14.2843 22.8138 14.2846C23.2995 14.2846 23.6772 14.1997 23.9394 14.0302C24.2015 13.8605 24.3403 13.6138 24.3403 13.2977C24.3403 13.0819 24.2709 12.9045 24.1322 12.758C23.9934 12.6115 23.7313 12.4805 23.3534 12.3571L22.2356 12.0102C21.6727 11.8329 21.2564 11.5707 21.002 11.2239C20.7475 10.8846 20.6165 10.5067 20.6165 10.1059C20.6165 9.78215 20.6859 9.49687 20.8247 9.25008C20.9634 9.0034 21.1484 8.78754 21.3798 8.61797C21.6111 8.44055 21.8732 8.30953 22.1816 8.21695C22.49 8.12437 22.8138 8.08594 23.1531 8.08594C23.3226 8.08594 23.4999 8.09367 23.6696 8.11676C23.8469 8.13984 24.0088 8.17066 24.1707 8.2016C24.3249 8.24016 24.4714 8.27871 24.6102 8.325C24.7489 8.37117 24.8568 8.41742 24.934 8.46375C25.0419 8.52539 25.119 8.58703 25.1653 8.65641C25.2115 8.71812 25.2347 8.80297 25.2347 8.91094V9.27328C25.2347 9.43512 25.173 9.51996 25.0573 9.51996C24.9956 9.51996 24.8954 9.48914 24.7644 9.42738C24.3249 9.22699 23.8315 9.1268 23.2841 9.1268C22.8446 9.1268 22.4977 9.19617 22.2587 9.34266C22.0196 9.48914 21.8963 9.71274 21.8963 10.0288C21.8963 10.2446 21.9734 10.4297 22.1277 10.5762C22.2819 10.7227 22.5671 10.8691 22.9757 11.0002L24.0705 11.347C24.6255 11.5245 25.0265 11.7711 25.2655 12.0873C25.5044 12.4035 25.6201 12.7657 25.6201 13.1666C25.6201 13.4981 25.5507 13.7988 25.4197 14.061C25.2809 14.3231 25.0959 14.5543 24.8568 14.7394C24.6179 14.9321 24.3325 15.0709 24.0011 15.1712C23.6541 15.2791 23.2918 15.333 22.8986 15.333Z" fill="white"/>
<path fill-rule="evenodd" clip-rule="evenodd" d="M24.356 19.08C21.8194 20.9535 18.1342 21.9481 14.9655 21.9481C10.5248 21.9481 6.5233 20.3058 3.50115 17.5766C3.26209 17.3608 3.47806 17.0678 3.7633 17.2374C7.03224 19.1339 11.0644 20.2827 15.2354 20.2827C18.0494 20.2827 21.141 19.6968 23.9859 18.4941C24.4099 18.3013 24.7722 18.7716 24.356 19.08Z" fill="#FF9900"/>
<path fill-rule="evenodd" clip-rule="evenodd" d="M25.4121 17.8773C25.0883 17.4609 23.2689 17.6768 22.4439 17.777C22.1972 17.8079 22.1587 17.5919 22.3823 17.4301C23.8316 16.4125 26.2139 16.7054 26.4916 17.0446C26.7691 17.3916 26.4144 19.7739 25.0575 20.9149C24.8493 21.0922 24.6489 20.9996 24.7414 20.7684C25.0498 20.0052 25.7359 18.2858 25.4121 17.8773Z" fill="#FF9900"/>
</svg>
