<svg width="36" height="30" viewBox="0 0 36 30" fill="none" xmlns="http://www.w3.org/2000/svg">
<path d="M22.1654 0.0631185C22.5931 0.184191 22.9554 0.471259 23.1729 0.861202C23.3903 1.25114 23.445 1.71204 23.3249 2.14254L15.9022 28.7686C15.8428 28.9819 15.7422 29.1813 15.6063 29.3555C15.4703 29.5296 15.3016 29.6751 15.1097 29.7837C14.9179 29.8922 14.7067 29.9616 14.4882 29.988C14.2697 30.0144 14.0482 29.9972 13.8363 29.9374C13.6244 29.8776 13.4263 29.7764 13.2532 29.6395C13.0802 29.5026 12.9357 29.3328 12.8278 29.1397C12.72 28.9466 12.651 28.734 12.6248 28.5141C12.5986 28.2942 12.6157 28.0712 12.6751 27.8579L20.0978 1.23185C20.1572 1.01837 20.2578 0.818768 20.3938 0.644461C20.5299 0.470154 20.6988 0.324562 20.8909 0.216012C21.0829 0.107463 21.2943 0.0380866 21.513 0.0118516C21.7317 -0.0143834 21.9534 0.00303755 22.1654 0.0631185ZM9.96912 6.65218C10.2832 6.96845 10.4597 7.39733 10.4597 7.84452C10.4597 8.29172 10.2832 8.7206 9.96912 9.03686L4.04608 15.0002L9.96912 20.9619C10.1248 21.1185 10.2483 21.3044 10.3326 21.5091C10.4169 21.7137 10.4603 21.933 10.4604 22.1545C10.4605 22.376 10.4172 22.5954 10.3331 22.8001C10.2489 23.0048 10.1255 23.1908 9.96996 23.3475C9.81439 23.5042 9.62969 23.6285 9.42639 23.7133C9.2231 23.7982 9.00519 23.8419 8.78511 23.8419C8.56503 23.842 8.34709 23.7985 8.14373 23.7138C7.94037 23.6291 7.75558 23.5049 7.59991 23.3483L0.490576 16.1926C0.17646 15.8763 0 15.4474 0 15.0002C0 14.5531 0.17646 14.1242 0.490576 13.8079L7.59991 6.65218C7.91412 6.33602 8.34022 6.15841 8.78451 6.15841C9.22881 6.15841 9.65491 6.33602 9.96912 6.65218ZM26.0309 9.03686C25.8708 8.88129 25.7432 8.6952 25.6554 8.48944C25.5676 8.28368 25.5213 8.06238 25.5194 7.83845C25.5175 7.61452 25.5599 7.39245 25.6441 7.18519C25.7284 6.97793 25.8528 6.78963 26.0101 6.63128C26.1674 6.47293 26.3545 6.34771 26.5604 6.26291C26.7663 6.17811 26.987 6.13544 27.2095 6.13739C27.4319 6.13933 27.6518 6.18586 27.8562 6.27424C28.0606 6.36263 28.2455 6.49111 28.4001 6.65218L35.5094 13.8079C35.8235 14.1242 36 14.5531 36 15.0002C36 15.4474 35.8235 15.8763 35.5094 16.1926L28.4001 23.3483C28.0857 23.6645 27.6594 23.8421 27.2149 23.8419C26.7704 23.8418 26.3442 23.6639 26.03 23.3475C25.7159 23.031 25.5394 22.6019 25.5396 22.1545C25.5398 21.7072 25.7165 21.2782 26.0309 20.9619L31.9539 15.0002L26.0309 9.03686Z" fill="url(#paint0_linear_500_138)"/>
<defs>
<linearGradient id="paint0_linear_500_138" x1="0" y1="14.9804" x2="36" y2="15.0196" gradientUnits="userSpaceOnUse">
<stop offset="0.35" stop-color="#5B21B6"/>
<stop offset="1" stop-color="#E879F9"/>
</linearGradient>
</defs>
</svg>
