<svg width="25" height="30" viewBox="0 0 25 30" fill="none" xmlns="http://www.w3.org/2000/svg">
<path fill-rule="evenodd" clip-rule="evenodd" d="M0.916667 0.942859C1.50216 0.339891 2.29648 0.000751932 3.125 1.70891e-06H15.625C15.7619 -0.000249749 15.8975 0.0272518 16.024 0.080934C16.1506 0.134616 16.2656 0.213426 16.3625 0.312859L24.6958 8.88429C24.7925 8.98397 24.8691 9.10228 24.9213 9.23244C24.9735 9.3626 25.0002 9.50206 25 9.64286V26.7857C25 27.6382 24.6708 28.4558 24.0847 29.0586C23.4987 29.6614 22.7038 30 21.875 30H3.125C2.2962 30 1.50134 29.6614 0.915291 29.0586C0.32924 28.4558 0 27.6382 0 26.7857V3.21429C0 2.36143 0.329167 1.54286 0.916667 0.942859ZM8.23958 8.46429C8.51974 8.46429 8.79715 8.40753 9.05597 8.29726C9.3148 8.18698 9.54998 8.02535 9.74808 7.8216C9.94618 7.61784 10.1033 7.37594 10.2105 7.10972C10.3177 6.8435 10.3729 6.55816 10.3729 6.27C10.3729 5.98184 10.3177 5.69651 10.2105 5.43029C10.1033 5.16406 9.94618 4.92217 9.74808 4.71841C9.54998 4.51465 9.3148 4.35302 9.05597 4.24275C8.79715 4.13247 8.51974 4.07572 8.23958 4.07572C7.67379 4.07572 7.13117 4.3069 6.73109 4.71841C6.33101 5.12992 6.10625 5.68804 6.10625 6.27C6.10625 6.85196 6.33101 7.41009 6.73109 7.8216C7.13117 8.23311 7.67379 8.46429 8.23958 8.46429ZM3.90833 18.2143C3.90833 17.475 4.48958 16.875 5.20833 16.875H19.7917C20.1243 16.8938 20.4373 17.0428 20.6665 17.2915C20.8957 17.5402 21.0237 17.8696 21.0243 18.2123C21.0248 18.5549 20.8978 18.8848 20.6694 19.1342C20.441 19.3836 20.1284 19.5337 19.7958 19.5536H5.2125C4.86697 19.5536 4.53557 19.4125 4.29105 19.1614C4.04653 18.9103 3.90889 18.5697 3.90833 18.2143ZM3.90833 24.6429C3.90833 23.9036 4.48958 23.3036 5.20833 23.3036H13.5417C13.8743 23.3224 14.1873 23.4714 14.4165 23.7201C14.6457 23.9687 14.7737 24.2982 14.7743 24.6408C14.7748 24.9835 14.6478 25.3134 14.4194 25.5628C14.191 25.8122 13.8784 25.9622 13.5458 25.9821H5.2125C4.86697 25.9821 4.53557 25.8411 4.29105 25.59C4.04653 25.3389 3.90889 24.9983 3.90833 24.6429ZM8.24167 9.93C6.78333 9.93 5.45208 10.4936 4.44583 11.4214C3.84792 11.9721 4.31458 12.8571 5.11667 12.8571H11.3625C12.1667 12.8571 12.6333 11.9721 12.0354 11.4214C10.9929 10.4587 9.64269 9.9274 8.24167 9.93Z" fill="url(#paint0_linear_223_107)"/>
<defs>
<linearGradient id="paint0_linear_223_107" x1="12.5" y1="0" x2="12.5" y2="30" gradientUnits="userSpaceOnUse">
<stop stop-color="#D0D0D0"/>
<stop offset="1" stop-color="#909090"/>
</linearGradient>
</defs>
</svg>
