<svg width="30" height="30" viewBox="0 0 30 30" fill="none" xmlns="http://www.w3.org/2000/svg">
<path d="M8.78143 7.82143C8.78143 8.475 9.04106 9.1018 9.50321 9.56394C9.96535 10.0261 10.5921 10.2857 11.2457 10.2857C11.8993 10.2857 12.5261 10.0261 12.9882 9.56394C13.4504 9.1018 13.71 8.475 13.71 7.82143C13.71 7.16786 13.4504 6.54106 12.9882 6.07892C12.5261 5.61677 11.8993 5.35714 11.2457 5.35714C10.5921 5.35714 9.96535 5.61677 9.50321 6.07892C9.04106 6.54106 8.78143 7.16786 8.78143 7.82143Z" stroke="#D0D0D0" stroke-width="2.14286" stroke-linecap="round" stroke-linejoin="round"/>
<path d="M7.5 12.7286C7.86992 12.005 8.42059 11.3894 9.09857 10.9414C9.75429 10.5129 10.4957 10.29 11.2479 10.29C12 10.29 12.7414 10.5129 13.3971 10.9414C14.055 11.3679 14.6036 11.9829 14.9957 12.7286" stroke="#D0D0D0" stroke-width="2.14286" stroke-linecap="round" stroke-linejoin="round"/>
<path d="M26.7857 26.7857C26.7857 27.354 26.56 27.8991 26.1581 28.3009C25.7562 28.7028 25.2112 28.9286 24.6429 28.9286H5.35715C4.78883 28.9286 4.24379 28.7028 3.84192 28.3009C3.44006 27.8991 3.21429 27.354 3.21429 26.7857V3.21429C3.21429 2.64596 3.44006 2.10092 3.84192 1.69906C4.24379 1.29719 4.78883 1.07143 5.35715 1.07143H19.2857L26.7857 8.57143V26.7857Z" stroke="#D0D0D0" stroke-width="2.14286" stroke-linecap="round" stroke-linejoin="round"/>
<path d="M7.5 18.2143H22.5M7.5 23.5714H16.0714" stroke="#D0D0D0" stroke-width="2.14286" stroke-linecap="round"/>
</svg>
