<svg width="30" height="30" viewBox="0 0 30 30" fill="none" xmlns="http://www.w3.org/2000/svg">
<path d="M5.52989 0.267772C5.70814 0.423077 5.83003 0.632964 5.87655 0.864739C5.92306 1.09651 5.89161 1.33716 5.78708 1.5492C5.76805 1.6117 5.75865 1.67673 5.75922 1.74206C5.75922 1.87706 5.79351 2.13421 6.11715 2.45564C6.27361 2.61206 6.39364 2.72349 6.52438 2.84564C6.63155 2.94421 6.74514 3.04707 6.88874 3.18849C7.16737 3.45421 7.461 3.76707 7.72463 4.15921C8.27117 4.97993 8.57338 6.00636 8.57338 7.49994C8.57338 8.31851 8.43835 9.08566 8.19187 9.76494C7.49315 11.6935 5.92211 12.8571 4.28677 12.8571C2.65143 12.8571 1.08038 11.6914 0.381667 9.76494C0.123917 9.03782 -0.00518147 8.27136 0.000159164 7.49994C0.000159164 6.80136 0.186627 5.96779 0.443823 5.1985C0.70102 4.42921 1.0611 3.62992 1.4769 2.98707C1.972 2.15135 2.66857 1.45063 3.20869 0.979203C3.50589 0.72014 3.81485 0.47488 4.13459 0.2442L4.19889 0.201343L4.21818 0.186343L4.22461 0.182058L4.2289 0.179915C4.42543 0.0489356 4.65974 -0.0134595 4.8954 0.0024287C5.13106 0.0183169 5.35486 0.111598 5.53203 0.267772M4.28677 15C5.64813 15.0034 6.96712 14.5269 8.01183 13.6542C8.0547 13.7885 8.09542 13.9242 8.134 14.0614C8.57338 15.6728 8.57338 17.6657 8.57338 19.2064V19.2857C8.57338 23.6957 7.74821 26.3143 6.81373 27.8721C6.45966 28.4848 5.99618 29.0274 5.4463 29.4729C5.22757 29.6421 4.99028 29.7859 4.73901 29.9014C4.73901 29.9014 4.46681 30 4.28677 30C4.13226 29.9877 3.98013 29.9546 3.83453 29.9014C3.58326 29.7859 3.34597 29.6421 3.12724 29.4729C2.57736 29.0274 2.11388 28.4848 1.75981 27.8721C0.825332 26.3164 0.000159164 23.6957 0.000159164 19.2857V19.2085C0.000159164 17.6657 0.000159272 15.675 0.439537 14.0592C0.476687 13.925 0.51741 13.7892 0.561705 13.6521C1.60552 14.5271 2.92461 15.0059 4.28677 15.0042M12.8557 21.375C12.1128 21.2921 11.382 21.1231 10.6781 20.8714C10.7038 20.3314 10.7167 19.7743 10.7167 19.2V18.5657C11.3811 18.8807 12.1013 19.1014 12.8557 19.2085V15C12.8557 13.8633 13.3073 12.7732 14.1112 11.9695C14.9151 11.1658 16.0054 10.7142 17.1423 10.7142H21.3539C21.1834 9.52943 20.7318 8.40263 20.0367 7.428C19.3416 6.45338 18.4233 5.65924 17.3586 5.11196C16.2938 4.56468 15.1134 4.28016 13.9162 4.28216C12.719 4.28417 11.5396 4.57265 10.4766 5.1235C10.3083 4.42295 10.0305 3.7533 9.65361 3.13921C11.0427 2.45282 12.5768 2.11115 14.126 2.14314C15.6752 2.17513 17.1939 2.57983 18.5535 3.32298C19.9131 4.06613 21.0736 5.12585 21.9368 6.41244C22.7999 7.69902 23.3403 9.17459 23.5122 10.7142H25.7134C26.8503 10.7142 27.9406 11.1658 28.7445 11.9695C29.5484 12.7732 30 13.8633 30 15V23.5714C30 24.7081 29.5484 25.7981 28.7445 26.6019C27.9406 27.4056 26.8503 27.8571 25.7134 27.8571H17.1402C16.0033 27.8571 14.913 27.4056 14.1091 26.6019C13.3052 25.7981 12.8536 24.7081 12.8536 23.5714L12.8557 21.375ZM23.5144 12.8571C23.2716 15.0315 22.2964 17.0588 20.749 18.6059C19.2016 20.153 17.1739 21.128 14.999 21.3707V23.5714C14.999 24.1397 15.2248 24.6848 15.6268 25.0866C16.0287 25.4885 16.5739 25.7143 17.1423 25.7143H25.7155C26.284 25.7143 26.8291 25.4885 27.2311 25.0866C27.633 24.6848 27.8588 24.1397 27.8588 23.5714V15C27.8588 14.4316 27.633 13.8866 27.2311 13.4847C26.8291 13.0829 26.284 12.8571 25.7155 12.8571H23.5144ZM21.3539 12.8571H17.1423C16.5739 12.8571 16.0287 13.0829 15.6268 13.4847C15.2248 13.8866 14.999 14.4316 14.999 15V19.2107C16.6024 18.9797 18.088 18.2359 19.2334 17.0907C20.3789 15.9454 21.1228 14.4602 21.3539 12.8571Z" fill="url(#paint0_linear_500_139)"/>
<defs>
<linearGradient id="paint0_linear_500_139" x1="30" y1="14.9848" x2="8.03413e-07" y2="15.0152" gradientUnits="userSpaceOnUse">
<stop stop-color="#E879F9"/>
<stop offset="0.75" stop-color="#5B21B6"/>
</linearGradient>
</defs>
</svg>
