<svg width="30" height="30" viewBox="0 0 30 30" fill="none" xmlns="http://www.w3.org/2000/svg">
<path d="M22.9688 0H7.03125C3.148 0 0 3.148 0 7.03125V22.9688C0 26.852 3.148 30 7.03125 30H22.9688C26.852 30 30 26.852 30 22.9688V7.03125C30 3.148 26.852 0 22.9688 0Z" fill="#5865F2"/>
<path d="M23.122 7.59346C21.6025 6.89604 19.9989 6.39865 18.3514 6.11373C18.3365 6.111 18.321 6.11303 18.3073 6.11955C18.2935 6.12607 18.2822 6.13674 18.2748 6.15006C18.0688 6.51639 17.8405 6.99451 17.6808 7.37021C15.8792 7.10045 14.0871 7.10045 12.3226 7.37021C12.1628 6.98607 11.9263 6.51639 11.7193 6.15006C11.7117 6.13696 11.7003 6.12647 11.6866 6.11998C11.6729 6.1135 11.6575 6.11132 11.6426 6.11373C9.99493 6.398 8.39128 6.89542 6.87198 7.59346C6.85905 7.59909 6.8481 7.60848 6.84058 7.62041C3.80214 12.1598 2.96987 16.5876 3.37815 20.9606C3.38064 20.9822 3.3916 21.0019 3.40862 21.0154C5.41323 22.4876 7.35515 23.3814 9.26097 23.9738C9.27579 23.9782 9.29161 23.978 9.3063 23.9732C9.32099 23.9683 9.33388 23.9592 9.34323 23.9469C9.79405 23.3312 10.1959 22.6821 10.5405 21.9994C10.5453 21.9901 10.548 21.9798 10.5485 21.9694C10.549 21.9589 10.5473 21.9484 10.5434 21.9387C10.5396 21.9289 10.5337 21.9201 10.5262 21.9128C10.5187 21.9054 10.5097 21.8998 10.4999 21.8962C9.86237 21.6543 9.25546 21.3596 8.67163 21.0248C8.661 21.0185 8.65207 21.0097 8.64563 20.9992C8.63919 20.9887 8.63544 20.9767 8.63471 20.9644C8.63398 20.9521 8.6363 20.9398 8.64145 20.9286C8.6466 20.9173 8.65443 20.9076 8.66425 20.9001C8.78742 20.808 8.90847 20.7132 9.02729 20.6156C9.03771 20.607 9.05031 20.6015 9.06368 20.5997C9.07705 20.5978 9.09067 20.5998 9.103 20.6053C12.9388 22.3565 17.0913 22.3565 20.8817 20.6053C20.8941 20.5994 20.9079 20.5972 20.9215 20.5989C20.9351 20.6005 20.9479 20.606 20.9585 20.6146C21.0775 20.7128 21.1988 20.808 21.3225 20.9001C21.3324 20.9075 21.3402 20.9172 21.3455 20.9284C21.3507 20.9396 21.3531 20.9518 21.3525 20.9642C21.3518 20.9765 21.3482 20.9884 21.3418 20.999C21.3355 21.0096 21.3266 21.0184 21.316 21.0248C20.7319 21.3659 20.12 21.6571 19.4869 21.8953C19.4771 21.899 19.4682 21.9048 19.4607 21.9123C19.4533 21.9197 19.4475 21.9287 19.4438 21.9385C19.4401 21.9483 19.4384 21.9588 19.439 21.9693C19.4396 21.9798 19.4423 21.9901 19.4471 21.9994C19.7977 22.6767 20.1976 23.3272 20.6434 23.9459C20.6525 23.9585 20.6653 23.968 20.6801 23.973C20.6948 23.978 20.7107 23.9783 20.7257 23.9738C22.6407 23.3814 24.5826 22.4876 26.5874 21.0154C26.5959 21.0091 26.6031 21.001 26.6083 20.9917C26.6136 20.9824 26.6168 20.9721 26.6178 20.9615C27.1065 15.9059 25.7993 11.5143 23.1525 7.62135C23.1461 7.60866 23.1352 7.59875 23.122 7.59346ZM11.1133 18.298C9.95847 18.298 9.0069 17.2378 9.0069 15.9357C9.0069 14.6336 9.94007 13.5734 11.1133 13.5734C12.2958 13.5734 13.2381 14.643 13.2196 15.9357C13.2196 17.2378 12.2865 18.298 11.1133 18.298ZM18.9012 18.298C17.7463 18.298 16.7948 17.2378 16.7948 15.9357C16.7948 14.6336 17.7279 13.5734 18.9012 13.5734C20.0836 13.5734 21.0259 14.643 21.0075 15.9357C21.0075 17.2378 20.0836 18.298 18.9012 18.298Z" fill="#D0D0D0"/>
</svg>
