<svg width="30" height="30" viewBox="0 0 30 30" fill="none" xmlns="http://www.w3.org/2000/svg">
<path d="M22.6964 10.5882H19.8571V1.76471C19.8571 0.794118 19.0536 0 18.0714 0H10.9286C9.94643 0 9.14286 0.794118 9.14286 1.76471V10.5882H6.30357C4.71429 10.5882 3.91071 12.4941 5.03571 13.6059L13.2321 21.7059C13.9286 22.3941 15.0536 22.3941 15.75 21.7059L23.9464 13.6059C25.0714 12.4941 24.2857 10.5882 22.6964 10.5882ZM2 28.2353C2 29.2059 2.80357 30 3.78571 30H25.2143C26.1964 30 27 29.2059 27 28.2353C27 27.2647 26.1964 26.4706 25.2143 26.4706H3.78571C2.80357 26.4706 2 27.2647 2 28.2353Z" fill="#D0D0D0"/>
</svg>
