<svg width="15" height="16" viewBox="0 0 15 16" fill="none" xmlns="http://www.w3.org/2000/svg">
<path d="M9.375 0.5C8.85645 0.5 8.4375 0.918945 8.4375 1.4375C8.4375 1.95605 8.85645 2.375 9.375 2.375H11.7979L5.89746 8.27539C5.53125 8.6416 5.53125 9.23633 5.89746 9.60254C6.26367 9.96875 6.8584 9.96875 7.22461 9.60254L13.125 3.70215V6.125C13.125 6.64355 13.5439 7.0625 14.0625 7.0625C14.5811 7.0625 15 6.64355 15 6.125V1.4375C15 0.918945 14.5811 0.5 14.0625 0.5H9.375ZM2.34375 3.3125C1.04883 3.3125 0 4.36133 0 5.65625V13.1562C0 14.4512 1.04883 15.5 2.34375 15.5H9.84375C11.1387 15.5 12.1875 14.4512 12.1875 13.1562V10.8125C12.1875 10.2939 11.7686 9.875 11.25 9.875C10.7314 9.875 10.3125 10.2939 10.3125 10.8125V13.1562C10.3125 13.4141 10.1016 13.625 9.84375 13.625H2.34375C2.08594 13.625 1.875 13.4141 1.875 13.1562V5.65625C1.875 5.39844 2.08594 5.1875 2.34375 5.1875H4.6875C5.20605 5.1875 5.625 4.76855 5.625 4.25C5.625 3.73145 5.20605 3.3125 4.6875 3.3125H2.34375Z" fill="#D0D0D0"/>
</svg>
