<svg width="30" height="30" viewBox="0 0 30 30" fill="none" xmlns="http://www.w3.org/2000/svg">
<path d="M0 15C0 6.71573 6.71573 0 15 0C23.2843 0 30 6.71573 30 15C30 23.2843 23.2843 30 15 30C6.71573 30 0 23.2843 0 15Z" fill="#1877F2"/>
<path d="M19.8389 19.3359L20.5039 15H16.3437V12.1863C16.3437 10.9999 16.9249 9.84375 18.7883 9.84375H20.6797V6.15234C20.6797 6.15234 18.9631 5.85938 17.3219 5.85938C13.8957 5.85938 11.6562 7.93594 11.6562 11.6953V15H7.84765V19.3359H11.6562V29.8178C12.4316 29.9393 13.2152 30.0002 14 30C14.7848 30.0002 15.5684 29.9393 16.3437 29.8178V19.3359H19.8389Z" fill="#D0D0D0"/>
</svg>
