<svg width="30" height="30" viewBox="0 0 30 30" fill="none" xmlns="http://www.w3.org/2000/svg">
<path d="M7.89373 7.72C7.58123 6.9225 7.59373 6.01125 7.73248 5.1775C8.68743 5.46445 9.58444 5.91718 10.3825 6.515C10.7325 6.7825 11.1912 6.86875 11.6187 6.74C12.7155 6.41103 13.8549 6.24591 15 6.25C16.2012 6.25 17.3425 6.425 18.3787 6.73875C18.8062 6.86875 19.265 6.78125 19.6137 6.51375C20.4114 5.91606 21.308 5.46333 22.2625 5.17625C22.4012 6.01 22.4125 6.92125 22.1025 7.7175C21.915 8.1975 22.0087 8.75 22.3625 9.1425C23.2675 10.1462 23.75 11.3 23.75 12.5C23.75 15.1425 21.2875 17.7337 17.3325 18.5225C16.3425 18.72 15.9562 19.9663 16.7137 20.68C17.2 21.1375 17.5 21.7825 17.5 22.5V26.25C17.5 26.5815 17.6317 26.8995 17.8661 27.1339C18.1005 27.3683 18.4185 27.5 18.75 27.5C19.0815 27.5 19.3994 27.3683 19.6339 27.1339C19.8683 26.8995 20 26.5815 20 26.25V22.5C20 21.7875 19.85 21.11 19.5825 20.4962C23.3537 19.1875 26.25 16.2412 26.25 12.5C26.25 10.8162 25.645 9.26875 24.6412 7.9725C24.9037 6.9475 24.88 5.915 24.78 5.1225C24.6912 4.4125 24.5675 3.4825 24.0675 2.9275C23.3237 2.10375 22.0925 2.58875 21.2175 2.8875C20.2784 3.20402 19.3853 3.64324 18.5612 4.19375C17.3976 3.89635 16.201 3.74725 15 3.75C13.7575 3.75 12.5587 3.90625 11.4362 4.195C10.6122 3.64449 9.71907 3.20527 8.77998 2.88875C7.90498 2.58875 6.67248 2.10375 5.92873 2.9275C5.41873 3.4925 5.31248 4.34875 5.22123 5.07625L5.21498 5.12375C5.11498 5.9175 5.09248 6.95125 5.35498 7.9775C4.35498 9.2725 3.74998 10.8175 3.74998 12.5C3.74998 16.24 6.64623 19.1875 10.4175 20.4962C10.145 21.1205 10.0029 21.7939 9.99998 22.475L9.78998 22.5175C8.89373 22.6412 8.31998 22.53 7.92998 22.365C6.97998 21.9625 6.48998 20.9487 5.89248 20.1737C5.51998 19.6925 4.97748 19.0912 4.14498 18.8137C3.9892 18.7619 3.82473 18.7412 3.66096 18.7529C3.49718 18.7646 3.33732 18.8084 3.19048 18.8819C2.89394 19.0303 2.66849 19.2904 2.56373 19.605C2.45897 19.9196 2.48348 20.263 2.63187 20.5595C2.78026 20.856 3.04037 21.0815 3.35498 21.1862C4.05248 21.4187 4.53498 22.6137 4.97748 23.1437C5.44373 23.7037 6.06373 24.2887 6.95248 24.6662C7.80498 25.0287 8.80623 25.1575 9.99998 25.0113V26.25C9.99998 26.5815 10.1317 26.8995 10.3661 27.1339C10.6005 27.3683 10.9185 27.5 11.25 27.5C11.5815 27.5 11.8994 27.3683 12.1339 27.1339C12.3683 26.8995 12.5 26.5815 12.5 26.25V22.5C12.5 21.7825 12.8 21.1375 13.2862 20.68C14.045 19.965 13.6575 18.72 12.6675 18.5225C8.71123 17.7337 6.24998 15.1425 6.24998 12.5C6.24998 11.3025 6.73123 10.1487 7.63498 9.145C7.98873 8.7525 8.08123 8.2 7.89373 7.72Z" fill="#D0D0D0"/>
</svg>
