<svg width="30" height="30" viewBox="0 0 30 30" fill="none" xmlns="http://www.w3.org/2000/svg">
<path d="M10.3013 0.822323C7.2065 1.8744 4.53755 3.87129 2.68648 6.51966C0.835408 9.16804 -0.100221 12.3283 0.0170233 15.5363C0.134267 18.7443 1.2982 21.8309 3.33787 24.3427C5.37754 26.8545 8.18542 28.6592 11.3491 29.4916C13.9139 30.1401 16.6012 30.1686 19.1797 29.5746C21.5157 29.0604 23.6753 27.9606 25.4471 26.3828C27.2913 24.6905 28.6298 22.5376 29.3189 20.1557C30.0679 17.5654 30.2012 14.8414 29.7085 12.1928H15.3055V18.0476H23.6468C23.4801 18.9814 23.1228 19.8726 22.5964 20.668C22.0701 21.4633 21.3853 22.1464 20.5832 22.6764C19.5647 23.3367 18.4165 23.7809 17.2124 23.9807C16.0047 24.2007 14.7661 24.2007 13.5584 23.9807C12.3344 23.7327 11.1765 23.2376 10.1585 22.527C8.52306 21.3926 7.29505 19.7809 6.64974 17.9219C5.99351 16.0282 5.99351 13.9751 6.64974 12.0814C7.10909 10.7539 7.86845 9.54531 8.87116 8.54572C10.0186 7.3808 11.4714 6.54811 13.07 6.13901C14.6686 5.7299 16.3513 5.7602 17.9335 6.22656C19.1695 6.59837 20.2998 7.24798 21.2342 8.12362C22.1747 7.20671 23.1136 6.28743 24.0509 5.36577C24.5349 4.87017 25.0624 4.39827 25.5391 3.89081C24.1128 2.59009 22.4385 1.57796 20.6123 0.912433C17.2867 -0.270881 13.6479 -0.302681 10.3013 0.822323Z" fill="white"/>
<path d="M10.3013 0.822323C13.6476 -0.303446 17.2864 -0.272488 20.6122 0.910056C22.4388 1.58011 24.1123 2.5971 25.5366 3.90266C25.0527 4.41013 24.5421 4.88439 24.0484 5.37763C23.1095 6.29612 22.1715 7.21145 21.2342 8.12362C20.2998 7.24798 19.1695 6.59837 17.9335 6.22656C16.3518 5.75856 14.6691 5.72651 13.0701 6.13394C11.4711 6.54137 10.0174 7.37253 8.8687 8.53623C7.86599 9.53582 7.10662 10.7444 6.64727 12.0719L1.63092 8.26589C3.42647 4.77664 6.53539 2.10764 10.3013 0.822323Z" fill="#E33629"/>
<path d="M0.300055 12.0363C0.569678 10.7269 1.01725 9.45873 1.63092 8.26589L6.64733 12.0814C5.9911 13.9751 5.9911 16.0282 6.64733 17.9219C4.97602 19.1867 3.3039 20.4577 1.63097 21.735C0.0947319 18.7384 -0.373795 15.3242 0.300055 12.0363Z" fill="#F8BD00"/>
<path d="M15.3056 12.1904H29.7085C30.2012 14.839 30.0679 17.563 29.3189 20.1533C28.6299 22.5353 27.2913 24.6881 25.4472 26.3804C23.8283 25.1426 22.2021 23.9143 20.5832 22.6764C21.3859 22.1459 22.0709 21.462 22.5973 20.6658C23.1238 19.8696 23.4807 18.9775 23.6468 18.0428H15.3056C15.3032 16.0936 15.3056 14.142 15.3056 12.1904Z" fill="#587DBD"/>
<path d="M1.62856 21.735C3.30148 20.4703 4.9736 19.1992 6.64491 17.9219C7.29151 19.7815 8.52126 21.3933 10.1585 22.527C11.1797 23.2343 12.3401 23.7253 13.5657 23.9688C14.7733 24.1888 16.012 24.1888 17.2197 23.9688C18.4238 23.769 19.572 23.3248 20.5905 22.6645C22.2094 23.9024 23.8355 25.1307 25.4544 26.3685C23.6828 27.9472 21.5232 29.0478 19.187 29.5627C16.6084 30.1567 13.9212 30.1283 11.3564 29.4797C9.32781 28.9489 7.433 28.0133 5.7907 26.7313C4.05243 25.3789 2.63269 23.6746 1.62856 21.735Z" fill="#319F43"/>
</svg>
