<svg width="30" height="24" viewBox="0 0 30 24" fill="none" xmlns="http://www.w3.org/2000/svg">
<path d="M3 24C2.175 24 1.469 23.7065 0.882 23.1195C0.295 22.5325 0.001 21.826 0 21V3C0 2.175 0.294 1.469 0.882 0.882C1.47 0.295 2.176 0.001 3 0H27C27.825 0 28.5315 0.294 29.1195 0.882C29.7075 1.47 30.001 2.176 30 3V21C30 21.825 29.7065 22.5315 29.1195 23.1195C28.5325 23.7075 27.826 24.001 27 24H3ZM15 13.2375C15.125 13.2375 15.2565 13.2185 15.3945 13.1805C15.5325 13.1425 15.6635 13.0865 15.7875 13.0125L26.4 6.375C26.6 6.25 26.75 6.094 26.85 5.907C26.95 5.72 27 5.5135 27 5.2875C27 4.7875 26.7875 4.4125 26.3625 4.1625C25.9375 3.9125 25.5 3.925 25.05 4.2L15 10.5L4.95 4.2C4.5 3.925 4.0625 3.919 3.6375 4.182C3.2125 4.445 3 4.8135 3 5.2875C3 5.5375 3.05 5.7565 3.15 5.9445C3.25 6.1325 3.4 6.276 3.6 6.375L14.2125 13.0125C14.3375 13.0875 14.469 13.144 14.607 13.182C14.745 13.22 14.876 13.2385 15 13.2375Z" fill="url(#paint0_linear_223_110)"/>
<defs>
<linearGradient id="paint0_linear_223_110" x1="15" y1="0" x2="15" y2="24" gradientUnits="userSpaceOnUse">
<stop stop-color="#D0D0D0"/>
<stop offset="1" stop-color="#909090"/>
</linearGradient>
</defs>
</svg>
