<svg width="30" height="30" viewBox="0 0 30 30" fill="none" xmlns="http://www.w3.org/2000/svg">
<path d="M30 8.3025V22.5C30.0001 23.6478 29.5615 24.7523 28.7741 25.5874C27.9866 26.4225 26.9098 26.9252 25.764 26.9925L25.5 27H4.5C3.35218 27.0001 2.24773 26.5615 1.41261 25.7741C0.57749 24.9866 0.0748387 23.9098 0.00750017 22.764L0 22.5V8.3025L14.1675 17.748L14.3415 17.847C14.5466 17.9472 14.7718 17.9993 15 17.9993C15.2282 17.9993 15.4534 17.9472 15.6585 17.847L15.8325 17.748L30 8.3025Z" fill="#D0D0D0"/>
<path d="M25.5 3C27.12 3 28.5405 3.855 29.3325 5.1405L15 14.6955L0.667496 5.1405C1.04368 4.52974 1.56043 4.01775 2.17465 3.64723C2.78888 3.27672 3.48277 3.05841 4.1985 3.0105L4.5 3H25.5Z" fill="#D0D0D0"/>
</svg>
