<svg width="34" height="34" viewBox="0 0 34 34" fill="none" xmlns="http://www.w3.org/2000/svg">
<path d="M2 9.5V5.75C2 4.75544 2.39509 3.80161 3.09835 3.09835C3.80161 2.39509 4.75544 2 5.75 2H9.5M2 24.5V28.25C2 29.2446 2.39509 30.1984 3.09835 30.9016C3.80161 31.6049 4.75544 32 5.75 32H9.5M24.5 2H28.25C29.2446 2 30.1984 2.39509 30.9016 3.09835C31.6049 3.80161 32 4.75544 32 5.75V9.5M24.5 32H28.25C29.2446 32 30.1984 31.6049 30.9016 30.9016C31.6049 30.1984 32 29.2446 32 28.25V24.5" stroke="#D0D0D0" stroke-width="4" stroke-linecap="round" stroke-linejoin="round"/>
</svg>
