<svg width="30" height="30" viewBox="0 0 30 30" fill="none" xmlns="http://www.w3.org/2000/svg">
<path opacity="0.5" d="M15 20.085L10.2862 24.9662C9.61125 25.665 9.27375 26.015 8.98625 26.135C8.33625 26.41 7.6125 26.175 7.27 25.575C7.12 25.3125 7.0725 24.8375 6.98 23.8875C6.92625 23.35 6.9 23.0825 6.82 22.8575C6.73479 22.6125 6.59729 22.3891 6.41706 22.2026C6.23682 22.0161 6.01816 21.871 5.77625 21.7775C5.56 21.6938 5.30125 21.6662 4.7825 21.6112C3.865 21.515 3.40625 21.4662 3.15125 21.3112C2.5725 20.9562 2.34375 20.2075 2.61 19.5337C2.7275 19.2375 3.065 18.8875 3.74 18.1887L6.82 15L8.3675 13.4525L15 20.085ZM15 20.085L21.6325 13.4525L23.18 15L26.26 18.1875C26.935 18.8875 27.2725 19.2375 27.39 19.5325C27.6562 20.2075 27.4275 20.9562 26.8487 21.3112C26.5937 21.4662 26.1362 21.515 25.2175 21.6112C24.7 21.6662 24.44 21.6938 24.2237 21.7775C23.7375 21.9638 23.3612 22.355 23.18 22.8575C23.1 23.0825 23.0737 23.35 23.02 23.8862C22.9262 24.8362 22.88 25.3112 22.73 25.575C22.3875 26.175 21.6637 26.4113 21.0125 26.135C20.7275 26.015 20.39 25.665 19.715 24.9662L15 20.085Z" fill="#D0D0D0"/>
<path fill-rule="evenodd" clip-rule="evenodd" d="M15 20C17.3206 20 19.5462 19.0781 21.1872 17.4372C22.8281 15.7962 23.75 13.5706 23.75 11.25C23.75 8.92936 22.8281 6.70376 21.1872 5.06282C19.5462 3.42187 17.3206 2.5 15 2.5C12.6794 2.5 10.4538 3.42187 8.81282 5.06282C7.17187 6.70376 6.25 8.92936 6.25 11.25C6.25 13.5706 7.17187 15.7962 8.81282 17.4372C10.4538 19.0781 12.6794 20 15 20ZM15 7.5C14.645 7.5 14.4075 7.925 13.9325 8.77875L13.81 8.99875C13.675 9.24125 13.6075 9.36125 13.5025 9.44125C13.3963 9.52125 13.265 9.55125 13.0025 9.61L12.765 9.665C11.8425 9.87375 11.3813 9.9775 11.2713 10.33C11.1613 10.6825 11.4762 11.0512 12.105 11.7862L12.2675 11.9763C12.4463 12.185 12.5362 12.2888 12.5762 12.4188C12.6162 12.5488 12.6025 12.6875 12.5762 12.9663L12.5513 13.22C12.4563 14.2013 12.4088 14.6925 12.695 14.91C12.9825 15.1275 13.415 14.9287 14.2788 14.5312L14.5012 14.4288C14.7475 14.3163 14.87 14.26 15 14.26C15.13 14.26 15.2525 14.3163 15.4988 14.4288L15.7212 14.5312C16.585 14.93 17.0175 15.1275 17.305 14.91C17.5925 14.6925 17.5437 14.2013 17.4487 13.22L17.4238 12.9663C17.3975 12.6875 17.3838 12.5488 17.4238 12.4188C17.4638 12.2888 17.5537 12.185 17.7325 11.9763L17.895 11.7862C18.5238 11.0512 18.8387 10.6837 18.7287 10.33C18.6187 9.9775 18.1575 9.87375 17.235 9.665L16.9975 9.61C16.735 9.55125 16.6037 9.5225 16.4975 9.44125C16.3925 9.36125 16.325 9.24125 16.19 8.99875L16.0675 8.77875C15.5925 7.925 15.355 7.5 15 7.5Z" fill="#D0D0D0"/>
</svg>
