<svg width="32" height="30" viewBox="0 0 32 30" fill="none" xmlns="http://www.w3.org/2000/svg">
<path fill-rule="evenodd" clip-rule="evenodd" d="M15.8009 22.1055C18.7322 22.1055 21.5436 20.941 23.6163 18.8682C25.6891 16.7954 26.8536 13.9841 26.8536 11.0528C26.8536 8.12139 25.6891 5.31007 23.6163 3.23728C21.5436 1.16448 18.7322 0 15.8009 0C12.8695 0 10.0582 1.16448 7.98539 3.23728C5.91259 5.31007 4.74811 8.12139 4.74811 11.0528C4.74811 13.9841 5.91259 16.7954 7.98539 18.8682C10.0582 20.941 12.8695 22.1055 15.8009 22.1055ZM15.8009 6.31586C15.3524 6.31586 15.0524 6.85271 14.4524 7.93115L14.2977 8.20904C14.1272 8.51536 14.0419 8.66694 13.9093 8.768C13.7751 8.86905 13.6093 8.90695 13.2777 8.98116L12.9777 9.05063C11.8124 9.31432 11.2298 9.44537 11.0908 9.89064C10.9519 10.3359 11.3498 10.8017 12.144 11.7301L12.3492 11.9701C12.575 12.2338 12.6887 12.3649 12.7393 12.5291C12.7898 12.6933 12.7724 12.8686 12.7393 13.2207L12.7077 13.5412C12.5877 14.7807 12.5277 15.4012 12.8893 15.676C13.2524 15.9507 13.7987 15.6997 14.8898 15.1975L15.1709 15.0681C15.4819 14.926 15.6367 14.8549 15.8009 14.8549C15.9651 14.8549 16.1198 14.926 16.4309 15.0681L16.7119 15.1975C17.803 15.7012 18.3493 15.9507 18.7125 15.676C19.0756 15.4012 19.0141 14.7807 18.8941 13.5412L18.8625 13.2207C18.8293 12.8686 18.812 12.6933 18.8625 12.5291C18.913 12.3649 19.0267 12.2338 19.2525 11.9701L19.4577 11.7301C20.252 10.8017 20.6499 10.3375 20.5109 9.89064C20.372 9.44537 19.7893 9.31432 18.6241 9.05063L18.3241 8.98116C17.9925 8.90695 17.8267 8.87063 17.6925 8.768C17.5598 8.66694 17.4746 8.51536 17.304 8.20904L17.1493 7.93115C16.5493 6.85271 16.2493 6.31586 15.8009 6.31586Z" fill="#D0D0D0"/>
<path opacity="0.5" d="M15.8009 22.2128L9.84657 28.3787C8.99393 29.2613 8.56761 29.7034 8.20445 29.855C7.38339 30.2024 6.46917 29.9056 6.03653 29.1476C5.84705 28.8161 5.78705 28.2161 5.67021 27.016C5.60231 26.3371 5.56916 25.9992 5.4681 25.715C5.36047 25.4055 5.18679 25.1233 4.95912 24.8877C4.73145 24.6521 4.45524 24.4689 4.14967 24.3508C3.8765 24.245 3.54966 24.2102 2.89439 24.1407C1.73543 24.0192 1.15595 23.9576 0.833839 23.7618C0.102778 23.3134 -0.186172 22.3676 0.150147 21.5165C0.29857 21.1423 0.724891 20.7002 1.57753 19.8175L5.4681 15.7896L7.42286 13.8348L15.8009 22.2128ZM15.8009 22.2128L24.1788 13.8348L26.1336 15.7896L30.0242 19.816C30.8768 20.7002 31.3031 21.1423 31.4516 21.5149C31.7879 22.3676 31.4989 23.3134 30.7679 23.7618C30.4458 23.9576 29.8679 24.0192 28.7073 24.1407C28.0536 24.2102 27.7252 24.245 27.452 24.3508C26.8378 24.586 26.3626 25.0802 26.1336 25.715C26.0325 25.9992 25.9994 26.3371 25.9315 27.0145C25.8131 28.2145 25.7547 28.8145 25.5652 29.1476C25.1325 29.9056 24.2183 30.204 23.3957 29.855C23.0357 29.7034 22.6094 29.2613 21.7567 28.3787L15.8009 22.2128Z" fill="#D0D0D0"/>
</svg>
