<svg width="30" height="30" viewBox="0 0 30 30" fill="none" xmlns="http://www.w3.org/2000/svg">
<path d="M27.6316 23.3193C28.2398 23.3196 28.8246 23.5441 29.2648 23.9462C29.705 24.3483 29.9669 24.8972 29.9961 25.4792C30.0253 26.0612 29.8197 26.6317 29.4218 27.0724C29.024 27.5131 28.4643 27.7903 27.8589 27.8466L27.6316 27.8571H2.36842C1.76018 27.8569 1.17538 27.6324 0.735179 27.2303C0.294981 26.8282 0.0331389 26.2793 0.00390906 25.6973C-0.0253208 25.1153 0.180303 24.5448 0.578172 24.1041C0.976041 23.6633 1.53565 23.3861 2.14105 23.3299L2.36842 23.3193H27.6316ZM27.6316 12.7311C28.2597 12.7311 28.8621 12.9701 29.3063 13.3956C29.7505 13.8211 30 14.3982 30 15C30 15.6017 29.7505 16.1789 29.3063 16.6044C28.8621 17.0299 28.2597 17.2689 27.6316 17.2689H2.36842C1.74028 17.2689 1.13786 17.0299 0.693695 16.6044C0.249529 16.1789 0 15.6017 0 15C0 14.3982 0.249529 13.8211 0.693695 13.3956C1.13786 12.9701 1.74028 12.7311 2.36842 12.7311H27.6316ZM27.6316 2.14285C28.2597 2.14285 28.8621 2.3819 29.3063 2.8074C29.7505 3.2329 30 3.81001 30 4.41176C30 5.01351 29.7505 5.59062 29.3063 6.01612C28.8621 6.44162 28.2597 6.68067 27.6316 6.68067H2.36842C1.74028 6.68067 1.13786 6.44162 0.693695 6.01612C0.249529 5.59062 0 5.01351 0 4.41176C0 3.81001 0.249529 3.2329 0.693695 2.8074C1.13786 2.3819 1.74028 2.14285 2.36842 2.14285H27.6316Z" fill="#D0D0D0"/>
</svg>
