<svg width="30" height="26" viewBox="0 0 30 26" fill="none" xmlns="http://www.w3.org/2000/svg">
<path d="M27.6316 21.3193C28.2398 21.3196 28.8246 21.5441 29.2648 21.9462C29.705 22.3483 29.9669 22.8972 29.9961 23.4792C30.0253 24.0612 29.8197 24.6317 29.4218 25.0724C29.024 25.5131 28.4643 25.7903 27.8589 25.8466L27.6316 25.8571H2.36842C1.76018 25.8569 1.17538 25.6324 0.735179 25.2303C0.294981 24.8282 0.0331389 24.2793 0.00390906 23.6973C-0.0253208 23.1153 0.180303 22.5448 0.578172 22.1041C0.976041 21.6633 1.53565 21.3861 2.14105 21.3299L2.36842 21.3193H27.6316ZM27.6316 10.7311C28.2597 10.7311 28.8621 10.9701 29.3063 11.3956C29.7505 11.8211 30 12.3982 30 13C30 13.6017 29.7505 14.1789 29.3063 14.6044C28.8621 15.0299 28.2597 15.2689 27.6316 15.2689H2.36842C1.74028 15.2689 1.13786 15.0299 0.693695 14.6044C0.249529 14.1789 0 13.6017 0 13C0 12.3982 0.249529 11.8211 0.693695 11.3956C1.13786 10.9701 1.74028 10.7311 2.36842 10.7311H27.6316ZM27.6316 0.142853C28.2597 0.142853 28.8621 0.381898 29.3063 0.807401C29.7505 1.2329 30 1.81001 30 2.41176C30 3.01351 29.7505 3.59062 29.3063 4.01612C28.8621 4.44162 28.2597 4.68067 27.6316 4.68067H2.36842C1.74028 4.68067 1.13786 4.44162 0.693695 4.01612C0.249529 3.59062 0 3.01351 0 2.41176C0 1.81001 0.249529 1.2329 0.693695 0.807401C1.13786 0.381898 1.74028 0.142853 2.36842 0.142853H27.6316Z" fill="url(#paint0_linear_471_9)"/>
<defs>
<linearGradient id="paint0_linear_471_9" x1="15" y1="0.142853" x2="15" y2="25.8571" gradientUnits="userSpaceOnUse">
<stop stop-color="#D0D0D0"/>
<stop offset="1" stop-color="#6A6A6A"/>
</linearGradient>
</defs>
</svg>
