<svg width="30" height="30" viewBox="0 0 30 30" fill="none" xmlns="http://www.w3.org/2000/svg">
<path d="M5.77239 29C5.31184 28.9991 4.85944 28.8767 4.4597 28.6447C3.55958 28.1273 3 27.1229 3 26.0326V3.96751C3 2.87415 3.55958 1.87285 4.4597 1.35546C4.86896 1.11688 5.33389 0.994188 5.80588 1.00021C6.27788 1.00623 6.73961 1.14075 7.14283 1.3897L25.7342 12.6779C26.1216 12.9243 26.441 13.2666 26.6624 13.6725C26.8838 14.0784 27 14.5347 27 14.9985C27 15.4624 26.8838 15.9187 26.6624 16.3246C26.441 16.7305 26.1216 17.0728 25.7342 17.3192L7.13983 28.6104C6.72719 28.8635 6.25456 28.9981 5.77239 29Z" fill="#D0D0D0"/>
</svg>
