<svg width="30" height="31" viewBox="0 0 30 31" fill="none" xmlns="http://www.w3.org/2000/svg">
<path d="M3.812 0.620901C3.62981 0.512881 3.42228 0.455005 3.21048 0.453156C2.99868 0.451306 2.79017 0.505548 2.60612 0.61037C2.42207 0.715192 2.26905 0.86686 2.16259 1.04997C2.05613 1.23307 2.00004 1.4411 2 1.6529V29.4409C2.00004 29.6527 2.05613 29.8607 2.16259 30.0438C2.26905 30.2269 2.42207 30.3786 2.60612 30.4834C2.79017 30.5883 2.99868 30.6425 3.21048 30.6406C3.42228 30.6388 3.62981 30.5809 3.812 30.4729L27.258 16.5789C27.4371 16.4726 27.5854 16.3216 27.6884 16.1407C27.7915 15.9598 27.8456 15.7551 27.8456 15.5469C27.8456 15.3387 27.7915 15.134 27.6884 14.9531C27.5854 14.7722 27.4371 14.6212 27.258 14.5149L3.812 0.620901Z" fill="#D0D0D0"/>
</svg>
